<svg width="70" height="70" viewBox="0 0 70 70" fill="none" xmlns="http://www.w3.org/2000/svg">
<g clip-path="url(#clip0_2032_2)">
<path d="M64.1667 0H5.83333C2.61167 0 0 2.61167 0 5.83333V64.1667C0 67.3883 2.61167 70 5.83333 70H64.1667C67.3883 70 70 67.3883 70 64.1667V5.83333C70 2.61167 67.3883 0 64.1667 0Z" fill="#5A7F82"/>
<path d="M41.2069 8.04479C41.2069 8.04479 41.3173 8.16364 41.3598 8.18061C41.4787 8.22306 41.5041 8.17213 41.5126 8.16364C41.5976 8.10421 41.674 8.23155 41.7759 8.24853C41.7844 8.24853 41.8184 8.28248 41.8269 8.21457C41.8269 8.16364 41.8269 8.1891 41.7759 8.13817C41.7759 8.13817 41.7589 8.12968 41.7589 8.12119L41.5126 7.90048C41.5126 7.90048 41.5041 7.89199 41.4872 7.87501C41.3852 7.77314 41.2663 7.81559 41.1135 7.67976C41.088 7.66279 41.0286 7.60336 41.0201 7.60336C40.9606 7.64581 41.0201 7.74768 41.054 7.78163C41.1644 7.95141 41.0795 7.87501 41.2069 8.0363V8.04479Z" fill="white"/>
<path d="M38.744 6.1178C38.778 6.18571 38.6846 6.13478 38.8714 6.2706C38.8969 6.28758 38.9224 6.32154 38.9648 6.347C38.9139 6.50829 38.8884 6.46585 38.8459 6.49132C39.0158 6.53376 39.0413 6.60167 39.1177 6.61865C39.1941 6.48283 39.2026 6.56772 39.313 6.50829C39.2875 6.44038 39.1856 6.40643 39.1687 6.347C39.1432 6.2706 39.1941 6.28758 39.0752 6.21118L38.9478 6.1178C38.9478 6.1178 38.9309 6.10082 38.9054 6.08385L38.8035 6.04989C38.6676 5.99896 38.6846 6.04989 38.6846 6.04989C38.6846 6.04989 38.7355 6.09233 38.7525 6.10931L38.744 6.1178Z" fill="white"/>
<path d="M43.347 11.0669C43.347 11.0669 43.347 11.1855 43.3808 11.2279C43.4316 11.1855 43.4147 11.0923 43.347 11.0669Z" fill="white"/>
<path d="M24.9182 16.9158C25.1305 17.7732 25.5212 18.6985 25.9713 19.437C26.2261 19.853 26.4723 20.218 26.7696 20.5915L26.9649 20.8292C27.2112 21.0924 27.7207 21.6527 28.0095 21.8734L28.2558 22.0771C28.4511 22.2384 28.6464 22.3742 28.8502 22.5185C29.8354 23.2061 30.9309 23.6985 32.1453 23.9956C33.054 24.2163 33.691 24.2673 34.6337 24.2673C36.519 24.2673 38.5232 23.5712 40.0434 22.527L40.7228 22.0092C40.9096 21.8394 41.1729 21.6187 41.3512 21.4404C41.4532 21.3386 41.5551 21.2367 41.6485 21.1348L42.4468 20.1586C42.5317 20.0397 42.5996 19.9294 42.6931 19.8021L43.0328 19.2418C43.4404 18.5202 43.7631 17.7392 43.9669 16.9158C44.3066 15.5745 44.3576 14.3691 44.1708 13.0109C44.0264 11.9582 43.7546 11.2452 43.347 10.3029L42.9393 9.52189C42.7016 9.1314 42.4977 8.82579 42.226 8.46926C42.0986 8.29948 41.8268 7.97689 41.6825 7.84107L41.3937 7.53547C41.071 7.21289 41.0455 7.22137 40.7738 6.9667L39.7546 6.21967C39.6358 6.13478 39.5254 6.07536 39.3895 5.99896C37.5126 4.89539 35.1347 4.43699 32.9776 4.77655C32.6379 4.82748 32.3322 4.89539 32.001 4.97179C31.1857 5.16704 30.1836 5.57451 29.4787 6.00745C29.4108 6.04989 29.3598 6.07536 29.2919 6.11781C29.2324 6.16025 29.1815 6.18572 29.1135 6.22816C28.8842 6.37248 28.2728 6.82239 28.0944 6.97519L27.3301 7.68827C27.2706 7.74769 27.2537 7.79014 27.1942 7.84107L26.7781 8.30796L26.1581 9.15686C25.6061 10.0058 25.156 11.0499 24.9012 12.0346C24.8163 12.3572 24.7484 12.6713 24.7059 13.0109C24.587 13.8428 24.604 14.0126 24.604 14.802C24.604 15.4217 24.7569 16.2961 24.9097 16.8988L24.9182 16.9158ZM31.6273 22.527C31.5509 22.4252 31.8481 22.4931 31.8821 22.51C31.8311 22.578 31.6698 22.5864 31.6273 22.527ZM37.3428 6.40643C37.3428 6.40643 37.3258 6.38945 37.3173 6.36399C37.2409 6.36399 37.2239 6.36399 37.1814 6.32154C37.105 6.25363 37.088 6.26212 37.1305 6.17723L37.1559 6.10083C37.2069 6.09234 37.2324 6.06687 37.2748 6.08385L37.3683 6.14327C37.4787 6.19421 37.4447 6.22816 37.5041 6.30456C37.5636 6.33852 37.606 6.30456 37.6655 6.34701C37.8099 6.44888 37.7419 6.46585 38.0307 6.63563C38.1156 6.68657 38.2175 6.77146 38.3534 6.7375C38.4553 6.71203 38.4978 6.55923 38.4808 6.4319C38.4553 6.40643 38.3958 6.38945 38.4128 6.33003C38.4383 6.25363 38.4468 6.32154 38.5062 6.24514L38.4893 6.22816C38.4893 6.22816 38.4893 6.22816 38.4893 6.21967L38.4468 6.18572C38.4043 6.15176 38.4383 6.16874 38.3789 6.15176C38.3109 6.12629 38.2769 6.10932 38.209 6.10083L38.1835 6.17723C38.0901 6.17723 38.0307 6.13478 37.9457 6.10083C37.8184 6.03292 37.691 5.97349 37.6145 5.84616C37.5466 5.7358 37.6315 5.7358 37.674 5.66789C37.64 5.583 37.606 5.54904 37.5466 5.49811C37.4702 5.42171 37.3937 5.39624 37.3767 5.36229C37.3937 5.31984 37.4022 5.30286 37.4447 5.29437C37.4871 5.2774 37.6655 5.32833 37.7164 5.34531C37.8353 5.37926 37.9627 5.43869 38.0816 5.48113C39.1602 5.8886 40.2897 6.61866 41.1304 7.4336C41.5636 7.84956 41.7249 8.06178 42.0901 8.46926C42.141 8.52868 42.158 8.56263 42.2005 8.62206C42.3873 8.85975 42.5487 9.09744 42.7185 9.3606C43.381 10.3963 43.916 11.763 44.0689 13.0109C44.0773 13.1042 44.0519 13.1127 44.0604 13.2061C44.0604 13.3759 44.1198 13.3759 44.1368 13.5626C44.1623 13.8003 44.2217 14.7851 44.1623 14.9633C44.1538 14.9973 44.1368 14.9973 44.1283 15.0652L44.0094 15.6255C43.9754 15.7698 43.95 15.7528 43.9415 15.8547C43.9245 15.965 43.8565 16.1093 43.865 16.347C43.865 16.4574 43.8396 16.4659 43.8311 16.5508C43.8226 16.6102 43.8226 16.7121 43.8056 16.797L43.7122 17.145C43.6867 17.2129 43.6952 17.1874 43.6867 17.2554C43.6782 17.3148 43.6697 17.3148 43.6527 17.3572C43.6357 17.3997 43.6357 17.4167 43.6187 17.4676C43.5933 17.544 43.5933 17.51 43.5678 17.5695C43.5508 17.6034 43.5593 17.6289 43.5338 17.6798C43.5083 17.7392 43.4829 17.8071 43.4489 17.8751C43.3894 18.0109 43.2875 18.0703 43.2026 18.1976C42.9903 18.5032 43.0413 18.4353 42.9224 18.7834C42.8884 18.8683 42.8204 19.0041 42.761 19.055C42.5657 19.2588 42.744 19.0975 42.5317 19.2418C42.4553 19.2927 42.4638 19.3521 42.4298 19.437C42.3958 19.5219 42.3109 19.6408 42.243 19.6832C42.1835 19.7257 42.1665 19.7851 42.1071 19.8275C42.0646 19.8615 42.0646 19.8445 42.0306 19.8954C41.8948 20.0907 41.9542 20.0397 41.7759 20.218C41.7419 20.252 41.7334 20.269 41.6909 20.2944L41.6145 20.3369C41.6145 20.3369 41.5805 20.3284 41.5041 20.3538C41.4532 20.3708 41.4616 20.3793 41.4022 20.3963C41.3003 20.4218 41.2239 20.3963 41.1474 20.4387C41.071 20.4812 41.071 20.5236 40.9521 20.5236C40.8757 20.4133 40.9691 20.3369 41.037 20.2435C41.037 20.2435 41.037 20.2435 41.037 20.235L41.0965 20.1077C41.1219 20.0397 41.1219 20.0228 41.1729 19.9888C41.1559 19.9039 41.1474 19.8869 41.1474 19.7851C41.1474 19.7257 41.1984 19.6577 41.1899 19.5898C41.1304 19.2757 41.0965 19.4455 41.2918 19.0211C41.3852 18.8173 41.2663 18.8852 41.3512 18.6306C41.3682 18.5712 41.3767 18.4948 41.4107 18.4523C41.3003 18.3759 41.4107 18.4014 41.3258 18.2316C41.2918 18.1722 41.3258 18.1552 41.3003 18.0958C41.2663 18.0109 41.1814 18.0279 41.3258 17.9345C41.4022 17.8835 41.4277 17.7647 41.4447 17.6713C41.5041 17.3402 41.4447 17.3572 41.6315 17.3233C41.6909 17.1535 41.7334 17.2469 41.7759 17.1535C41.8608 16.9413 41.7589 16.9328 41.7334 16.9158C41.7334 16.6951 41.7929 16.797 41.8608 16.6951C41.8268 16.6611 41.8438 16.6696 41.7844 16.6442C41.7844 16.6017 41.7844 16.6017 41.7844 16.5762C41.7844 16.5423 41.7759 16.5593 41.7674 16.5253C41.7589 16.4319 41.8353 16.4149 41.7674 16.2621L41.674 16.0329C41.657 15.9735 41.6485 15.9905 41.64 15.9141C41.64 15.8462 41.657 15.8717 41.657 15.8207C41.657 15.7528 41.6315 15.7868 41.657 15.6934C41.5805 15.6764 41.5211 15.6594 41.4786 15.6085C41.4192 15.5406 41.4192 15.3284 41.4277 15.3199C41.4447 15.2859 41.4532 15.3114 41.4701 15.2435C41.4786 15.201 41.4701 15.0567 41.4701 14.9973C41.5126 14.9209 41.5211 14.9973 41.5381 14.87C41.5466 14.802 41.5211 14.7851 41.5211 14.7341C41.5211 14.6577 41.5466 14.6917 41.4956 14.5898C41.4192 14.4455 41.3427 14.5304 41.2408 14.4964C41.1814 14.4795 41.1814 14.437 41.1389 14.4031C41.0625 14.3351 41.0625 14.4031 41.02 14.3267C40.9861 14.2672 41.0115 14.2333 40.9776 14.1823C40.9096 14.1314 40.8247 14.1484 40.7313 14.1229C40.6379 14.089 40.6803 14.1059 40.6124 14.0635C40.5699 14.038 40.5275 14.0295 40.4935 14.0465C40.4171 14.072 40.451 14.1399 40.3491 14.1654C40.1538 14.2248 40.2217 14.3097 40.1453 14.3606C40.1283 14.3691 39.899 14.42 39.8141 14.3436C39.7801 14.3097 39.7207 14.2927 39.6697 14.2757C39.5933 14.2418 39.5848 14.2503 39.5084 14.2757C39.1687 14.4031 39.4404 14.3861 39.2026 14.3861H38.9648C38.9648 14.3861 38.9224 14.3861 38.8714 14.3946C38.8035 14.3691 38.8375 14.3521 38.7865 14.3267C38.7525 14.3012 38.7101 14.3097 38.6676 14.2927C38.6167 14.1229 38.6676 14.2333 38.5657 14.1654C38.4808 14.0975 38.5997 14.072 38.4213 14.0465C38.1241 14.0126 38.2515 14.1144 38.1326 13.9447L38.1156 13.9277C37.9542 13.7409 38.0222 13.5966 37.9967 13.5457L37.8608 13.4183C37.8184 13.3929 37.7164 13.3759 37.674 13.3504C37.674 13.2655 37.6995 13.257 37.674 13.2146C37.6315 13.1552 37.6145 13.2146 37.5551 13.1806C37.5041 13.1637 37.5211 13.0024 37.4871 12.926C37.3852 12.9005 37.3513 12.9599 37.3003 12.8411C37.3003 12.8326 37.2578 12.7307 37.2578 12.7222C37.2494 12.6628 37.2748 12.6713 37.2918 12.6289C37.3088 12.5949 37.2748 12.4591 37.2663 12.3912C37.2663 12.2723 37.3088 12.2978 37.2833 12.1535C37.3258 12.128 37.3598 12.111 37.4362 12.111C37.4362 11.9837 37.4362 11.9073 37.4192 11.8054C37.3937 11.712 37.4447 11.6102 37.3428 11.5677C37.2918 11.5508 37.2663 11.5592 37.2409 11.5168C37.1644 11.4149 37.3767 11.3895 37.0625 11.2876V11.1942L37.1814 11.1518C37.2069 11.016 37.1644 10.982 37.3173 10.965L37.2918 10.7528L37.4362 10.7188C37.3937 10.6255 37.3852 10.4981 37.4787 10.4472C37.5551 10.4047 37.5211 10.4217 37.5551 10.3453C37.5975 10.235 37.5891 10.3283 37.64 10.2604C37.674 10.201 37.64 10.1246 37.7164 10.1076C37.7164 10.1076 37.7249 10.1076 37.7334 10.1076C37.7504 10.1076 37.7674 10.1076 37.7759 10.1076C37.8268 10.1076 37.8693 10.1076 37.8948 10.0737C38.0901 9.79354 37.9882 9.93785 38.1241 9.84447C38.1241 9.75109 38.0646 9.53887 38.0392 9.47096C38.0646 9.44549 38.0392 9.47096 38.0731 9.45398C38.1496 9.42002 38.0901 9.47096 38.1835 9.38607C38.3194 9.26722 38.226 9.31815 38.3364 9.23326C38.3364 9.15686 38.3109 9.17384 38.3449 9.1314C38.3704 9.09744 38.4043 9.09744 38.4298 9.08046C38.4043 9.04651 38.3874 8.99557 38.4043 8.96162C38.4808 8.86824 38.829 9.06348 38.9394 9.12291C39.0328 9.08046 39.0243 9.04651 39.0243 8.96162C39.0243 8.85126 39.1347 8.90219 39.1941 8.88522C39.2706 8.86824 39.2536 8.80033 39.6103 8.80882C39.7037 8.80882 39.6442 8.85975 39.7292 8.83428C39.8396 8.80033 40.0264 8.78335 40.1368 8.79184C40.1113 8.7409 40.1113 8.78335 40.1198 8.70695L40.2642 8.80033C40.2642 8.80033 40.3152 8.83428 40.3321 8.85126C40.3576 8.88522 40.3321 8.89371 40.3746 8.93615C40.4171 8.97859 40.4765 8.97859 40.502 9.055C40.536 9.13989 40.502 9.19931 40.502 9.27571C40.5275 9.31815 40.5954 9.37758 40.6294 9.41153C40.7058 9.41153 40.6973 9.38607 40.7738 9.42002C40.9521 9.5134 40.9776 9.40304 41.1559 9.59829C41.2154 9.6662 41.2323 9.63225 41.2493 9.64922L41.3512 9.71714C41.4107 9.7426 41.5381 9.86994 41.5975 9.79354C41.674 9.61527 41.4362 9.59829 41.64 9.47945C41.6994 9.46247 41.9797 9.62376 41.9882 9.63225C42.0222 9.67469 41.9882 9.68318 42.0561 9.70865C42.141 9.7426 42.0816 9.70865 42.1326 9.70865C42.1835 9.70865 42.2515 9.76807 42.2769 9.819C42.3703 9.75958 42.3619 9.78505 42.4723 9.89541C42.5487 9.82749 42.5572 9.7426 42.5147 9.6662C42.4553 9.55585 42.4383 9.5898 42.4043 9.45398C42.3873 9.40304 42.3279 9.27571 42.2939 9.22478C42.2515 9.16535 42.2005 9.10593 42.1665 9.02953C42.0137 9.04651 42.1241 9.04651 41.9882 9.00406C41.8863 8.97011 41.8863 9.00406 41.8183 9.02104L41.6655 8.91068C41.5636 8.84277 41.6485 8.84277 41.5551 8.77486L41.3173 8.52019C41.3173 8.52019 41.3003 8.45228 41.2663 8.42681C41.1984 8.37588 41.1389 8.44379 41.1814 8.5117C41.2323 8.59659 41.3258 8.53717 41.3343 8.72393C41.3343 8.80882 41.3767 8.82579 41.4022 8.88522C41.2833 8.98708 41.1474 8.74939 41.1135 8.70695C41.054 8.63055 41.0795 8.68148 41.003 8.64752C40.9181 8.60508 40.9181 8.53717 40.8247 8.48623C40.7398 8.44379 40.7907 8.46077 40.7568 8.38437C40.6973 8.24005 40.6294 8.23156 40.502 8.11272C40.3576 7.97689 40.2472 7.98538 40.1878 7.93445L40.1283 7.88352C40.0604 7.83258 39.9415 7.7392 39.8566 7.74769C39.8056 7.84956 39.916 7.87503 39.9924 7.92596C40.0434 7.96841 40.0264 7.96841 40.1028 8.00236C40.1963 8.04481 40.1708 8.09574 40.3236 8.15516C40.3831 8.18063 40.3746 8.18912 40.4341 8.23156C40.519 8.29099 40.6718 8.30796 40.6803 8.38437V8.48623C40.6973 8.53717 40.7058 8.54566 40.7058 8.61357C40.6633 8.5881 40.7058 8.61357 40.6803 8.5881L40.6039 8.53717C40.502 8.50321 40.5614 8.53717 40.5105 8.46077C40.3916 8.30796 40.1878 8.32494 40.1793 8.31645C40.1368 8.30796 40.1113 8.25703 40.0774 8.24854C40.0519 8.23156 39.8905 8.18912 39.8735 8.1297C39.8735 8.1297 39.8735 8.1297 39.8651 8.1297L39.8226 8.22307C39.7631 8.2061 39.7037 8.18063 39.6612 8.15516C39.7037 8.00236 39.7716 8.13818 39.8481 8.09574C39.8481 7.99387 39.6952 8.02783 39.5678 7.90049C39.4829 7.8156 39.4999 7.86654 39.4829 7.87503C39.4319 7.92596 39.4829 7.97689 39.5084 8.02783C39.4829 8.03632 39.3555 8.07876 39.3215 8.07027C39.2706 8.07027 39.2366 8.03632 39.1857 8.04481C39.1007 8.0533 39.1772 8.1297 39.1941 8.21459C39.1517 8.25703 39.1602 8.24854 39.1262 8.30796C39.0837 8.38437 39.1007 8.35041 39.0328 8.38437C39.0328 8.46926 39.0498 8.5117 39.0498 8.59659C39.0498 8.67299 39.0668 8.70695 39.0752 8.78335C39.0158 8.8173 39.0158 8.78335 38.9733 8.8173C38.9394 8.84277 38.9479 8.85975 38.9054 8.90219C38.8375 8.91917 38.4213 8.90219 38.3789 8.88522C38.2769 8.84277 38.3789 8.80033 38.2005 8.80033C38.1241 8.80033 38.0646 8.79184 37.9627 8.78335C37.9372 8.7409 37.9118 8.69846 37.8948 8.63904C37.8693 8.55415 37.8778 8.56263 37.8099 8.52868C37.8099 8.42681 37.8268 8.40983 37.8014 8.33343C37.7674 8.23156 37.7759 8.24854 37.8608 8.19761C37.8099 8.17214 37.7674 8.01934 37.7589 7.95143C37.8353 7.91747 38.0052 7.90049 38.0901 7.88352C38.1241 7.88352 38.2005 7.88352 38.2345 7.91747C38.2685 7.94294 38.2685 7.98538 38.3109 8.01934C38.3704 7.95992 38.3619 7.92596 38.4468 7.88352C38.5487 7.84107 38.5572 7.84107 38.4723 7.78165C38.5147 7.54396 38.3704 7.62885 38.243 7.51849C38.1835 7.46755 38.0052 7.39964 37.9288 7.33173C37.8948 7.30626 37.9118 7.33173 37.9033 7.28929C37.9373 7.26382 38.0137 7.2808 38.0392 7.27231C38.0816 7.26382 38.0731 7.22986 38.1071 7.19591C38.2515 7.17893 38.26 7.22986 38.243 7.06008C38.1496 7.09404 38.0986 7.09404 37.9797 7.08555C37.8863 7.08555 37.8353 7.11102 37.7334 7.11102C37.691 7.04311 37.691 6.9667 37.6485 6.8903C37.623 6.83937 37.6485 6.84786 37.5551 6.68657C37.5211 6.62715 37.5041 6.64412 37.4871 6.57621H37.3598L37.4022 6.76297C37.3852 6.77995 37.3598 6.78844 37.3598 6.8139C37.3428 6.84786 37.3598 6.8139 37.3598 6.85635V6.86484V6.8903C37.2578 6.94124 37.2494 6.90728 37.1814 6.8903C37.1305 6.87333 37.0965 6.8903 37.0201 6.86484C37.0031 6.79692 36.9606 6.6611 36.9606 6.61017C37.0201 6.5847 37.0285 6.61017 37.088 6.56772C37.122 6.54226 37.1305 6.52528 37.1814 6.5083C37.2748 6.55923 37.1559 6.53377 37.3683 6.57621C37.3343 6.52528 37.3598 6.57621 37.3173 6.53377L37.3428 6.40643ZM39.2621 8.24854C39.3045 8.26552 39.3385 8.30796 39.347 8.32494C39.2876 8.35041 39.2621 8.30796 39.2621 8.24854ZM39.8396 8.17214L39.8905 8.14667C39.8905 8.14667 39.9245 8.15516 39.967 8.19761C40.0094 8.24005 40.0689 8.3589 40.0519 8.42681C40.0009 8.44379 39.9755 8.44379 39.933 8.42681C39.882 8.39285 39.8905 8.36739 39.8566 8.30796L39.8311 8.27401C39.8141 8.24005 39.8311 8.23156 39.8311 8.18063L39.8396 8.17214ZM40.4935 8.5881C40.5529 8.5881 40.6294 8.5881 40.6718 8.57112C40.7398 8.52868 40.6803 8.50321 40.8077 8.50321C40.7907 8.60508 40.7822 8.55415 40.7653 8.63055C40.7568 8.67299 40.7653 8.71544 40.7568 8.75788C40.7313 8.75788 40.5869 8.71544 40.5614 8.70695L40.519 8.68148C40.519 8.68148 40.485 8.68148 40.502 8.59659L40.4935 8.5881ZM41.589 8.99557C41.6825 8.93615 41.8183 9.02104 41.8098 9.09744C41.7419 9.14837 41.6145 9.06348 41.589 8.99557ZM42.175 9.09744C42.175 9.09744 42.226 9.11442 42.2684 9.1314V9.23326L42.2005 9.18233C42.1665 9.1314 42.175 9.18233 42.1835 9.10593L42.175 9.09744ZM36.2727 12.3827C36.2727 12.3827 36.2897 12.4251 36.2897 12.4591C36.2387 12.4591 36.2387 12.4591 36.2133 12.4336C36.2218 12.3912 36.2303 12.3827 36.2812 12.3742L36.2727 12.3827ZM35.33 5.5066C35.5169 5.46415 35.5339 5.4302 35.7632 5.46415C35.8141 5.46415 35.8651 5.49811 35.8566 5.55753C35.8481 5.62544 35.7886 5.59998 35.7122 5.61696C35.6952 5.61696 35.5933 5.69336 35.3725 5.62544C35.3216 5.60847 35.2961 5.57451 35.2791 5.53207L35.33 5.51509V5.5066ZM35.3216 23.9022C35.381 23.8853 35.2961 23.8937 35.381 23.8853C35.415 23.8853 35.432 23.8853 35.4744 23.8853C35.5339 23.8853 35.5424 23.8598 35.6188 23.8598C35.6697 23.8598 35.7207 23.8598 35.7547 23.8598C35.8396 23.8598 35.7886 23.8258 35.899 23.8513C36.001 23.8683 36.1368 23.8598 36.2387 23.8428C36.3746 23.8089 36.5105 23.8089 36.6634 23.8089C36.7483 23.8089 36.7143 23.8004 36.7908 23.7749C36.8587 23.7579 36.8502 23.7919 36.9351 23.7749C37.0201 23.7749 36.9861 23.7325 37.071 23.7919C36.9266 23.8513 36.6804 23.8938 36.5275 23.9277C35.2366 24.2078 33.7165 24.2333 32.4171 23.9362C32.3237 23.9107 32.2133 23.8853 32.1199 23.8768C32.1878 23.8343 32.1538 23.8768 32.3831 23.8683L32.3662 23.7494C32.3662 23.7494 32.4001 23.724 32.4171 23.6985C32.2388 23.6985 32.3067 23.6306 32.3492 23.5287C32.3746 23.4693 32.3492 23.4863 32.4086 23.4608C32.5445 23.3929 32.5785 23.3335 32.7228 23.4269C32.7059 23.5542 32.6889 23.4438 32.6634 23.5712C32.7483 23.673 32.8163 23.6815 32.8587 23.7155C32.9352 23.7749 32.9012 23.8173 33.071 23.8598C33.3173 23.9192 33.139 24.0211 33.5891 24.0466C33.691 24.0466 33.7844 24.0635 33.8863 24.072C34.4383 24.1484 34.3024 24.072 34.6506 24.0466C34.7016 24.0466 34.7441 24.0466 34.795 24.0211C34.8545 24.0041 34.846 23.9871 34.9054 23.9871C34.9903 23.9871 34.9903 24.0041 35.0498 23.9617C35.1262 23.9107 35.0668 23.9277 35.1772 23.9192C35.2281 23.9192 35.2961 23.9192 35.3385 23.8937L35.3216 23.9022ZM25.4193 11.5508L25.5297 11.1348C25.5297 11.0754 25.5297 11.0414 25.5552 10.9905C25.6146 10.8462 25.5891 10.9056 25.6146 10.7783C25.6486 10.6339 25.725 10.4557 25.725 10.3199C25.725 10.2265 25.725 10.2774 25.776 10.235L25.759 10.1416C25.7165 10.2095 25.6995 10.2774 25.6401 10.3283C25.742 10.0397 26.2006 9.27571 26.3619 9.04651C26.5997 8.70695 26.846 8.3589 27.1348 8.0533C27.1772 8.00236 27.1942 7.97689 27.2367 7.93445C27.4575 7.69676 27.7717 7.37418 28.018 7.17044C28.0604 7.13648 28.0859 7.10253 28.1369 7.06857C28.2218 7.00915 28.2897 6.94124 28.3747 6.87333C28.6889 6.62714 29.0626 6.34701 29.4192 6.15176C30.3959 5.60847 30.8205 5.42171 31.8991 5.10762L32.6124 4.94633C33.0965 4.86144 34.4044 4.68317 34.9564 4.8105V4.92935C34.9564 4.92935 34.9988 4.95481 35.0413 4.97179C35.0413 5.06517 35.0158 5.05668 35.0158 5.09913C35.0158 5.18402 35.0413 5.13308 35.0668 5.19251C34.9649 5.18402 34.9819 5.12459 34.8714 5.17553C34.9394 5.20948 34.9309 5.16704 34.9649 5.23495C34.9309 5.26042 34.6337 5.31135 34.4808 5.41322C34.4129 5.45566 34.4383 5.45566 34.3449 5.46415C34.243 5.46415 34.1581 5.47264 34.0647 5.51509C33.9712 5.55753 34.0477 5.55753 33.9882 5.60847L33.8948 5.64242C33.8099 5.66789 33.8439 5.71882 33.8099 5.78674C33.7165 5.93954 33.623 5.97349 33.4872 5.83767C33.3428 5.87162 33.4022 5.91407 33.2579 5.82918C33.1899 5.78673 33.1305 5.74429 33.1305 5.63393C33.1305 5.37926 33.1305 5.37077 33.3173 5.30286C33.3003 5.26891 33.2833 5.26042 33.2664 5.23495C33.3088 5.19251 33.3003 5.16704 33.3173 5.10762C33.3598 5.06517 33.3937 5.05668 33.4277 4.98877C33.3428 4.92086 33.1814 4.92935 33.0625 4.92935C32.9776 4.92935 32.9861 4.92935 32.9267 4.94633C32.8332 4.97179 32.7568 4.94633 32.6549 4.98877C32.6209 5.00575 32.587 5.02273 32.5445 5.03121C32.3322 5.08215 32.4766 5.15855 32.485 5.22646C32.485 5.26042 32.4596 5.26891 32.4511 5.30286C32.4341 5.3538 32.4511 5.31135 32.4511 5.36229C32.4596 5.40473 32.4766 5.46415 32.4935 5.5066C32.2218 5.62544 32.4001 5.47264 32.1793 5.5066C32.1284 5.59149 32.1623 5.68487 32.0689 5.71882C32.018 5.74429 31.984 5.71882 31.933 5.7358C31.8141 5.76976 31.9161 5.83767 31.6868 5.76127C31.5509 5.71882 31.6783 5.6594 31.4744 5.65091L31.381 5.63393C31.4235 5.59149 31.4235 5.63393 31.4999 5.54055C31.5763 5.54055 31.5594 5.55753 31.5933 5.55753C31.7122 5.54904 31.6952 5.45566 31.8396 5.43869C31.8226 5.40473 31.8226 5.39624 31.7972 5.3538C31.6528 5.3538 31.5594 5.44718 31.4914 5.47264C31.3895 5.51509 31.2706 5.51509 31.2112 5.60847C31.1093 5.76127 31.1602 5.66789 31.0838 5.75278C31.1687 5.79522 31.2027 5.69336 31.2961 5.67638C31.2791 5.75278 31.2366 5.75278 31.3216 5.76976C31.5424 5.82069 31.432 5.95651 31.415 6.03292C31.3471 6.27061 31.8311 5.83767 31.8481 6.01594C31.8481 6.0414 31.8481 6.03292 31.8481 6.04989C31.7972 6.38945 31.8481 6.24514 31.9161 6.39794C31.984 6.55923 32.1538 6.55923 32.0434 6.7375C31.8906 6.98368 31.95 7.03462 32.1538 7.08555C32.1538 7.14497 32.1369 7.17893 32.1284 7.22986C32.0519 7.48453 31.8991 7.25533 31.7632 7.26382C31.6188 7.2808 31.5933 7.32324 31.4405 7.27231C31.4405 7.128 31.4999 7.128 31.5848 7.04311C31.6273 7.00066 31.6273 6.99217 31.6952 6.9667C31.7972 6.93275 31.7292 6.9667 31.7887 6.88181C31.6952 6.85635 31.6358 6.94124 31.4744 6.94973C31.3216 6.94973 31.2876 6.94973 31.2112 7.07706C31.0243 7.09404 31.0753 6.99217 30.9734 6.97519C30.9479 6.97519 30.9224 6.97519 30.9054 6.98368C30.8375 7.02613 30.8885 7.02613 30.7781 7.06857C30.9224 7.09404 30.8545 7.05159 30.9564 7.128C30.8969 7.32324 30.7696 7.37418 31.0243 7.42511C31.0668 7.4336 31.2366 7.37418 31.2027 7.45907C31.2027 7.45907 31.1942 7.47604 31.1857 7.48453L30.9394 7.63733C30.8885 7.65431 30.8715 7.6628 30.8375 7.67129L30.6422 7.75618C30.5657 7.79863 30.5997 7.84107 30.5063 7.84956C30.4468 7.84956 30.4384 7.82409 30.4214 7.79014L30.4044 7.75618C30.4044 7.75618 30.3789 7.72222 30.3619 7.67978C30.0817 7.67978 30.1411 7.70525 29.9713 7.82409C29.9033 7.86654 29.9288 7.84956 29.8863 7.92596C29.8269 8.03632 29.8269 8.08725 29.6995 8.11272C29.5976 8.1297 29.5721 8.2061 29.5297 8.29948C29.4617 8.29948 29.4023 8.26552 29.3428 8.30796C29.3004 8.33343 29.3258 8.33343 29.2749 8.36739C28.9437 8.53717 28.9607 8.73241 28.9267 8.79184L28.7229 9.055C28.6464 9.1314 28.4851 9.17384 28.4256 9.22478C28.3832 9.26722 28.3662 9.30967 28.3067 9.34362C28.1963 9.41153 28.2133 9.3606 28.1029 9.48793C28.0265 9.58131 27.9925 9.50491 27.9415 9.6662L27.8057 9.99727C27.7802 10.0737 27.8057 10.1076 27.8566 10.1501C27.8396 10.218 27.8311 10.184 27.8142 10.2519C27.7802 10.3453 27.7717 10.4557 27.7038 10.5406C27.6358 10.5406 27.6613 10.5491 27.6188 10.5066C27.6103 10.4981 27.5764 10.4557 27.5764 10.4472C27.5594 10.3963 27.5764 10.4302 27.5764 10.3623C27.5764 10.2435 27.5339 10.3623 27.5764 10.1246L27.5594 10.1076C27.5594 10.1076 27.5594 10.1076 27.5509 10.1076C27.4914 10.0397 27.5849 9.97181 27.5764 9.86994C27.4405 9.76807 27.2961 9.78505 27.1348 9.80203C27.0923 9.91238 27.0753 9.91238 27.0159 9.98878C26.9734 10.0397 27.0074 10.0737 26.9564 10.0822C26.8885 10.0991 26.9224 10.0312 26.9224 9.99727C26.9224 9.90389 26.7951 9.92087 26.7271 9.92087C26.6082 9.92087 26.3534 10.3029 26.311 10.3878L26.1921 10.5915C26.1411 10.6509 26.1157 10.7528 26.0732 10.8292C26.0477 10.8801 26.0392 10.8716 26.0222 10.948C26.0053 11.016 25.9968 11.1688 25.9883 11.2706L25.9203 11.6696C25.9203 11.729 25.9118 11.7545 25.9288 11.7969C25.9713 11.8394 26.0902 11.8649 26.1666 11.8139C26.2346 11.7715 26.2685 11.6951 26.328 11.6441C26.4214 11.5677 26.3959 11.5253 26.4469 11.4489C26.4723 11.4064 26.4893 11.381 26.5148 11.347C26.5403 11.3046 26.5403 11.2706 26.5912 11.2706C26.6337 11.2706 26.7016 11.3131 26.7186 11.3555C26.7186 11.4744 26.6592 11.4659 26.6082 11.5253C26.5658 11.5847 26.5573 11.6526 26.5403 11.729C26.5063 11.8564 26.4723 11.8309 26.4469 11.9073C26.345 12.1874 26.3619 12.0601 26.4554 12.1789C26.4808 12.2129 26.4723 12.2129 26.4978 12.2553C26.6252 12.2808 26.6592 12.1789 26.7441 12.2129C26.8036 12.2469 26.7696 12.2299 26.7951 12.2978C26.8036 12.3317 26.812 12.3317 26.829 12.3742C26.863 12.5015 26.8036 12.7902 26.7611 12.909C26.7271 12.9939 26.7016 12.9939 26.7271 13.0703C26.7526 13.1552 26.7356 13.1552 26.7526 13.2316C26.7611 13.274 26.7951 13.3334 26.8205 13.3759C26.863 13.4438 26.8715 13.4608 26.9564 13.4608C26.9904 13.4098 26.9904 13.3419 27.0583 13.3334L27.2367 13.3165C27.2961 13.4353 27.3386 13.4353 27.4745 13.4014C27.6783 13.3419 27.6018 13.257 27.6953 13.1637C27.7123 13.1467 27.6953 13.1637 27.7207 13.1382L27.7717 13.0958C27.8396 13.0533 27.9415 13.0448 27.9925 12.9939L28.0435 12.9514C28.0435 12.9514 28.0265 12.9514 28.0859 12.909C28.1454 12.892 28.1878 12.909 28.2133 12.9684C28.2473 13.0448 28.2133 13.0278 28.2982 13.0873C28.4511 13.0109 28.3832 12.9684 28.4851 12.909C28.57 12.9599 28.5105 12.9769 28.621 12.9345C28.6634 13.0024 28.621 13.0194 28.6634 13.0618C28.6974 13.1042 28.6634 13.0703 28.7144 13.0788C28.7653 13.0788 28.8672 13.1297 28.8927 13.1976C28.9267 13.291 28.9352 13.3334 29.0541 13.2146L29.0965 13.1722C29.0965 13.1722 29.1645 13.1637 29.2154 13.1552C29.3004 13.1467 29.2494 13.1552 29.3088 13.1127C29.3768 13.1467 29.3088 13.1467 29.3938 13.1467H29.5721C29.6825 13.1467 29.6655 13.1042 29.691 13.1042C29.7844 13.1042 29.8014 13.274 29.8014 13.3419L29.9118 13.3674C29.9373 13.4608 29.9288 13.5796 29.9543 13.6051C29.9798 13.6306 29.9967 13.6475 30.0307 13.6645C30.0307 13.6645 30.0562 13.6645 30.0732 13.673C30.1581 13.6985 30.226 13.8343 30.26 13.9192C30.294 14.0126 30.311 14.055 30.4044 14.072C30.4468 14.072 30.4384 14.072 30.4808 14.072C30.5403 14.072 30.5572 14.072 30.6082 14.072C30.8035 14.038 30.863 14.0975 30.9564 14.1314C30.9734 14.1314 30.9904 14.1314 31.0158 14.1484L31.381 14.2927C31.381 14.3521 31.381 14.42 31.415 14.4625C31.4405 14.5049 31.4914 14.5134 31.4659 14.5898C31.4065 14.7341 31.398 14.5389 31.398 14.9294C31.4235 14.9294 31.4659 14.9294 31.4744 14.9294C31.5594 14.9633 31.5848 14.9464 31.6783 14.9633C31.7292 15.218 31.8396 14.9294 31.8991 15.3029C32.018 15.3708 32.0349 15.3029 32.1538 15.3708C32.4001 15.5151 32.3831 15.4557 32.5105 15.4727C32.6039 15.4896 32.5445 15.4897 32.6124 15.5321C32.7143 15.6 32.6974 15.5406 32.7738 15.6849L32.8672 15.6594L32.9606 15.7358C33.0031 15.7698 32.9946 15.7783 33.054 15.8037C33.122 15.7698 33.1305 15.7019 33.2069 15.7358C33.2154 15.7613 33.1899 15.7868 33.1645 15.7953C33.2239 15.8292 33.2069 15.7953 33.2324 15.8632C33.3003 15.8547 33.3343 15.8632 33.4022 15.8547C33.4872 15.8547 33.708 15.9056 33.7419 15.999C33.8439 15.999 33.9627 16.0245 33.9882 16.1263C34.1581 16.1263 34.0901 16.1433 34.1836 16.1773C34.2515 16.2027 34.294 16.1942 34.3534 16.2367C34.4129 16.2791 34.5912 16.4065 34.5827 16.4914C34.5402 16.5932 34.4383 16.6866 34.3364 16.7121C34.1071 16.7885 34.226 16.8139 34.0477 16.8903C33.9118 16.9498 33.9967 16.9328 33.9288 17.0007C33.8693 17.0601 33.8354 17.0092 33.8184 17.1195C33.8099 17.1874 33.8269 17.162 33.7929 17.2214C33.7844 17.2384 33.7844 17.2384 33.7674 17.2554C33.674 17.4251 33.64 17.2978 33.5976 17.3912C33.5211 17.5525 33.5636 17.5185 33.4107 17.6713C33.4362 17.7817 33.4277 17.909 33.4702 17.9939C33.4872 18.0279 33.5211 18.0788 33.5042 18.1297C33.4872 18.1722 33.4872 18.1297 33.4702 18.1891C33.4617 18.2316 33.4702 18.2401 33.4702 18.274C33.4617 18.3589 33.4277 18.325 33.4022 18.3844C33.3768 18.4693 33.4277 18.4608 33.3683 18.5372C33.3343 18.5796 33.3258 18.6051 33.2918 18.6476C33.2579 18.6985 33.2579 18.7409 33.2239 18.7749C33.122 18.8428 32.9012 18.9362 32.7653 18.9362C32.7653 19.0126 32.7653 19.0041 32.7313 19.055C32.6464 19.055 32.553 19.038 32.485 19.072C32.4001 19.1229 32.2303 19.1569 32.1453 19.1993C32.0434 19.2503 32.0689 19.3182 32.0774 19.4116C32.1029 19.6238 32.1708 19.7002 31.984 19.7851C31.8736 19.8275 31.9161 19.8021 31.8821 19.8785C31.8566 19.9294 31.8056 19.9549 31.7972 20.0058C31.7887 20.0567 31.8226 20.1161 31.7972 20.1501C31.7632 20.201 31.7547 20.1841 31.6868 20.2095C31.6358 20.235 31.6358 20.2435 31.5848 20.2605C31.5933 20.3114 31.6443 20.3963 31.6103 20.4557C31.5763 20.5151 31.5763 20.4642 31.5339 20.5491C31.5084 20.6 31.5254 20.634 31.4575 20.634C31.3301 20.634 31.1857 20.4727 31.1262 20.5576C31.1093 20.6255 31.1942 20.7019 31.2366 20.7528C31.2791 20.7953 31.3046 20.8971 31.3046 20.9735C31.1008 21.0499 31.2706 21.033 31.1008 21.0839C31.1008 21.0839 31.1008 21.0839 31.0923 21.0839H30.8715C30.7696 21.0669 30.795 21.1009 30.8035 21.2112C30.8035 21.4829 30.8545 21.3895 30.6337 21.3895C30.6931 21.4489 30.7526 21.5083 30.7526 21.6017C30.7101 21.6187 30.6931 21.6272 30.6337 21.6357C30.6592 21.6951 30.6761 21.6866 30.6846 21.7375C30.6931 21.797 30.6167 21.9413 30.7696 21.9922C30.846 22.0177 30.9054 22.0177 30.9224 22.1196C30.9394 22.179 30.9054 22.2639 30.8969 22.3318C30.8885 22.4082 30.9394 22.4676 30.9989 22.4931C31.0583 22.527 31.1178 22.5695 31.1517 22.5949C31.2451 22.6713 31.2536 22.6119 31.3386 22.6798C31.381 22.7138 31.4744 22.7562 31.4914 22.8072C31.4405 22.8241 31.3301 22.8241 31.2621 22.8241C31.1517 22.8241 31.0413 22.7647 30.9224 22.7223C30.812 22.6798 30.7356 22.6713 30.6507 22.5864C30.6167 22.5525 30.5827 22.527 30.5318 22.5016C30.3534 22.3997 30.311 22.2808 30.2175 22.2299C30.0817 22.1535 30.1241 22.1111 30.0392 22.0092C30.0052 21.9583 29.9713 21.9413 29.9458 21.8988C29.8694 21.7375 29.9458 21.7375 29.7929 21.6696C29.691 21.6187 29.6655 21.5338 29.6061 21.4489C29.5636 21.398 29.5721 21.4489 29.5806 21.3895C29.5806 21.3216 29.5806 21.3895 29.6061 21.3301C29.4957 21.2622 29.5127 21.1263 29.4787 21.0669C29.4192 20.9481 29.3598 20.965 29.2919 20.8462C29.2409 20.7528 29.3004 20.634 29.3004 20.5321C29.3004 20.4472 29.2919 20.5321 29.2664 20.4472C29.2409 20.3538 29.2919 20.3454 29.2154 20.252C29.156 20.1671 29.1475 20.2265 29.105 20.1162C29.0371 19.9294 28.9522 19.7681 28.9352 19.5559C28.9267 19.4455 28.9097 19.437 28.8927 19.3521C28.8757 19.2672 28.9182 19.2418 28.9607 19.2078L28.8587 18.9362C28.8248 18.8004 28.7823 18.7919 28.7993 18.673C28.8078 18.5712 28.7908 18.6051 28.7823 18.5287C28.7653 18.3929 28.7483 18.2825 28.6634 18.1891C28.5785 18.0958 28.57 17.9854 28.4256 17.9599C28.1454 17.909 28.2982 17.8496 28.1454 17.7732C28.0944 17.7477 28.1284 17.7647 28.0859 17.7392C27.984 17.6628 27.9585 17.6968 27.8651 17.5949L27.7207 17.4251C27.6528 17.3487 27.6188 17.2044 27.5424 17.1195C27.4235 16.9922 27.4999 16.9922 27.4405 16.8818C27.4235 16.8394 27.4065 16.8309 27.381 16.7885C27.2367 16.5338 27.3301 16.6951 27.2706 16.5253C27.2367 16.4234 27.1687 16.4659 27.1433 16.2876C27.1263 16.1942 27.1263 16.2282 27.0668 16.1857C27.0159 16.1518 26.9819 15.9735 26.9819 15.9056C26.9649 15.7019 27.1433 15.9056 27.1093 15.6764C27.0159 15.6085 26.9904 15.6509 26.9649 15.4981C26.9564 15.4557 26.9394 15.4048 26.9394 15.3623C26.9394 15.2774 26.9564 15.3284 26.9394 15.235C27.0328 15.1501 27.0328 15.0822 27.0753 14.9803C27.1008 14.9209 27.1093 14.9464 27.1602 14.819C27.1772 14.7596 27.1772 14.7936 27.2112 14.7511C27.2537 14.7002 27.2452 14.6492 27.2961 14.5898C27.3556 14.5219 27.3216 14.6068 27.3471 14.4964C27.3726 14.3521 27.3471 14.1654 27.3641 13.9956C27.3726 13.8683 27.3641 13.8852 27.3386 13.7834C27.2961 13.7834 27.2706 13.7749 27.2367 13.7749C27.1433 13.7749 27.2027 13.8173 27.1178 13.8003C27.0413 13.7919 27.0074 13.7579 26.9734 13.8767C26.88 13.8598 26.8205 13.7919 26.7781 13.7239L26.6507 13.5287C26.5827 13.4353 26.5573 13.4862 26.5148 13.325C26.4893 13.2146 26.5148 13.1127 26.4384 13.0194C26.3025 12.8581 26.3025 12.7392 26.2346 12.6458C26.1751 12.5694 26.0902 12.544 26.0562 12.493C25.9968 12.4081 26.0053 12.3233 25.9713 12.2638C25.8779 12.2808 25.8949 12.3997 25.6995 12.3742C25.5976 12.2723 25.6571 12.2299 25.5891 12.128C25.5382 12.0431 25.4957 12.0007 25.4872 11.8733C25.4872 11.7885 25.4702 11.6526 25.4872 11.6017L25.4193 11.5508ZM29.7929 12.875L29.6825 12.9854L29.6485 12.9005C29.7165 12.926 29.708 12.7902 29.7929 12.875ZM28.9097 11.6526C29.0286 11.6526 29.0541 11.6102 29.156 11.6611C29.1135 11.9073 29.0031 11.8564 28.9097 11.8054C28.9097 11.7036 28.9182 11.746 28.9097 11.6441V11.6526ZM28.6889 11.6187C28.7314 11.6781 28.7229 11.6272 28.7229 11.729C28.6804 11.7545 28.6974 11.746 28.6719 11.763L28.621 11.7885C28.621 11.7885 28.621 11.7885 28.5955 11.8054L28.553 11.8903C28.4171 11.8903 28.4681 11.8479 28.3407 11.8479C28.2558 11.8479 28.1793 11.8479 28.1029 11.8394C28.035 11.6356 28.0435 11.763 28.001 11.6611C28.1199 11.6272 28.0944 11.6017 28.2133 11.5762C28.3237 11.5592 28.3237 11.4913 28.4086 11.4828C28.4341 11.4828 28.6294 11.5168 28.6464 11.5338C28.6804 11.5592 28.6634 11.5762 28.6974 11.6187H28.6889ZM27.4745 11.3385L27.4235 11.2621C27.4235 11.2621 27.3216 11.0839 27.2961 11.0669C27.2452 11.0414 27.1687 11.0839 27.1348 11.1008C26.9904 11.1772 27.0413 10.9905 27.1178 10.948C27.1942 10.9056 27.3556 10.9056 27.3556 10.9056C27.398 10.8886 27.3726 10.8547 27.5424 10.8122C27.5764 10.8801 27.5594 10.8971 27.5424 10.9735C27.5849 11.0244 27.6358 11.0754 27.6868 11.1263C27.7462 11.1772 27.7123 11.1603 27.7802 11.1857L27.8736 11.2452C27.8736 11.2452 27.9161 11.5677 27.6868 11.5423C27.6528 11.4234 27.6358 11.4744 27.6698 11.3555H27.4745V11.3385ZM27.4999 12.0686C27.4999 12.0686 27.4999 12.0261 27.5169 12.0177C27.5509 11.9922 27.5254 12.0007 27.5679 12.0177C27.5849 12.0771 27.5424 12.1195 27.4999 12.0771V12.0686Z" fill="white"/>
<path d="M43.8311 12.4506L43.865 12.5525C43.865 12.5525 43.865 12.5525 43.8905 12.5864C43.916 12.4506 43.882 12.4591 43.848 12.3657C43.8311 12.3148 43.848 12.2723 43.8395 12.2384C43.8226 12.1535 43.8226 12.2044 43.7631 12.1704C43.8056 12.0516 43.7631 11.9752 43.7291 11.9073L43.5508 11.5508C43.5083 11.6951 43.7546 12.0601 43.7886 12.3232C43.7886 12.3742 43.8141 12.4081 43.8311 12.4421V12.4506Z" fill="white"/>
<path d="M38.6081 5.97346C38.6081 5.97346 38.5826 5.97346 38.5572 5.948C38.4977 5.89706 38.5826 5.93102 38.4552 5.88857C38.3703 5.86311 38.3788 5.76124 38.2939 5.76973C38.2939 5.81217 38.3024 5.83764 38.3363 5.85462C38.4043 5.90555 38.3194 5.82066 38.4213 5.92253C38.4637 5.96497 38.5656 5.99893 38.6506 5.99893C38.6251 5.96497 38.6506 5.98195 38.6166 5.96497L38.6081 5.97346Z" fill="white"/>
<path d="M34.4724 65.0144C27.6953 65.0144 22.1752 63.8684 22.1667 62.7224V63.2148C22.1667 64.7003 27.6698 66.5 34.4554 66.5C41.2409 66.5 46.744 64.7598 46.744 63.2148V62.7224C46.7356 63.8684 41.2579 65.0144 34.4808 65.0144H34.4724Z" fill="white"/>
<path d="M38.9309 57.9855C41.2069 58.4864 44.536 60.8209 44.553 61.5594C44.553 62.4932 40.587 62.9771 34.4724 62.9771C28.3577 62.9771 24.3238 62.4847 24.3493 61.5594C24.3493 61.5509 24.3493 61.5424 24.3493 61.5339C24.3832 60.8803 27.2622 58.5034 29.7335 57.9855C27.0499 58.2911 22.2007 61.1095 22.1667 61.848C22.1667 61.8565 22.1667 61.865 22.1667 61.8735C22.1667 63.0195 27.6868 64.1655 34.4724 64.1655C41.2579 64.1655 46.7356 63.0195 46.7356 61.8735C46.7101 61.0331 41.2664 58.2402 38.9309 57.9855Z" fill="white"/>
<path d="M42.795 28.0279C38.795 24.5814 32.6549 25.2435 32.6549 25.2435V27.8921C38.3109 27.2724 47.1007 33.5033 43.4914 43.6561C43.296 44.1994 42.8459 45.3369 42.226 46.3217C44.8926 40.3963 43.6018 33.6306 38.8375 30.5236C36.9691 29.3097 34.8205 28.7919 32.6379 28.9022V31.1688C34.2345 31.3131 35.7632 31.6612 37.1475 32.5695C46.2429 38.5118 40.8247 47.8072 39.1772 50.4728C39.2026 50.4388 45.2748 39.471 37.1135 33.7495C35.6018 32.6883 33.6995 32.0941 31.933 32.1281V34.3946C33.2834 34.5389 34.5827 35.0058 35.7377 35.8123C40.3746 39.0551 40.7143 46.3301 37.3428 52.5526C37.2324 52.7478 36.553 53.8259 36.3746 54.0806C36.1538 54.3947 35.8821 54.7682 35.5763 55.1842C38.8035 50.0313 39.9755 43.7495 38.1581 39.8446C37.3003 38.0109 35.9075 36.432 34.2345 36.1603V38.5457C35.1942 38.9787 35.984 39.7682 36.536 40.9481C38.4893 45.1332 37.0116 52.4762 33.1814 58.0789C32.8248 58.4609 32.4596 58.8429 32.0774 59.2079C31.7377 59.5051 31.415 59.7852 31.0923 60.0483V61.101C35.9585 57.4083 56.9435 40.2181 42.8205 28.0364L42.795 28.0279Z" fill="white"/>
</g>
<defs>
<clipPath id="clip0_2032_2">
<rect width="70" height="70" fill="white"/>
</clipPath>
</defs>
</svg>
