<svg width="50" height="50" viewBox="0 0 50 50" fill="none" xmlns="http://www.w3.org/2000/svg">
<g clip-path="url(#clip0_4_4)">
<circle cx="25" cy="25" r="25" fill="#033E4A"/>
<path fill-rule="evenodd" clip-rule="evenodd" d="M34.8453 18.8929C35.9167 17.881 35.9762 16.2024 34.9643 15.131C33.9524 14.0595 32.2738 14 31.2024 15.0119C31.2024 15.0119 31.1191 15.0952 31.0833 15.131L24.9881 21.2381L18.8929 15.1429C17.8929 14.0714 16.2024 14.0119 15.131 15.0238C14.0595 16.0238 14 17.7143 15.0119 18.7857C15.0476 18.8333 15.0953 18.8691 15.131 18.9048L21.2381 25L15.1429 31.0952C14.0953 32.1191 14.0714 33.8095 15.0953 34.8571C16.0953 35.881 17.7143 35.9286 18.7738 34.9762L18.8929 34.8571L24.9881 28.7619L31.0833 34.8571C32.0714 35.9405 33.7619 36.0119 34.8453 35.0238C35.9167 34.0476 36 32.3929 35.0476 31.3095C35.0238 31.2857 34.9881 31.25 34.9643 31.2262C34.9405 31.2024 34.881 31.1429 34.8453 31.1071L28.75 25.0119L34.8453 18.9167V18.8929Z" fill="white"/>
</g>
<defs>
<clipPath id="clip0_4_4">
<rect width="50" height="50" fill="white"/>
</clipPath>
</defs>
</svg>
