<svg width="60" height="45" viewBox="0 0 60 45" fill="none" xmlns="http://www.w3.org/2000/svg">
<g clip-path="url(#clip0_2022_49)">
<path d="M12.48 4.19006H4.81997C4.34997 4.19006 3.96997 4.48936 3.96997 4.86588C3.96997 5.24241 4.34997 5.5417 4.81997 5.5417H12.48C12.95 5.5417 13.33 5.24241 13.33 4.86588C13.33 4.48936 12.95 4.19006 12.48 4.19006Z" fill="#D6625E"/>
<path d="M12.48 7.67542H4.81997C4.34997 7.67542 3.96997 7.97471 3.96997 8.35124C3.96997 8.72776 4.34997 9.02706 4.81997 9.02706H12.48C12.95 9.02706 13.33 8.72776 13.33 8.35124C13.33 7.97471 12.95 7.67542 12.48 7.67542Z" fill="#D6625E"/>
<path d="M50.3 43.3201H33.43V40.1534C33.43 36.9095 36.15 34.2738 39.5 34.2738H44.23C47.58 34.2738 50.3 36.9095 50.3 40.1534V43.3201ZM46.35 32.8642C47.89 31.8022 49.03 30.2092 49.45 28.3362C49.55 27.8825 49.25 27.4384 48.78 27.3322C48.31 27.2356 47.85 27.5253 47.75 27.979C47.15 30.6437 44.68 32.5746 41.87 32.5746C38.55 32.5746 35.85 29.9582 35.85 26.7336C35.85 23.5089 38.55 20.8926 41.87 20.8926C44.68 20.8926 47.16 22.8235 47.75 25.4881C47.85 25.9419 48.31 26.2315 48.78 26.135C49.25 26.0384 49.55 25.5847 49.45 25.1309C48.68 21.6939 45.5 19.203 41.87 19.203C37.59 19.203 34.11 22.5821 34.11 26.7239C34.11 29.2438 35.4 31.4836 37.38 32.8449C34.11 33.7428 31.7 36.6681 31.7 40.1245V44.1311C31.7 44.5945 32.09 44.9711 32.57 44.9711H51.17C51.65 44.9711 52.04 44.5945 52.04 44.1311V40.1245C52.04 36.6585 49.63 33.7428 46.35 32.8449" fill="#D6625E"/>
<path d="M58.27 10.8035C58.27 11.4696 57.71 12.02 57.02 12.02H48.15C47.92 12.02 47.7 12.1068 47.54 12.2613L44.44 15.2639V2.88672C44.44 2.22055 45 1.67024 45.69 1.67024H57.02C57.71 1.67024 58.27 2.2109 58.27 2.88672V10.8035ZM57.02 0H45.69C44.04 0 42.71 1.29371 42.71 2.88672V17.2817C42.71 18.0348 43.65 18.392 44.19 17.8706L48.52 13.6902H57.03C58.68 13.6902 60.01 12.3965 60.01 10.8035V2.88672C60 1.29371 58.66 0 57.02 0Z" fill="#D6625E"/>
<path d="M55.18 4.19006H47.52C47.05 4.19006 46.67 4.48936 46.67 4.86588C46.67 5.24241 47.05 5.5417 47.52 5.5417H55.18C55.65 5.5417 56.03 5.24241 56.03 4.86588C56.03 4.48936 55.65 4.19006 55.18 4.19006Z" fill="#D6625E"/>
<path d="M55.18 7.67542H47.52C47.05 7.67542 46.67 7.97471 46.67 8.35124C46.67 8.72776 47.05 9.02706 47.52 9.02706H55.18C55.65 9.02706 56.03 8.72776 56.03 8.35124C56.03 7.97471 55.65 7.67542 55.18 7.67542Z" fill="#D6625E"/>
<path d="M15.82 17.8706C16.36 18.392 17.3 18.0251 17.3 17.2817V2.88672C17.3 1.29371 15.96 0 14.32 0H9.39C8.91 0 8.52 0.376529 8.52 0.839948C8.52 1.30337 8.91 1.6799 9.39 1.6799H14.32C15.01 1.6799 15.57 2.22055 15.57 2.88672V15.2542L12.47 12.2517C12.31 12.0972 12.09 12.0103 11.86 12.0103H2.98C2.29 12.0103 1.73 11.4696 1.73 10.8035V2.88672C1.73 2.22055 2.29 1.6799 2.98 1.6799H6.46C6.94 1.6799 7.33 1.30337 7.33 0.839948C7.33 0.376529 6.94 0 6.46 0H2.98C1.34 0 0 1.29371 0 2.88672V10.8035C0 12.3965 1.34 13.6902 2.98 13.6902H11.49L15.82 17.8706Z" fill="#D6625E"/>
<path d="M12.11 26.7432C12.11 23.5282 14.81 20.9118 18.13 20.9118C21.45 20.9118 24.15 23.5282 24.15 26.7432C24.15 29.9582 21.45 32.5842 18.13 32.5842C14.81 32.5842 12.11 29.9678 12.11 26.7432ZM22.62 32.8739C24.59 31.5126 25.88 29.2727 25.88 26.7432C25.88 22.5917 22.4 19.2223 18.12 19.2223C13.84 19.2223 10.36 22.6014 10.36 26.7432C10.36 29.2727 11.65 31.5029 13.62 32.8739C10.35 33.7717 7.94 36.6971 7.94 40.1534V44.1601C7.94 44.6235 8.33 45 8.81 45H12.49C12.97 45 13.36 44.6235 13.36 44.1601C13.36 43.6967 12.97 43.3201 12.49 43.3201H9.68V40.1534C9.68 36.9095 12.4 34.2738 15.75 34.2738H20.48C23.83 34.2738 26.55 36.9095 26.55 40.1534V43.3201H15.42C14.94 43.3201 14.55 43.6967 14.55 44.1601C14.55 44.6235 14.94 45 15.42 45H27.42C27.9 45 28.29 44.6235 28.29 44.1601V40.1534C28.29 36.6971 25.89 33.7717 22.61 32.8739" fill="#D6625E"/>
</g>
<defs>
<clipPath id="clip0_2022_49">
<rect width="60" height="45" fill="white"/>
</clipPath>
</defs>
</svg>
