<svg width="60" height="60" viewBox="0 0 60 60" fill="none" xmlns="http://www.w3.org/2000/svg">
<g clip-path="url(#clip0_2022_9)">
<path d="M58 11.3956L57 12.3996V15.8333H55V12.3996L54 11.3956V8.93573C54 8.58432 54.19 8.26304 54.48 8.07227L56 7.15862L57.51 8.07227C57.81 8.253 57.99 8.58432 57.99 8.93573V11.3956H58ZM55 3.01203C55 2.45982 55.45 2.00802 56 2.00802C56.55 2.00802 57 2.45982 57 3.01203V3.64456C57 3.99597 56.81 4.32729 56.52 4.50802L56.01 4.81926L55.5 4.50802C55.2 4.32729 55.02 3.99597 55.01 3.64456V3.01203H55ZM58.54 6.34537L57.91 5.96384C58.6 5.39155 59 4.53814 59 3.64456V3.01203C59 1.86745 58.36 0.823278 57.34 0.32127C56.49 -0.100417 55.5 -0.100417 54.66 0.32127C53.64 0.823278 53 1.87749 53 3.01203V3.64456C53 4.53814 53.4 5.39155 54.09 5.96384L53.46 6.34537C52.56 6.88754 52.01 7.87147 52 8.92569V12.2189L53 13.2229V17.8313H59V13.2229L60 12.2189V8.92569C60 7.87147 59.45 6.88754 58.54 6.34537Z" fill="#D6625E"/>
<path d="M42 3.012C42 2.45979 42.45 2.00799 43 2.00799C43.55 2.00799 44 2.45979 44 3.012V3.64453C44 3.99594 43.81 4.32726 43.52 4.50799L43.01 4.81923L42.5 4.50799C42.2 4.32726 42.02 3.99594 42.01 3.64453V3.012H42ZM41 8.9357C41 8.58429 41.19 8.25297 41.48 8.07224L43 7.15859L44.51 8.07224C44.81 8.25297 44.99 8.58429 44.99 8.9357V10.8132H46.99V8.9357C46.99 7.88148 46.44 6.89754 45.53 6.35538L44.9 5.97385C45.59 5.40156 45.99 4.54815 45.99 3.65457V3.02204C45.99 1.87746 45.35 0.833288 44.33 0.33128C43.48 -0.090407 42.49 -0.090407 41.65 0.33128C40.63 0.833288 39.99 1.8875 39.99 3.02204V3.65457C39.99 4.54815 40.39 5.40156 41.08 5.97385L40.45 6.35538C39.55 6.89754 39 7.88148 38.99 8.9357V10.8132H40.99V8.9357H41Z" fill="#D6625E"/>
<path d="M29 3.012C29 2.45979 29.45 2.00799 30 2.00799C30.55 2.00799 31 2.45979 31 3.012V3.64453C31 3.99594 30.81 4.32726 30.52 4.50799L30.01 4.81923L29.5 4.50799C29.2 4.32726 29.02 3.99594 29.01 3.64453V3.012H29ZM28 8.9357C28 8.58429 28.19 8.25297 28.48 8.07224L30 7.15859L31.51 8.07224C31.81 8.25297 31.99 8.58429 31.99 8.9357V10.8132H33.99V8.9357C33.99 7.88148 33.44 6.89754 32.53 6.35538L31.9 5.97385C32.59 5.40156 32.99 4.54815 32.99 3.65457V3.02204C32.99 1.87746 32.35 0.833288 31.33 0.33128C30.48 -0.090407 29.49 -0.090407 28.65 0.33128C27.63 0.833288 26.99 1.8875 26.99 3.02204V3.65457C26.99 4.54815 27.39 5.40156 28.08 5.97385L27.45 6.35538C26.55 6.89754 26 7.88148 25.99 8.9357V10.8132H27.99V8.9357H28Z" fill="#D6625E"/>
<path d="M16 3.012C16 2.45979 16.45 2.00799 17 2.00799C17.55 2.00799 18 2.45979 18 3.012V3.64453C18 3.99594 17.81 4.32726 17.52 4.50799L17.01 4.81923L16.5 4.50799C16.2 4.32726 16.02 3.99594 16.01 3.64453V3.012H16ZM15 8.9357C15 8.58429 15.19 8.25297 15.48 8.07224L17 7.15859L18.51 8.07224C18.81 8.25297 18.99 8.58429 18.99 8.9357V10.8132H20.99V8.9357C20.99 7.88148 20.44 6.89754 19.53 6.35538L18.9 5.97385C19.59 5.40156 19.99 4.54815 19.99 3.65457V3.02204C19.99 1.87746 19.35 0.833288 18.33 0.33128C17.48 -0.090407 16.49 -0.090407 15.65 0.33128C14.63 0.833288 13.99 1.8875 13.99 3.02204V3.65457C13.99 4.54815 14.39 5.40156 15.08 5.97385L14.45 6.35538C13.55 6.89754 13 7.88148 12.99 8.9357V10.8132H14.99V8.9357H15Z" fill="#D6625E"/>
<path d="M6 11.3956L5 12.3996V15.8333H3V12.3996L2 11.3956V8.93575C2 8.58434 2.19 8.26306 2.48 8.0723L4 7.15864L5.51 8.0723C5.81 8.25302 5.99 8.58434 5.99 8.93575V11.3956H6ZM3 3.01206C3 2.45985 3.45 2.00804 4 2.00804C4.55 2.00804 5 2.45985 5 3.01206V3.64459C5 3.99599 4.81 4.32732 4.52 4.50804L4.01 4.81929L3.5 4.50804C3.2 4.32732 3.02 3.99599 3.01 3.64459V3.01206H3ZM6.54 6.34539L5.91 5.96386C6.6 5.39157 7 4.53816 7 3.64459V3.01206C7 1.86748 6.36 0.823301 5.34 0.321293C4.5 -0.110434 3.5 -0.110434 2.66 0.321293C1.64 0.823301 1 1.86748 1 3.01206V3.64459C1 4.53816 1.4 5.39157 2.09 5.96386L1.46 6.34539C0.56 6.8976 0 7.87149 0 8.92571V12.2189L1 13.2229V17.8313H7V13.2229L8 12.2189V8.92571C8 7.87149 7.45 6.88756 6.54 6.34539Z" fill="#D6625E"/>
<path d="M6 31.4759L5 32.4799V35.9136H3V32.4799L2 31.4759V29.0161C2 28.6646 2.19 28.3434 2.48 28.1526L4 27.2389L5.51 28.1526C5.81 28.3333 5.99 28.6646 5.99 29.0161V31.4759H6ZM3 23.0924C3 22.5401 3.45 22.0883 4 22.0883C4.55 22.0883 5 22.5401 5 23.0924V23.7249C5 24.0763 4.81 24.4076 4.52 24.5883L4.01 24.8996L3.5 24.5883C3.2 24.4076 3.02 24.0763 3.01 23.7249V23.0924H3ZM6.54 26.4257L5.91 26.0442C6.6 25.4719 7 24.6185 7 23.7249V23.0924C7 21.9478 6.36 20.9036 5.34 20.4016C4.49 19.9799 3.5 19.9799 2.66 20.4016C1.64 20.9036 1 21.9578 1 23.0924V23.7249C1 24.6185 1.4 25.4719 2.09 26.0442L1.46 26.4257C0.56 26.9679 0.01 27.9518 0 29.006V32.2992L1 33.3032V37.9116H7V33.3032L8 32.2992V29.006C8 27.9518 7.45 26.9679 6.54 26.4257Z" fill="#D6625E"/>
<path d="M58 52.5602L57 53.5643V57.992H55V53.5643L54 52.5602V50.1004C54 49.749 54.19 49.4277 54.48 49.2369L56 48.3233L57.51 49.2369C57.81 49.4177 57.99 49.749 57.99 50.1004V52.5602H58ZM55 44.1767C55 43.6245 55.45 43.1727 56 43.1727C56.55 43.1727 57 43.6245 57 44.1767V44.8092C57 45.1606 56.81 45.492 56.52 45.6727L56.01 45.9839L55.5 45.6727C55.2 45.492 55.02 45.1606 55.01 44.8092V44.1767H55ZM58.54 47.51L57.91 47.1285C58.6 46.5562 59 45.7028 59 44.8092V44.1767C59 43.0321 58.36 41.988 57.34 41.4859C56.49 41.0643 55.5 41.0643 54.66 41.4859C53.64 41.988 53 43.0422 53 44.1767V44.8092C53 45.7028 53.4 46.5562 54.09 47.1285L53.46 47.51C52.56 48.0522 52.01 49.0361 52 50.0904V53.3835L53 54.3875V60H59V54.3875L60 53.3835V50.0904C60 49.0361 59.45 48.0522 58.54 47.51Z" fill="#D6625E"/>
<path d="M45 48.9558V52.5602L44 53.5642V57.992H42V53.5642L41 52.5602V48.9558H39V53.3936L40 54.3976V60H46V54.3976L47 53.3936V48.9558H45Z" fill="#D6625E"/>
<path d="M32 48.9558V52.5602L31 53.5642V57.992H29V53.5642L28 52.5602V48.9558H26V53.3936L27 54.3976V60H33V54.3976L34 53.3936V48.9558H32Z" fill="#D6625E"/>
<path d="M19 48.9558V52.5602L18 53.5642V57.992H16V53.5642L15 52.5602V48.9558H13V53.3936L14 54.3976V60H20V54.3976L21 53.3936V48.9558H19Z" fill="#D6625E"/>
<path d="M6 52.5602L5 53.5643V57.992H3V53.5643L2 52.5602V50.1004C2 49.749 2.19 49.4277 2.48 49.2369L4 48.3233L5.51 49.2369C5.81 49.4177 5.99 49.749 5.99 50.1004V52.5602H6ZM3 44.1767C3 43.6245 3.45 43.1727 4 43.1727C4.55 43.1727 5 43.6245 5 44.1767V44.8092C5 45.1606 4.81 45.492 4.52 45.6727L4.01 45.9839L3.5 45.6727C3.2 45.492 3.02 45.1606 3.01 44.8092V44.1767H3ZM6.54 47.51L5.91 47.1285C6.6 46.5562 7 45.7028 7 44.8092V44.1767C7 43.0321 6.36 41.988 5.34 41.4859C4.49 41.0643 3.5 41.0643 2.66 41.4859C1.64 41.988 1 43.0422 1 44.1767V44.8092C1 45.7028 1.4 46.5562 2.09 47.1285L1.46 47.51C0.56 48.0522 0.01 49.0361 0 50.0904V53.3835L1 54.3875V60H7V54.3875L8 53.3835V50.0904C8 49.0361 7.45 48.0522 6.54 47.51Z" fill="#D6625E"/>
<path d="M21 31.4759L20 32.4799V37.9116H18V32.4799L17 31.4759V27.008C17 26.6566 17.19 26.3353 17.48 26.1446L19 25.2309L20.51 26.1446C20.81 26.3253 20.99 26.6566 20.99 27.008V31.4759H21ZM18 21.0843C18 20.5321 18.45 20.0803 19 20.0803C19.55 20.0803 20 20.5321 20 21.0843V21.7168C20 22.0682 19.81 22.3996 19.52 22.5803L19.01 22.8915L18.5 22.5803C18.2 22.3996 18.02 22.0682 18.01 21.7168V21.0843H18ZM21.54 24.4176L20.91 24.0361C21.6 23.4638 22 22.6104 22 21.7168V21.0843C22 19.4277 20.65 18.0723 19 18.0723C17.35 18.0723 16 19.4176 16 21.0843V21.7168C16 22.6104 16.4 23.4638 17.09 24.0361L16.46 24.4176C15.56 24.9598 15.01 25.9438 15 26.998V32.2992L16 33.3032V39.9197H22V33.3032L23 32.2992V26.998C23 25.9438 22.45 24.9598 21.54 24.4176Z" fill="#D6625E"/>
<path d="M33 31.4759L31 33.4839V39.9196H29V33.4839L27 31.4759V27.1084C27 26.7269 27.21 26.3755 27.55 26.2048L30 24.9799L32.45 26.2048C32.79 26.3755 33 26.7269 33 27.1084V31.4759ZM29 20.0803C29 19.5281 29.45 19.0763 30 19.0763C30.55 19.0763 31 19.5281 31 20.0803V21.6164C31 21.9979 30.79 22.3493 30.45 22.51L30 22.7309L29.55 22.51C29.21 22.3393 29 21.9979 29 21.6164V20.0803ZM33.34 24.4176L32.08 23.7851C32.67 23.2128 33 22.4297 32.99 21.6164V20.0803C32.99 18.9357 32.35 17.8915 31.33 17.3895C30.49 16.9678 29.49 16.9678 28.65 17.3895C27.63 17.8915 26.99 18.9457 26.99 20.0803V21.6164C26.99 22.4397 27.32 23.2228 27.9 23.7851L26.64 24.4176C25.62 24.9297 24.98 25.9738 24.98 27.1084V32.3092L26.98 34.3172V41.9377H32.98V34.3172L34.98 32.3092V27.1084C34.98 25.9638 34.34 24.9196 33.32 24.4176" fill="#D6625E"/>
<path d="M43 31.4759L42 32.4799V37.9116H40V32.4799L39 31.4759V27.008C39 26.6566 39.19 26.3353 39.48 26.1446L41 25.2309L42.51 26.1446C42.81 26.3253 42.99 26.6566 42.99 27.008V31.4759H43ZM40 21.0843C40 20.5321 40.45 20.0803 41 20.0803C41.55 20.0803 42 20.5321 42 21.0843V21.7168C42 22.0682 41.81 22.3996 41.52 22.5803L41.01 22.8915L40.5 22.5803C40.2 22.3996 40.02 22.0682 40.01 21.7168V21.0843H40ZM43.54 24.4176L42.91 24.0361C43.6 23.4638 44 22.6104 44 21.7168V21.0843C44 19.4277 42.65 18.0723 41 18.0723C39.35 18.0723 38 19.4176 38 21.0843V21.7168C38 22.6104 38.4 23.4638 39.09 24.0361L38.46 24.4176C37.56 24.9598 37.01 25.9438 37 26.998V32.2992L38 33.3032V39.9197H44V33.3032L45 32.2992V26.998C45 25.9438 44.45 24.9598 43.54 24.4176Z" fill="#D6625E"/>
<path d="M58 31.4759L57 32.4799V35.9136H55V32.4799L54 31.4759V29.0161C54 28.6646 54.19 28.3434 54.48 28.1526L56 27.2389L57.51 28.1526C57.81 28.3333 57.99 28.6646 57.99 29.0161V31.4759H58ZM55 23.0924C55 22.5401 55.45 22.0883 56 22.0883C56.55 22.0883 57 22.5401 57 23.0924V23.7249C57 24.0763 56.81 24.4076 56.52 24.5883L56.01 24.8996L55.5 24.5883C55.2 24.4076 55.02 24.0763 55.01 23.7249V23.0924H55ZM58.54 26.4257L57.91 26.0442C58.6 25.4719 59 24.6185 59 23.7249V23.0924C59 21.9478 58.36 20.9036 57.34 20.4016C56.49 19.9799 55.5 19.9799 54.66 20.4016C53.64 20.9036 53 21.9578 53 23.0924V23.7249C53 24.6185 53.4 25.4719 54.09 26.0442L53.46 26.4257C52.56 26.9679 52.01 27.9518 52 29.006V32.2992L53 33.3032V37.9116H59V33.3032L60 32.2992V29.006C60 27.9518 59.45 26.9679 58.54 26.4257Z" fill="#D6625E"/>
<path d="M48 44.4377C48 44.7088 47.77 44.9397 47.5 44.9397H12.5C12.23 44.9397 12 44.7088 12 44.4377V15.3213C12 15.0502 12.23 14.8193 12.5 14.8193H47.5C47.77 14.8193 48 15.0502 48 15.3213V44.4377ZM47.5 12.8112H12.5C11.12 12.8112 10 13.9357 10 15.3213V44.4377C10 45.8233 11.12 46.9478 12.5 46.9478H47.5C48.88 46.9478 50 45.8233 50 44.4377V15.3213C50 13.9357 48.88 12.8112 47.5 12.8112Z" fill="#D6625E"/>
</g>
<defs>
<clipPath id="clip0_2022_9">
<rect width="60" height="60" fill="white"/>
</clipPath>
</defs>
</svg>
