<svg width="60" height="60" viewBox="0 0 60 60" fill="none" xmlns="http://www.w3.org/2000/svg">
<g clip-path="url(#clip0_2022_59)">
<path d="M58.03 22.87L55.87 25.68L51.65 22.4L53.8 19.59C53.9 19.5 54.08 19.5 54.18 19.59L57.93 22.59C58.12 22.5 58.12 22.59 58.12 22.69C58.12 22.79 58.12 22.78 58.03 22.88V22.87ZM53.72 28.41L49.5 25.13L50.53 23.82L54.75 27.1L53.72 28.41ZM39.47 46.4L35.25 43.12L48.28 26.62C48.38 26.71 52.78 30.18 52.5 29.9L39.47 46.4ZM34.5 44.91L37.97 47.63L33 50.44L34.5 44.91ZM43.97 55.31C43.97 56.9 42.75 58.12 41.16 58.12H4.69C3.1 58.12 1.88 56.9 1.88 55.31V4.69C1.88 3.1 3.1 1.88 4.69 1.88H32.81V10.22C32.81 11.81 34.03 13.03 35.62 13.03H43.96V29.06L38.24 36.28H19.4C18.84 36.28 18.46 36.65 18.46 37.22C18.46 37.79 18.83 38.16 19.4 38.16H36.84L33.28 42.66C33.18 42.75 33.18 42.85 33.09 42.94L30.75 51.28H19.41C18.85 51.28 18.47 51.65 18.47 52.22C18.47 52.79 18.84 53.16 19.41 53.16H39.28C39.84 53.16 40.22 52.79 40.22 52.22C40.22 51.65 39.85 51.28 39.28 51.28H35.06L40.03 48.47C40.12 48.38 40.22 48.38 40.22 48.28L43.78 43.78L43.97 55.31ZM34.69 3.19L42.66 11.16H35.63C35.07 11.16 34.69 10.79 34.69 10.22V3.19ZM59.16 21L55.41 18C54.47 17.25 53.16 17.44 52.41 18.37L45.85 26.71V12.09C45.85 11.81 45.75 11.62 45.57 11.43L34.41 0.28C34.22 0.09 33.94 0 33.75 0H4.69C2.06 0 0 2.06 0 4.69V55.31C0 57.93 2.06 60 4.69 60H41.16C43.78 60 45.85 57.94 45.85 55.31V41.44L59.54 24C59.91 23.53 60.01 22.97 60.01 22.41C60.01 21.85 59.64 21.38 59.17 21M6.56 9.47H21.84C22.4 9.47 22.78 9.1 22.78 8.53C22.78 7.96 22.41 7.59 21.84 7.59H6.56C6 7.59 5.62 7.96 5.62 8.53C5.62 9.1 5.99 9.47 6.56 9.47ZM19.41 48.28H29.72C30.28 48.28 30.66 47.91 30.66 47.34C30.66 46.77 30.29 46.4 29.72 46.4H19.41C18.85 46.4 18.47 46.78 18.47 47.34C18.47 47.9 18.84 48.28 19.41 48.28ZM29.72 31.41H19.41C18.85 31.41 18.47 31.78 18.47 32.35C18.47 32.92 18.84 33.29 19.41 33.29H29.72C30.28 33.29 30.66 32.92 30.66 32.35C30.66 31.78 30.19 31.41 29.72 31.41ZM18.47 22.22C18.47 22.78 18.84 23.16 19.41 23.16H39.28C39.84 23.16 40.22 22.79 40.22 22.22C40.22 21.65 39.85 21.28 39.28 21.28H19.41C18.85 21.28 18.47 21.66 18.47 22.22ZM18.47 17.25C18.47 17.81 18.84 18.19 19.41 18.19H29.72C30.28 18.19 30.66 17.82 30.66 17.25C30.66 16.68 30.29 16.31 29.72 16.31H19.41C18.85 16.31 18.47 16.78 18.47 17.25ZM12.84 22.41H7.5V17.07H12.84V22.41ZM13.78 15.19H6.56C6 15.19 5.62 15.57 5.62 16.13V23.35C5.62 23.91 5.99 24.29 6.56 24.29H13.78C14.34 24.29 14.72 23.92 14.72 23.35V16.13C14.72 15.66 14.25 15.19 13.78 15.19ZM12.84 37.5H7.5V32.16H12.84V37.5ZM13.78 30.28H6.56C6 30.28 5.62 30.66 5.62 31.22V38.44C5.62 39 5.99 39.38 6.56 39.38H13.78C14.34 39.38 14.72 39 14.72 38.44V31.22C14.72 30.66 14.25 30.28 13.78 30.28ZM12.84 52.5H7.5V47.16H12.84V52.5ZM13.78 45.28H6.56C6 45.28 5.62 45.65 5.62 46.22V53.44C5.62 54 5.99 54.38 6.56 54.38H13.78C14.34 54.38 14.72 54.01 14.72 53.44V46.22C14.72 45.75 14.25 45.28 13.78 45.28Z" fill="#D6625E"/>
</g>
<defs>
<clipPath id="clip0_2022_59">
<rect width="60" height="60" fill="white"/>
</clipPath>
</defs>
</svg>
