<svg width="60" height="60" viewBox="0 0 60 60" fill="none" xmlns="http://www.w3.org/2000/svg">
<g clip-path="url(#clip0_2022_28)">
<path d="M51.22 25.1574H58.02C57.09 12.3938 46.69 2.38878 33.9 1.949V8.72561C42.93 9.19538 50.28 16.1619 51.23 25.1574M59.03 27.0964H50.32C49.81 27.0964 49.38 26.6966 49.35 26.1769C48.87 17.4612 41.66 10.6347 32.92 10.6447C32.39 10.6447 31.95 10.2149 31.95 9.67514V0.969494C31.95 0.429764 32.39 -2.16018e-05 32.92 -2.16018e-05C47.52 -0.0499966 59.52 11.5042 60 26.0969C60.02 26.6367 59.6 27.0764 59.07 27.0964H59.03Z" fill="#D6625E"/>
<path d="M26.14 7.76609C12.25 8.29582 1.42 19.98 1.96 33.873C2.49 47.7561 14.19 58.5807 28.08 58.0509C41.6 57.5312 52.28 46.4268 52.28 32.9035H45.5C45.5 43.0584 37.26 51.2943 27.1 51.2943C16.94 51.2943 8.7 43.0584 8.7 32.9035C8.7 22.7486 16.36 15.0624 26.13 14.5427V7.76609H26.14ZM27.11 60C12.14 60 0 47.866 0 32.9035C0 17.941 12.14 5.80707 27.11 5.80707C27.65 5.80707 28.08 6.23685 28.08 6.77658V15.4822C28.08 16.012 27.65 16.4517 27.11 16.4517C18.02 16.4517 10.65 23.8181 10.65 32.9035C10.65 41.989 18.02 49.3553 27.11 49.3553C36.2 49.3553 43.57 41.989 43.57 32.9035C43.57 32.6037 43.57 32.2938 43.54 31.994C43.51 31.4642 43.91 31.0045 44.45 30.9745C44.47 30.9745 44.49 30.9745 44.51 30.9745H53.22C53.73 30.9745 54.16 31.3743 54.19 31.884C54.21 32.2239 54.22 32.5637 54.22 32.9135C54.2 47.876 42.08 60 27.11 60.01" fill="#D6625E"/>
<path d="M22.24 37.7411C21.7 37.7411 21.27 37.3114 21.27 36.7716C21.27 36.5118 21.37 36.2719 21.55 36.092L35.11 22.5387C35.49 22.1689 36.11 22.1789 36.48 22.5587C36.84 22.9285 36.84 23.5282 36.48 23.8981L22.92 37.4513C22.74 37.6312 22.49 37.7311 22.24 37.7311" fill="#D6625E"/>
<path d="M32.89 32.9036C32.35 32.9036 31.92 33.3334 31.92 33.8731C31.92 34.4128 32.35 34.8426 32.89 34.8426C33.43 34.8426 33.86 34.4128 33.86 33.8731C33.86 33.3334 33.43 32.9036 32.89 32.9036ZM32.89 36.7716C31.28 36.7716 29.98 35.4723 29.98 33.8631C29.98 32.2539 31.28 30.9645 32.89 30.9645C34.5 30.9645 35.8 32.2639 35.8 33.8631C35.8 35.4623 34.5 36.7716 32.89 36.7716Z" fill="#D6625E"/>
<path d="M25.14 25.1574C24.6 25.1574 24.17 25.5872 24.17 26.1269C24.17 26.6667 24.6 27.0965 25.14 27.0965C25.68 27.0965 26.11 26.6667 26.11 26.1269C26.11 25.5872 25.68 25.1574 25.14 25.1574ZM25.14 29.0355C23.53 29.0355 22.23 27.7361 22.23 26.1269C22.23 24.5177 23.53 23.2284 25.14 23.2284C26.75 23.2284 28.05 24.5277 28.05 26.1269C28.05 27.7261 26.75 29.0355 25.14 29.0355Z" fill="#D6625E"/>
</g>
<defs>
<clipPath id="clip0_2022_28">
<rect width="60" height="60" fill="white"/>
</clipPath>
</defs>
</svg>
