<svg width="60" height="60" viewBox="0 0 60 60" fill="none" xmlns="http://www.w3.org/2000/svg">
<g clip-path="url(#clip0_2007_11)">
<path d="M55 0H5C2.23858 0 0 2.23858 0 5V55C0 57.7614 2.23858 60 5 60H55C57.7614 60 60 57.7614 60 55V5C60 2.23858 57.7614 0 55 0Z" fill="#73A7B2"/>
<path d="M25.86 15H17C15.8954 15 15 15.8954 15 17V25.86C15 26.9646 15.8954 27.86 17 27.86H25.86C26.9646 27.86 27.86 26.9646 27.86 25.86V17C27.86 15.8954 26.9646 15 25.86 15Z" fill="#5A7F82"/>
<path d="M43 15H34.14C33.0354 15 32.14 15.8954 32.14 17V25.86C32.14 26.9646 33.0354 27.86 34.14 27.86H43C44.1046 27.86 45 26.9646 45 25.86V17C45 15.8954 44.1046 15 43 15Z" fill="white"/>
<path d="M25.86 32.14H17C15.8954 32.14 15 33.0354 15 34.14V43C15 44.1046 15.8954 45 17 45H25.86C26.9646 45 27.86 44.1046 27.86 43V34.14C27.86 33.0354 26.9646 32.14 25.86 32.14Z" fill="white"/>
<path d="M43 32.14H34.14C33.0354 32.14 32.14 33.0354 32.14 34.14V43C32.14 44.1046 33.0354 45 34.14 45H43C44.1046 45 45 44.1046 45 43V34.14C45 33.0354 44.1046 32.14 43 32.14Z" fill="white"/>
</g>
<defs>
<clipPath id="clip0_2007_11">
<rect width="60" height="60" fill="white"/>
</clipPath>
</defs>
</svg>
