<svg width="70" height="70" viewBox="0 0 70 70" fill="none" xmlns="http://www.w3.org/2000/svg">
<g clip-path="url(#clip0_2027_139)">
<path d="M64.1667 0H5.83333C2.61167 0 0 2.61167 0 5.83333V64.1667C0 67.3883 2.61167 70 5.83333 70H64.1667C67.3883 70 70 67.3883 70 64.1667V5.83333C70 2.61167 67.3883 0 64.1667 0Z" fill="#00617A"/>
<g clip-path="url(#clip1_2027_139)">
<path d="M59 16.7737V41.9165C59 44.0005 57.2926 45.6902 55.1867 45.6902H15.8133C13.7074 45.6846 12 43.9949 12 41.9165V16.7737C12 14.6897 13.7074 13 15.8133 13H55.1924C57.2983 13 59.0057 14.6897 59.0057 16.7737H59ZM43.2062 28.3651L32.1933 21.6907C31.6469 21.3584 30.9355 21.5274 30.5997 22.0681C30.4858 22.2483 30.4289 22.4567 30.4289 22.6651V36.0138C30.4289 36.6447 30.9468 37.1572 31.5843 37.1572C31.7949 37.1572 32.0054 37.1009 32.1876 36.9882L43.2005 30.3139C43.7469 29.9816 43.9177 29.2775 43.5819 28.7368C43.4851 28.5847 43.3542 28.4552 43.2005 28.3594L43.2062 28.3651Z" fill="white"/>
<path d="M19.0973 51.3451H14.5384C13.4855 51.3451 12.6318 52.1899 12.6318 53.2319C12.6318 54.2739 13.4855 55.1188 14.5384 55.1188H19.0973C20.1047 55.1019 20.9071 54.2795 20.8958 53.2826C20.8958 53.2714 20.8958 53.2601 20.8958 53.2545V53.215C20.9299 52.2181 20.1388 51.3845 19.1314 51.3507C19.12 51.3507 19.1086 51.3507 19.103 51.3507L19.0973 51.3451Z" fill="white"/>
<path d="M56.4616 51.3451H37.9302C36.9229 51.362 36.1204 52.1843 36.1317 53.1813C36.1317 53.1925 36.1317 53.2038 36.1317 53.2094V53.2488C36.0976 54.2458 36.8887 55.0794 37.8961 55.1132C37.9075 55.1132 37.9189 55.1132 37.9245 55.1132H56.4559C57.5088 55.1132 58.3625 54.2683 58.3625 53.2263C58.3625 52.1843 57.5088 51.3395 56.4559 51.3395L56.4616 51.3451Z" fill="white"/>
<path d="M32.3242 53.2263C32.3242 55.3103 30.6167 57 28.5109 57C26.4051 57 24.6976 55.3103 24.6976 53.2263C24.6976 51.1423 26.4051 49.4526 28.5109 49.4526C30.6167 49.4526 32.3242 51.1423 32.3242 53.2263Z" fill="#73A7B2"/>
</g>
</g>
<defs>
<clipPath id="clip0_2027_139">
<rect width="70" height="70" fill="white"/>
</clipPath>
<clipPath id="clip1_2027_139">
<rect width="47" height="44" fill="white" transform="translate(12 13)"/>
</clipPath>
</defs>
</svg>
