<svg width="60" height="60" viewBox="0 0 60 60" fill="none" xmlns="http://www.w3.org/2000/svg">
<g clip-path="url(#clip0_2022_46)">
<path d="M33.25 1.7868C32.94 1.7868 32.65 1.91878 32.44 2.13198C32.23 2.34518 32.1 2.63959 32.1 2.95432V8.55838C32.1 8.8731 32.23 9.16751 32.44 9.38071C32.65 9.59391 32.94 9.72589 33.25 9.72589C33.56 9.72589 33.85 9.59391 34.07 9.38071C34.28 9.16751 34.41 8.8731 34.41 8.55838V2.95432C34.41 2.63959 34.28 2.34518 34.07 2.13198C33.86 1.91878 33.57 1.7868 33.25 1.7868ZM21.03 1.7868C20.71 1.7868 20.43 1.91878 20.21 2.13198C20 2.34518 19.87 2.63959 19.87 2.95432V8.55838C19.87 8.8731 20 9.16751 20.21 9.38071C20.42 9.59391 20.71 9.72589 21.03 9.72589C21.35 9.72589 21.63 9.59391 21.84 9.38071C22.05 9.16751 22.18 8.8731 22.18 8.55838V2.95432C22.18 2.63959 22.05 2.34518 21.84 2.13198C21.63 1.91878 21.35 1.7868 21.03 1.7868ZM9.62 2.13198C9.41 1.91878 9.12 1.7868 8.8 1.7868C8.48 1.7868 8.2 1.91878 7.99 2.13198C7.78 2.34518 7.65 2.63959 7.65 2.95432V8.55838C7.65 8.8731 7.78 9.16751 7.99 9.38071C8.2 9.59391 8.49 9.72589 8.8 9.72589C9.11 9.72589 9.4 9.59391 9.62 9.38071C9.83 9.16751 9.96 8.8731 9.96 8.55838V2.95432C9.96 2.63959 9.83 2.34518 9.62 2.13198ZM45.48 1.80711C45.16 1.80711 44.88 1.93909 44.66 2.15228C44.44 2.36548 44.32 2.64975 44.32 2.97462V8.57868C44.32 8.8934 44.45 9.18782 44.66 9.40102C44.87 9.61421 45.16 9.74619 45.48 9.74619C45.8 9.74619 46.08 9.61421 46.29 9.40102C46.5 9.18782 46.63 8.8934 46.63 8.57868V2.97462C46.63 2.64975 46.5 2.36548 46.29 2.15228C46.08 1.93909 45.8 1.80711 45.48 1.80711ZM15.87 22.1929H7.24V30.9442H15.86V22.1929H15.87ZM6.37 20.4061H16.75C17.24 20.4061 17.63 20.802 17.63 21.2995V31.8376C17.63 32.335 17.24 32.731 16.75 32.731H6.37C5.89 32.731 5.49 32.335 5.49 31.8376V21.2995C5.49 20.8122 5.88 20.4061 6.37 20.4061ZM15.87 37.269H7.24V46.0203H15.86V37.269H15.87ZM6.37 35.4822H16.75C17.24 35.4822 17.63 35.8883 17.63 36.3756V46.9137C17.63 47.401 17.24 47.8071 16.75 47.8071H6.37C5.89 47.8071 5.49 47.401 5.49 46.9137V36.3756C5.49 35.8883 5.88 35.4822 6.37 35.4822ZM31.45 22.1929H22.83V30.9442H31.45V22.1929ZM21.95 20.4061H32.33C32.82 20.4061 33.21 20.802 33.21 21.2995V31.8376C33.21 32.335 32.82 32.731 32.33 32.731H21.95C21.46 32.731 21.07 32.335 21.07 31.8376V21.2995C21.07 20.8122 21.46 20.4061 21.95 20.4061ZM31.45 37.269H22.83V46.0203H31.45V37.269ZM21.95 35.4822H32.33C32.82 35.4822 33.21 35.8883 33.21 36.3756V46.9137C33.21 47.401 32.82 47.8071 32.33 47.8071H21.95C21.46 47.8071 21.07 47.401 21.07 46.9137V36.3756C21.07 35.8883 21.46 35.4822 21.95 35.4822ZM47.04 22.1929H38.42V30.9442H47.04V22.1929ZM37.54 20.4061H47.92C48.41 20.4061 48.8 20.802 48.8 21.2995V31.8376C48.8 32.335 48.41 32.731 47.92 32.731H37.54C37.05 32.731 36.66 32.335 36.66 31.8376V21.2995C36.66 20.8122 37.05 20.4061 37.54 20.4061ZM41.38 38.7005C40.98 38.9949 40.44 38.9036 40.15 38.4975C39.86 38.1015 39.95 37.5431 40.35 37.2487C41.39 36.4873 42.55 35.8782 43.79 35.4721C45 35.0761 46.28 34.8629 47.61 34.8629C49.35 34.8629 51.01 35.2284 52.51 35.8883V23.2386C52.51 22.7411 52.91 22.3452 53.39 22.3452C53.87 22.3452 54.27 22.7411 54.27 23.2386V36.8426C55.03 37.33 55.73 37.9086 56.36 38.5482C58.6 40.8223 59.99 43.9594 59.99 47.4315C59.99 50.9036 58.6 54.0406 56.36 56.3147C54.12 58.5888 51.03 60 47.6 60C44.17 60 41.09 58.599 38.85 56.3147C38 55.4518 37.27 54.467 36.7 53.3807H4.57C3.31 53.3807 2.17 52.863 1.34 52.0203C0.51 51.1777 0 50.0203 0 48.7411V47.0051C0 46.5076 0.4 46.1117 0.88 46.1117C1.36 46.1117 1.76 46.5076 1.76 47.0051V48.7411C1.76 49.5228 2.08 50.2335 2.59 50.7513C3.1 51.269 3.8 51.5939 4.58 51.5939H35.94C35.49 50.2944 35.24 48.8934 35.24 47.4315C35.24 46.1523 35.43 44.9036 35.79 43.736C36.16 42.5279 36.7 41.3909 37.38 40.3756C37.65 39.9695 38.2 39.8579 38.6 40.1421C39 40.4162 39.1 40.9746 38.83 41.3807C38.24 42.264 37.78 43.2284 37.46 44.264C37.16 45.2589 37 46.3249 37 47.4416C37 50.4162 38.19 53.1168 40.11 55.066C42.03 57.0152 44.69 58.2234 47.62 58.2234C50.55 58.2234 53.21 57.0152 55.13 55.066C57.05 53.1168 58.24 50.4162 58.24 47.4416C58.24 44.467 57.05 41.7665 55.13 39.8173C53.21 37.868 50.55 36.6599 47.62 36.6599C46.48 36.6599 45.37 36.8426 44.34 37.1777C43.27 37.533 42.27 38.0508 41.38 38.7107M46.74 39.5736C46.74 39.0863 47.13 38.6802 47.62 38.6802C48.11 38.6802 48.5 39.0761 48.5 39.5736V47.4315C48.5 47.6751 48.41 47.8883 48.25 48.0508L42.88 54.467C42.57 54.8426 42.02 54.8934 41.64 54.5685C41.27 54.2538 41.23 53.6954 41.54 53.3096L46.74 47.1066V39.5736ZM11.72 4.8934H18.12V2.95432C18.12 2.14213 18.45 1.40102 18.97 0.862944C19.5 0.324873 20.22 0 21.03 0C21.84 0 22.56 0.335025 23.08 0.862944C23.61 1.40102 23.94 2.14213 23.94 2.95432V4.8934H30.34V2.95432C30.34 2.14213 30.67 1.40102 31.19 0.862944C31.72 0.324873 32.45 0 33.25 0C34.05 0 34.78 0.335025 35.31 0.862944C35.84 1.40102 36.16 2.14213 36.16 2.95432V4.8934H42.56V2.98477C42.56 2.17259 42.89 1.43147 43.41 0.893401C43.94 0.365482 44.66 0.0304569 45.47 0.0304569C46.28 0.0304569 47 0.365482 47.52 0.893401C48.04 1.42132 48.38 2.17259 48.38 2.98477V4.8934H49.34C50.7 4.8934 51.93 5.45178 52.83 6.35533C53.72 7.25888 54.28 8.51777 54.28 9.88833V19.1878C54.28 19.6853 53.88 20.0812 53.4 20.0812C52.92 20.0812 52.52 19.6853 52.52 19.1878V16.6091H29.13C28.64 16.6091 28.25 16.2132 28.25 15.7157C28.25 15.2183 28.64 14.8223 29.13 14.8223H52.52V9.87817C52.52 8.99492 52.17 8.19289 51.59 7.60406C51.01 7.01523 50.22 6.6599 49.35 6.6599H48.39V8.56853C48.39 9.38071 48.06 10.1218 47.53 10.6599C47 11.198 46.28 11.5228 45.48 11.5228C44.68 11.5228 43.95 11.1878 43.42 10.6599C42.89 10.1218 42.57 9.38071 42.57 8.56853V6.6599H36.17V8.54822C36.17 9.36041 35.84 10.1015 35.32 10.6396C34.79 11.1777 34.06 11.5025 33.26 11.5025C32.46 11.5025 31.73 11.1675 31.2 10.6396C30.67 10.1015 30.35 9.36041 30.35 8.54822V6.6599H23.95V8.54822C23.95 9.36041 23.62 10.1015 23.09 10.6396C22.56 11.1777 21.84 11.5025 21.04 11.5025C20.24 11.5025 19.51 11.1675 18.98 10.6396C18.45 10.1015 18.13 9.36041 18.13 8.54822V6.6599H11.73V8.54822C11.73 9.36041 11.4 10.1015 10.88 10.6396C10.35 11.1777 9.62 11.5025 8.82 11.5025C8.02 11.5025 7.29 11.1675 6.76 10.6396C6.23 10.1015 5.91 9.36041 5.91 8.54822V6.6599H4.94C4.07 6.6599 3.28 7.01523 2.7 7.60406C2.12 8.18274 1.77 8.98477 1.77 9.87817V14.8223H25.16C25.65 14.8223 26.04 15.2183 26.04 15.7157C26.04 16.2132 25.64 16.6091 25.16 16.6091H1.76V42.9543C1.76 43.4518 1.37 43.8477 0.88 43.8477C0.39 43.8477 0 43.4518 0 42.9543V9.88833C0 8.50761 0.55 7.25888 1.45 6.35533C2.34 5.45178 3.58 4.8934 4.93 4.8934H5.9V2.95432C5.9 2.14213 6.23 1.40102 6.75 0.862944C7.28 0.324873 8.01 0 8.81 0C9.61 0 10.34 0.335025 10.87 0.862944C11.39 1.40102 11.72 2.14213 11.72 2.95432V4.8934Z" fill="#D6625E"/>
</g>
<defs>
<clipPath id="clip0_2022_46">
<rect width="60" height="60" fill="white"/>
</clipPath>
</defs>
</svg>
