<svg width="70" height="70" viewBox="0 0 70 70" fill="none" xmlns="http://www.w3.org/2000/svg">
<g clip-path="url(#clip0_2028_154)">
<path d="M64.1667 0H5.83333C2.61167 0 0 2.61167 0 5.83333V64.1667C0 67.3883 2.61167 70 5.83333 70H64.1667C67.3883 70 70 67.3883 70 64.1667V5.83333C70 2.61167 67.3883 0 64.1667 0Z" fill="#00617A"/>
<path d="M61 24.0055V48.1145C61 49.6735 59.7179 50.9421 58.1423 50.9421H54.5537C53.8767 50.9421 53.3315 51.4875 53.3315 52.1514V58.7788C53.3315 59.2709 53.0379 59.7095 52.5766 59.9052C52.4209 59.9704 52.2591 60 52.0974 60C51.7798 60 51.4743 59.8814 51.2346 59.6502L43.4883 52.1336C42.6915 51.363 41.643 50.9362 40.5287 50.9362H25L25.6111 50.3434L26.2222 49.7506L29.9306 46.1523H48.8382C52.7144 46.1523 55.8657 43.0342 55.8657 39.1988V21H57.9626C59.64 21 61 22.3456 61 24.0055Z" fill="#73A7B2"/>
<path d="M49.0108 12H13.0128C11.3537 12 10 13.352 10 15.0092V39.1068C10 40.6682 11.2698 41.9365 12.8331 41.9365H16.385C17.0499 41.9365 17.5889 42.4749 17.5889 43.145V49.7736C17.5889 50.2701 17.8824 50.7128 18.3376 50.9043C18.4934 50.9701 18.6551 51 18.8108 51H18.8887C18.9007 51 18.9127 51 18.9246 50.994C18.9426 50.994 18.9546 50.994 18.9726 50.988C18.9785 50.988 18.9905 50.988 18.9965 50.9821C19.0145 50.9821 19.0265 50.9761 19.0444 50.9761C19.0624 50.9701 19.0804 50.9701 19.0983 50.9641C19.1163 50.9581 19.1283 50.9581 19.1463 50.9521C19.1702 50.9462 19.1882 50.9402 19.2061 50.9342C19.2301 50.9282 19.2481 50.9162 19.266 50.9103C19.284 50.9043 19.308 50.8923 19.3259 50.8804C19.3439 50.8684 19.3679 50.8624 19.3858 50.8504C19.4038 50.8385 19.4218 50.8325 19.4397 50.8205L19.4457 50.8145C19.4637 50.8026 19.4757 50.7966 19.4937 50.7846C19.4937 50.7846 19.4996 50.7786 19.5056 50.7786C19.5236 50.7667 19.5416 50.7547 19.5595 50.7428C19.5775 50.7308 19.5955 50.7128 19.6134 50.7009C19.6314 50.6829 19.6494 50.671 19.6614 50.653L19.9608 50.3599L20.9731 49.3728L27.3401 43.139C27.3881 43.0911 27.436 43.0492 27.4839 43.0014C27.5079 42.9775 27.5318 42.9595 27.5558 42.9356C27.5737 42.9176 27.5977 42.8997 27.6157 42.8877C27.8493 42.6963 28.1008 42.5288 28.3704 42.3971C28.3943 42.3852 28.4183 42.3732 28.4422 42.3613C28.4782 42.3433 28.5141 42.3254 28.5501 42.3134C28.574 42.3014 28.604 42.2895 28.6279 42.2775C28.6579 42.2655 28.6938 42.2536 28.7238 42.2356C28.7477 42.2237 28.7777 42.2177 28.8016 42.2057C28.8436 42.1878 28.8855 42.1758 28.9334 42.1578C28.9514 42.1519 28.9753 42.1459 28.9933 42.1399C29.0113 42.1339 29.0232 42.1279 29.0412 42.1279C29.0652 42.122 29.0951 42.11 29.1191 42.104C29.143 42.098 29.167 42.092 29.191 42.0861C29.2089 42.0801 29.2269 42.0741 29.2449 42.0741C29.2688 42.0681 29.2988 42.0621 29.3227 42.0561C29.3527 42.0502 29.3826 42.0442 29.4186 42.0382H29.4305C29.4605 42.0322 29.4845 42.0262 29.5144 42.0202C29.5204 42.0202 29.5264 42.0202 29.5324 42.0143C29.5623 42.0083 29.5983 42.0023 29.6342 41.9963C29.7061 41.9844 29.772 41.9784 29.8438 41.9724C29.8678 41.9724 29.8858 41.9664 29.9097 41.9664C29.9277 41.9664 29.9457 41.9664 29.9576 41.9604C30.0595 41.9544 30.1613 41.9485 30.2631 41.9485H49.3163C49.3582 41.9485 49.4002 41.9425 49.4421 41.9365C49.5918 41.9245 49.7356 41.8946 49.8733 41.8587C49.8973 41.8527 49.9213 41.8468 49.9392 41.8408C49.9871 41.8288 50.0351 41.8109 50.089 41.7929C50.089 41.7929 50.095 41.7929 50.095 41.7869C50.1249 41.775 50.1489 41.769 50.1788 41.757C50.2207 41.7391 50.2687 41.7211 50.3106 41.7032C50.3286 41.6972 50.3465 41.6852 50.3705 41.6792C50.4124 41.6613 50.4603 41.6374 50.5023 41.6134C50.5322 41.6015 50.5562 41.5835 50.5801 41.5716C50.5861 41.5656 50.5921 41.5656 50.5981 41.5596C50.6221 41.5476 50.64 41.5357 50.664 41.5237C50.7658 41.4639 50.8557 41.3981 50.9455 41.3203C50.9695 41.3023 50.9994 41.2784 51.0234 41.2545L51.0353 41.2425C51.0533 41.2246 51.0773 41.2066 51.0952 41.1887C51.1791 41.1109 51.263 41.0272 51.3348 40.9374C51.3528 40.9135 51.3708 40.8896 51.3887 40.8716C51.4067 40.8477 51.4247 40.8237 51.4426 40.7998C51.4546 40.7879 51.4666 40.7699 51.4726 40.7579C51.4966 40.722 51.5265 40.6861 51.5505 40.6443V40.6383C51.5624 40.6203 51.5744 40.6024 51.5864 40.5844C51.5984 40.5665 51.6104 40.5426 51.6223 40.5186C51.6283 40.5067 51.6403 40.4947 51.6463 40.4827C51.6822 40.4229 51.7122 40.3631 51.7421 40.2973C51.7541 40.2734 51.7661 40.2434 51.7781 40.2195L51.7841 40.1956C51.796 40.1717 51.802 40.1537 51.808 40.1298C51.814 40.1178 51.82 40.1058 51.82 40.0939C51.832 40.064 51.844 40.0281 51.8559 39.9982C51.8619 39.9742 51.8739 39.9503 51.8799 39.9264C51.8859 39.9144 51.8859 39.9024 51.8919 39.8905C51.8919 39.8845 51.8979 39.8785 51.8979 39.8725C51.9038 39.8486 51.9158 39.8187 51.9218 39.7888C51.9278 39.7529 51.9398 39.717 51.9458 39.6811C51.9518 39.6512 51.9578 39.6213 51.9637 39.5913C51.9637 39.5794 51.9697 39.5674 51.9697 39.5555V39.5495C51.9757 39.5196 51.9757 39.4896 51.9817 39.4597C51.9877 39.4298 51.9877 39.3999 51.9937 39.364V39.3221C51.9937 39.2922 51.9997 39.2683 51.9997 39.2384V15.0092C52.0236 13.352 50.67 12 49.0108 12ZM20.428 29.5108C19.0265 29.5108 17.8884 28.3741 17.8884 26.9742C17.8884 25.5743 19.0265 24.4376 20.428 24.4376C21.8296 24.4376 22.9677 25.5743 22.9677 26.9742C22.9677 28.3741 21.8296 29.5108 20.428 29.5108ZM31.0118 29.5108C29.6102 29.5108 28.4722 28.3741 28.4722 26.9742C28.4722 25.5743 29.6102 24.4376 31.0118 24.4376C32.4134 24.4376 33.5514 25.5743 33.5514 26.9742C33.5514 28.3741 32.4074 29.5108 31.0118 29.5108ZM41.5896 29.5108C40.188 29.5108 39.05 28.3741 39.05 26.9742C39.05 25.5743 40.188 24.4376 41.5896 24.4376C42.9912 24.4376 44.1292 25.5743 44.1292 26.9742C44.1292 28.3741 42.9912 29.5108 41.5896 29.5108Z" fill="white"/>
</g>
<defs>
<clipPath id="clip0_2028_154">
<rect width="70" height="70" fill="white"/>
</clipPath>
</defs>
</svg>
