<svg width="65" height="65" viewBox="0 0 65 65" fill="none" xmlns="http://www.w3.org/2000/svg">
<g clip-path="url(#clip0_2013_45)">
<path d="M32.5 65C50.4493 65 65 50.4493 65 32.5C65 14.5507 50.4493 0 32.5 0C14.5507 0 0 14.5507 0 32.5C0 50.4493 14.5507 65 32.5 65Z" fill="#D6625E"/>
<path d="M53.94 48.61L49.2 43.85C48.79 43.44 48.11 43.44 47.7 43.85L47.67 43.88L46.88 43.08C46.55 42.75 46.34 42.31 46.29 41.84L44.97 25.76C44.85 24.4 43.73 23.37 42.36 23.37H42.24C41.52 23.37 40.82 23.56 40.2 23.92V15.12C40.2 12.83 38.33 10.96 36.04 10.96H22.07C19.78 10.96 17.91 12.83 17.91 15.12V15.86C17.44 15.65 16.93 15.57 16.41 15.63C15.59 15.73 14.87 16.18 14.42 16.87L13.67 18.03C12.98 19.09 13.16 20.47 14.09 21.32L16.49 23.56C16.36 23.61 16.23 23.67 16.11 23.74C15.3 24.23 14.8 25.13 14.81 26.08V27.34C14.81 27.96 15.01 28.56 15.39 29.04C15.01 29.52 14.81 30.12 14.81 30.74V31.99C14.81 32.61 15.01 33.21 15.39 33.69C15.01 34.17 14.81 34.77 14.81 35.39V36.64C14.8 37.65 15.34 38.57 16.23 39.05L17.91 39.94V44.59C17.91 46.88 19.78 48.75 22.07 48.75H24.73L26.8 50.83C28.43 52.47 30.7 53.41 33.01 53.41H34.11C35.05 53.41 35.97 53.79 36.64 54.46L36.86 54.67L36.45 55.08C36.25 55.28 36.14 55.55 36.14 55.83C36.14 56.11 36.25 56.38 36.45 56.58L37.61 57.74C37.8 57.95 38.07 58.06 38.35 58.07H38.38C38.65 58.07 38.91 57.97 39.11 57.78C39.32 57.59 39.43 57.32 39.44 57.04C39.44 56.76 39.35 56.49 39.11 56.24L38.7 55.83L48.45 46.08L52.35 49.98C52.75 50.4 53.42 50.43 53.85 50.02C54.25 49.65 54.29 49.04 53.94 48.58V48.61ZM20.33 14.06C20.69 13.46 21.35 13.08 22.07 13.08H36.04C36.76 13.08 37.41 13.47 37.78 14.06H20.34H20.33ZM38.08 42H20.02V40.96C20.18 41 20.34 41.02 20.51 41.02C20.97 41.02 21.42 40.89 21.81 40.66C22.63 40.16 23.13 39.26 23.11 38.31V37.06C23.11 36.44 22.91 35.85 22.53 35.36C22.91 34.87 23.12 34.28 23.11 33.65V32.4C23.11 31.78 22.91 31.19 22.53 30.71C22.91 30.23 23.11 29.63 23.11 29.01V27.75C23.12 26.74 22.58 25.82 21.69 25.34L20.01 24.45V16.2H38.07V42.01L38.08 42ZM21.01 29C21.01 29.21 20.91 29.41 20.73 29.52C20.61 29.6 20.45 29.6 20.32 29.52L17.22 27.87C17.03 27.76 16.91 27.55 16.92 27.33V26.07C16.92 25.86 17.02 25.66 17.2 25.55C17.27 25.51 17.34 25.49 17.42 25.49C17.49 25.49 17.56 25.51 17.62 25.54L20.71 27.19C20.9 27.3 21.02 27.51 21.01 27.73V29ZM17.16 30.25L19.33 31.4C19.67 31.58 20.04 31.68 20.43 31.7L20.71 31.85C20.9 31.96 21.02 32.17 21.02 32.39V33.65C21.02 33.86 20.92 34.06 20.74 34.18C20.62 34.26 20.47 34.26 20.34 34.18L17.24 32.53C17.05 32.42 16.93 32.21 16.94 31.99V30.73C16.94 30.54 17.03 30.36 17.18 30.25H17.16ZM17.16 34.91L19.33 36.06C19.66 36.24 20.04 36.34 20.42 36.36L20.71 36.51C20.9 36.62 21.02 36.83 21.02 37.05V38.31C21.02 38.52 20.92 38.72 20.74 38.83C20.62 38.91 20.47 38.91 20.34 38.83L17.24 37.19C17.05 37.08 16.93 36.87 16.93 36.65V35.38C16.93 35.19 17.02 35.01 17.17 34.9L17.16 34.91ZM20.02 44.12H38.08V44.61C38.08 45.74 37.16 46.65 36.04 46.65H22.07C20.94 46.65 20.03 45.73 20.03 44.61V44.12H20.02ZM46.17 45.39L38.36 53.2L38.15 52.98C37.09 51.92 35.62 51.31 34.12 51.31H33.02C31.26 51.31 29.54 50.59 28.3 49.34L27.73 48.77H36.03C38.32 48.77 40.19 46.9 40.19 44.61V27.54C40.19 26.41 41.11 25.5 42.23 25.5H42.36C42.61 25.5 42.83 25.7 42.85 25.95L44.17 42.05C44.26 43.01 44.69 43.91 45.37 44.6L46.17 45.39ZM16.76 17.73C16.93 17.73 17.1 17.79 17.22 17.91L17.89 18.54V21.99L15.51 19.76C15.34 19.61 15.31 19.36 15.43 19.18L16.17 18.02C16.28 17.86 16.45 17.76 16.65 17.74C16.68 17.74 16.72 17.74 16.75 17.74L16.76 17.73Z" fill="white"/>
<path d="M28.27 46.44H29.83C30.11 46.44 30.38 46.33 30.58 46.13C30.78 45.93 30.89 45.66 30.89 45.38C30.89 44.8 30.42 44.32 29.83 44.32H28.28C28 44.32 27.73 44.43 27.53 44.63C27.33 44.83 27.22 45.1 27.22 45.38C27.22 45.66 27.33 45.93 27.53 46.13C27.73 46.33 28 46.44 28.28 46.44H28.27Z" fill="white"/>
</g>
<defs>
<clipPath id="clip0_2013_45">
<rect width="65" height="65" fill="white"/>
</clipPath>
</defs>
</svg>
