<svg width="60" height="60" viewBox="0 0 60 60" fill="none" xmlns="http://www.w3.org/2000/svg">
<g clip-path="url(#clip0_2022_37)">
<path d="M53.03 48.9852C54.34 47.9131 55.19 46.2745 55.19 44.4438C55.19 41.2273 52.6 38.6076 49.42 38.6076C46.24 38.6076 43.65 41.2273 43.65 44.4438C43.65 46.2745 44.5 47.9131 45.81 48.9852C43.76 49.7438 42 51.1194 40.77 52.8996V52.2219C40.77 47.6096 37.86 43.675 33.81 42.1781C34.69 41.4599 35.36 40.4889 35.71 39.3662C36.1 39.4977 36.51 39.5786 36.93 39.5786C39.05 39.5786 40.77 37.8389 40.77 35.6946V33.4188L43.74 36.4228C44.35 37.0398 45.07 37.4343 45.82 37.5759C46.06 37.6164 46.3 37.6366 46.54 37.6366C47.56 37.6366 48.52 37.2421 49.25 36.4937C49.97 35.7553 50.38 34.7843 50.38 33.7425C50.38 32.7007 49.98 31.7297 49.31 31.052L42.04 22.2826C40.98 21.0082 39.74 19.8955 38.35 18.9953L28.76 12.7546C27.4 11.8645 25.82 11.2981 24.21 11.1262L19.79 10.6305L20.98 9.4269L12.89 1.25427L0 14.3021L8.09 22.4849L8.79 21.7769L9.85 23.9212C10.71 25.6609 11.84 27.2489 13.2 28.6245C13.86 29.292 14.57 29.909 15.33 30.4653L23.95 36.8072C24.11 36.9286 24.28 37.0297 24.46 37.1208C24.45 37.2927 24.43 37.4647 24.43 37.6366C24.43 39.4775 25.28 41.116 26.59 42.1781C22.53 43.675 19.62 47.6096 19.62 52.2219V52.8996C18.39 51.1194 16.63 49.7438 14.58 48.9852C15.89 47.9131 16.74 46.2745 16.74 44.4438C16.74 41.2273 14.15 38.6076 10.97 38.6076C7.79 38.6076 5.2 41.2273 5.2 44.4438C5.2 46.2745 6.05 47.9131 7.36 48.9852C3.3 50.4822 0.4 54.4067 0.4 59.0291V60.0001H21.55V59.0291C21.55 56.8746 20.91 54.8719 19.83 53.1929H40.58C39.49 54.8719 38.86 56.8746 38.86 59.0291V60.0001H60.01V59.0291C60.01 54.4168 57.1 50.4822 53.04 48.9852H53.03ZM40.77 23.7796L47.9 32.3669C48.26 32.731 48.46 33.2266 48.46 33.7425C48.46 34.2583 48.26 34.7539 47.9 35.1181C47.45 35.5732 46.82 35.7654 46.17 35.6541C45.71 35.5732 45.33 35.2799 45.1 35.0473L40.77 30.6676V23.7796ZM7.13 44.4438C7.13 42.2994 8.85 40.5496 10.98 40.5496C13.11 40.5496 14.82 42.2994 14.82 44.4438C14.82 46.5881 13.1 48.3278 10.98 48.3278C8.86 48.3278 7.13 46.5881 7.13 44.4438ZM13.65 50.7148L10.97 53.6885L8.29 50.7148C9.14 50.4316 10.03 50.2799 10.97 50.2799C11.91 50.2799 12.8 50.4417 13.65 50.7148ZM2.38 58.0581C2.68 55.317 4.24 52.9502 6.47 51.5645L10.98 56.5813L15.49 51.5645C17.71 52.94 19.28 55.3069 19.58 58.0581H2.38ZM8.09 19.7337L2.72 14.3021L12.89 4.00545L18.26 9.43701L8.09 19.7236V19.7337ZM25.08 35.2394L16.45 28.8976C15.78 28.4019 15.14 27.8456 14.55 27.259C13.33 26.025 12.33 24.6191 11.56 23.0614L10.21 20.3406L18.04 12.4107L23.99 13.0783C25.31 13.23 26.6 13.6852 27.71 14.4134L37.3 20.6541C37.84 20.998 38.34 21.3925 38.83 21.8072V35.7047C38.83 36.7769 37.97 37.6467 36.91 37.6467C36.56 37.6467 36.23 37.5557 35.93 37.3736C35.88 36.2914 35.54 35.2799 34.98 34.4303V29.646C34.98 27.6332 33.99 25.7721 32.34 24.6595C31.81 24.2954 31.22 24.0324 30.61 23.8605L20.81 21.1599C20.52 21.079 20.21 21.1396 19.97 21.3217C19.73 21.5038 19.59 21.787 19.59 22.0904V23.0614C19.59 23.3345 19.71 23.5975 19.91 23.7796L28.42 31.5274C28.92 31.9825 29.2 32.6299 29.2 33.3075C29.2 34.6224 28.14 35.6946 26.84 35.6946H26.44C25.94 35.6946 25.46 35.5328 25.05 35.2394H25.08ZM33.08 29.6258V32.5894C32.42 32.2051 31.68 31.9421 30.89 31.851C30.65 31.1835 30.27 30.5665 29.74 30.081L22.7 23.6784L30.13 25.7317C30.55 25.8429 30.94 26.025 31.3 26.2678C32.42 27.0264 33.08 28.2806 33.08 29.646V29.6258ZM26.35 37.6366C26.35 37.6366 26.43 37.6366 26.47 37.6366H26.87C29.04 37.6366 30.82 35.9879 31.1 33.874C32.78 34.2887 34.04 35.816 34.04 37.6366C34.04 39.7809 32.31 41.5307 30.19 41.5307C28.07 41.5307 26.35 39.791 26.35 37.6366ZM32.88 43.9077L30.2 46.8814L27.52 43.9077C28.37 43.6245 29.26 43.4727 30.2 43.4727C31.14 43.4727 32.03 43.6245 32.88 43.9077ZM21.6 51.2509C21.9 48.4997 23.46 46.143 25.69 44.7573L30.2 49.7742L34.71 44.7573C36.93 46.1329 38.5 48.4997 38.8 51.2509H21.6ZM45.58 44.4438C45.58 42.2994 47.3 40.5496 49.43 40.5496C51.56 40.5496 53.27 42.2994 53.27 44.4438C53.27 46.5881 51.55 48.3278 49.43 48.3278C47.31 48.3278 45.58 46.5881 45.58 44.4438ZM52.1 50.7148L49.42 53.6885L46.74 50.7148C47.59 50.4316 48.48 50.2799 49.42 50.2799C50.36 50.2799 51.25 50.4417 52.1 50.7148ZM40.83 58.0581C41.13 55.317 42.7 52.9502 44.92 51.5645L49.43 56.5813L53.94 51.5645C56.16 52.94 57.73 55.3069 58.03 58.0581H40.83Z" fill="#D6625E"/>
<path d="M59.72 1.37559L58.36 0L51.35 7.09036L50.1 5.83614L48.75 7.21173L51.35 9.84154L59.72 1.37559Z" fill="#D6625E"/>
<path d="M51.35 18.1861C52.94 18.1861 54.23 16.8813 54.23 15.2731C54.23 13.6649 52.94 12.3601 51.35 12.3601C49.76 12.3601 48.47 13.6649 48.47 15.2731C48.47 16.8813 49.76 18.1861 51.35 18.1861ZM51.35 14.3021C51.88 14.3021 52.31 14.737 52.31 15.2731C52.31 15.8092 51.88 16.2441 51.35 16.2441C50.82 16.2441 50.39 15.8092 50.39 15.2731C50.39 14.737 50.82 14.3021 51.35 14.3021Z" fill="#D6625E"/>
<path d="M46.53 6.52393H35V8.46594H46.53V6.52393Z" fill="#D6625E"/>
<path d="M42.69 14.3021H35V16.2441H42.69V14.3021Z" fill="#D6625E"/>
<path d="M46.54 14.3021H44.62V16.2441H46.54V14.3021Z" fill="#D6625E"/>
<path d="M46.53 10.408H35V12.35H46.53V10.408Z" fill="#D6625E"/>
</g>
<defs>
<clipPath id="clip0_2022_37">
<rect width="60" height="60" fill="white"/>
</clipPath>
</defs>
</svg>
