<svg width="134" height="40" viewBox="0 0 134 40" fill="none" xmlns="http://www.w3.org/2000/svg">
<g clip-path="url(#clip0_2047_8)">
<path fill-rule="evenodd" clip-rule="evenodd" d="M90.6743 11.0282C97.8777 -0.0686995 112.536 -3.33868 123.415 3.73712C134.293 10.8083 137.272 25.537 130.069 36.6384C129.277 37.8567 128.403 38.9741 127.446 40H125.309C128.023 36.9544 129.895 33.0982 130.504 28.7566C132.151 17.0323 123.964 6.18731 112.216 4.534C103.402 3.29288 95.0906 7.57957 90.7932 14.7515H88.6835C89.2281 13.4784 89.8871 12.2281 90.6697 11.0236" fill="#F9B722"/>
<path fill-rule="evenodd" clip-rule="evenodd" d="M5.9403 22.1205V32.5349C7.13019 33.6936 8.03634 34.4585 8.65417 34.8249C9.27657 35.1912 9.92644 35.3607 10.6083 35.3286C13.6609 35.3882 15.1665 32.7319 15.1253 27.3552C15.1116 24.7218 14.718 22.6884 13.9355 21.2503C13.1574 19.8168 12.0637 19.0932 10.6587 19.0749C9.90813 19.0657 9.16216 19.2993 8.41161 19.7802C7.66107 20.2611 6.8373 21.0396 5.93572 22.1251M5.9403 5.10193V17.7513C7.92193 15.5759 10.1049 14.4905 12.4893 14.4997C15.0658 14.5546 17.1299 15.7133 18.6813 17.9712C20.2327 20.229 21.029 23.2563 21.0656 27.0438C21.029 30.8542 20.1915 33.8677 18.5486 36.0843C16.9056 38.3055 14.6814 39.4413 11.8806 39.4871C10.6678 39.5008 9.55574 39.2718 8.54433 38.7955C7.53292 38.3192 6.44829 37.5178 5.28586 36.3911L4.82821 38.9787H0V5.10193H5.9403Z" fill="#179EDA"/>
<path fill-rule="evenodd" clip-rule="evenodd" d="M36.3603 32.6357V28.3169C33.3353 28.7383 31.1386 29.3153 29.761 30.0573C28.3881 30.7946 27.7108 31.7564 27.7336 32.938C27.7474 33.6845 27.9853 34.2844 28.443 34.7332C28.9052 35.1821 29.4956 35.4111 30.2187 35.4248C31.8845 35.4569 33.9348 34.5272 36.3603 32.6311M28.6444 21.7632L23.0107 20.9526C23.9168 16.7117 27.1799 14.5775 32.8044 14.55C39.1154 14.5775 42.2823 17.2155 42.3006 22.4731V33.3456C42.3006 34.4081 42.3006 35.205 42.3098 35.7316C42.3235 36.2583 42.351 36.7392 42.4059 37.1697C42.4562 37.6002 42.5386 38.2047 42.653 38.9787H36.9187C36.7768 38.6444 36.6807 38.3467 36.6212 38.0902C36.5617 37.8338 36.4748 37.3346 36.3603 36.5926C35.0149 37.6231 33.77 38.365 32.6259 38.8184C31.4772 39.2718 30.269 39.4962 29.0013 39.4871C26.8138 39.4596 25.0747 38.8276 23.7795 37.5956C22.4844 36.3591 21.8254 34.6874 21.7933 32.5807C21.7338 30.1763 22.8185 28.3032 25.061 26.9567C27.3034 25.6103 31.0699 24.5707 36.3603 23.8425V22.4182C36.3787 21.0167 36.1269 20.0367 35.6052 19.4733C35.0835 18.91 34.1865 18.6398 32.9097 18.6627C30.3972 18.6536 28.9739 19.6886 28.6444 21.7587V21.7632Z" fill="#179EDA"/>
<path fill-rule="evenodd" clip-rule="evenodd" d="M80.4183 29.0314V21.8686C79.8692 21.0213 79.1918 20.3435 78.3955 19.8443C77.5992 19.3451 76.7846 19.0886 75.9517 19.0749C74.4826 19.1069 73.3202 19.858 72.4552 21.3236C71.5903 22.7891 71.1463 24.7813 71.128 27.3048C71.1418 29.8191 71.5674 31.7884 72.4095 33.2082C73.2515 34.6325 74.414 35.3561 75.8968 35.379C76.6976 35.4019 77.4207 35.205 78.0614 34.7836C78.7022 34.3623 79.4893 33.5791 80.4138 32.4342V29.0314H80.4183ZM86.3541 4.24091V38.9833H81.2238L80.8165 35.8873C79.7731 37.1697 78.7525 38.0994 77.7502 38.6627C76.7526 39.2306 75.6405 39.5054 74.4185 39.4962C71.5445 39.455 69.2974 38.365 67.6682 36.2262C66.039 34.0829 65.2106 31.1289 65.1786 27.3552C65.2198 23.4623 66.0527 20.3618 67.6865 18.0536C69.3203 15.7408 71.5125 14.5592 74.2675 14.5042C75.4254 14.5042 76.5009 14.7516 77.4894 15.2553C78.4825 15.7591 79.4527 16.5423 80.4092 17.6048V4.24091H86.3495H86.3541Z" fill="#179EDA"/>
<path fill-rule="evenodd" clip-rule="evenodd" d="M93.3744 24.763H102.463C102.321 22.6425 101.896 21.09 101.173 20.1145C100.454 19.139 99.3787 18.6535 97.9417 18.6673C96.61 18.681 95.5528 19.2123 94.7656 20.2656C93.9739 21.319 93.5117 22.8166 93.3744 24.763ZM102.816 31.4678L107.996 32.2784C107.616 34.4264 106.532 36.1529 104.742 37.4673C102.948 38.7818 100.733 39.455 98.0973 39.4916C94.7382 39.455 92.125 38.3604 90.2486 36.2079C88.3723 34.0554 87.4203 31.0694 87.3883 27.2452C87.4249 23.2929 88.3814 20.1878 90.2578 17.9391C92.1341 15.6858 94.7153 14.5363 98.0012 14.4951C101.173 14.5271 103.635 15.6171 105.383 17.765C107.136 19.9084 108.024 22.9173 108.047 26.7872C108.056 27.0895 108.037 27.6025 107.996 28.3123H93.3744C93.3881 30.5381 93.832 32.2693 94.7061 33.5012C95.5848 34.7332 96.8113 35.3561 98.3994 35.3744C99.5298 35.3835 100.45 35.0721 101.159 34.4493C101.868 33.8218 102.418 32.828 102.816 31.4678Z" fill="#179EDA"/>
<path fill-rule="evenodd" clip-rule="evenodd" d="M49.9296 15.2141V18.768C51.8746 15.9927 54.3276 14.5867 57.2886 14.55C58.5106 14.5684 59.6318 14.889 60.6478 15.5118C61.6592 16.1347 62.3869 16.9453 62.8262 17.9574C63.0779 18.5757 63.261 19.3314 63.3708 20.2244C63.4852 21.1175 63.5401 22.2395 63.5356 23.5952V38.9833H57.5953V23.5952C57.5998 22.6334 57.577 21.9373 57.5266 21.5068C57.4763 21.0717 57.3619 20.7236 57.1925 20.4488C56.982 20.0367 56.6434 19.7161 56.1857 19.4825C55.7235 19.2489 55.1972 19.1299 54.6068 19.1253C53.0233 19.1528 51.4673 19.9634 49.9342 21.5617V38.9833H43.9939V15.2095H49.9342L49.9296 15.2141Z" fill="#179EDA"/>
<path fill-rule="evenodd" clip-rule="evenodd" d="M126.206 20.4946L120.98 21.3602C120.792 20.3801 120.472 19.684 120.023 19.2718C119.575 18.8596 118.911 18.6581 118.037 18.6673C117.053 18.6856 116.252 18.9649 115.639 19.5099C115.026 20.0549 114.706 20.7556 114.687 21.6121C114.669 22.6883 115.213 23.4303 116.312 23.847C116.564 23.9569 116.82 24.0439 117.072 24.0989L118.239 24.3554L119.355 24.6073L120.522 24.8592C122.582 25.3034 124.147 26.1232 125.213 27.3185C126.279 28.5138 126.815 30.0343 126.819 31.8708C126.787 34.2294 125.95 36.0843 124.307 37.4307C122.664 38.7772 120.408 39.4641 117.529 39.487C115.085 39.5008 113.172 38.9649 111.799 37.8887C110.426 36.8079 109.493 35.1088 109.003 32.7822L114.28 31.9166C114.49 33.1944 114.884 34.0966 115.456 34.6141C116.028 35.1362 116.888 35.3881 118.037 35.3698C118.998 35.3469 119.79 35.0584 120.417 34.5042C121.044 33.9501 121.369 33.2539 121.387 32.4204C121.396 31.738 121.149 31.1976 120.641 30.79C120.129 30.3824 119.296 30.0801 118.142 29.8832C114.998 29.3245 112.724 28.4406 111.323 27.2223C109.923 26.0087 109.237 24.3233 109.259 22.1616C109.31 19.8855 110.161 18.049 111.818 16.6476C113.474 15.2461 115.63 14.5317 118.293 14.4905C120.513 14.5042 122.302 15.0263 123.662 16.0614C125.021 17.0964 125.868 18.5711 126.211 20.4854" fill="#179EDA"/>
</g>
<defs>
<clipPath id="clip0_2047_8">
<rect width="134" height="40" fill="white"/>
</clipPath>
</defs>
</svg>
