<svg width="260" height="72" viewBox="0 0 260 72" fill="none" xmlns="http://www.w3.org/2000/svg">
<g clip-path="url(#clip0_2004_2)">
<path d="M46.3424 39.4443V39.8891H35.8024V46.0464H45.5613V46.4912H35.8024V54.1705H46.7082V54.6152H35.3278V39.4542H46.3325L46.3424 39.4443Z" fill="white"/>
<path d="M50.3765 39.4443C50.3765 39.4443 57.4954 53.4589 57.5448 53.538C57.5943 53.4589 64.733 39.4443 64.733 39.4443H65.2274V54.6054H64.7627V40.3931L57.5547 54.6054C57.5547 54.6054 50.4061 40.5019 50.3468 40.3931V54.6054H49.8821V39.4443H50.3962H50.3765Z" fill="white"/>
<path d="M75.2335 39.4443C76.4991 39.4443 77.5966 39.6914 78.5359 40.1856C79.4752 40.6798 80.1871 41.3419 80.6913 42.182C81.1956 43.0221 81.4428 43.961 81.4428 44.9889C81.4428 46.0168 81.1956 46.926 80.6913 47.7661C80.1871 48.5963 79.4752 49.2684 78.5359 49.7526C77.5966 50.2468 76.4892 50.4939 75.2137 50.4939H69.7558V54.6152H69.2911V39.4542H75.2335V39.4443ZM78.3184 49.3672C79.1489 48.9126 79.8015 48.2998 80.2662 47.5289C80.7309 46.758 80.9583 45.908 80.9583 44.9889C80.9583 44.0697 80.7309 43.1901 80.2662 42.4192C79.8015 41.6384 79.1588 41.0257 78.3184 40.571C77.4878 40.1164 76.5287 39.8891 75.451 39.8891H69.7657V50.0491H75.4312C76.5189 50.0491 77.4878 49.8218 78.3184 49.3672Z" fill="white"/>
<path d="M90.4996 39.4443C91.7949 39.4443 92.9121 39.6914 93.8514 40.1856C94.7907 40.6798 95.5026 41.3419 95.997 42.182C96.4914 43.0221 96.7386 43.961 96.7386 44.9889C96.7386 46.2243 96.3727 47.3115 95.6509 48.2504C94.9292 49.1992 93.9206 49.8515 92.6452 50.227L96.6694 54.6054H96.0366L92.1706 50.3456C91.6663 50.4346 91.1126 50.484 90.5095 50.484H85.0516V54.6054H84.5869V39.4443H90.5095H90.4996ZM93.5548 49.3672C94.3854 48.9126 95.0478 48.3097 95.5224 47.5388C95.997 46.7778 96.2343 45.9278 96.2343 44.9889C96.2343 44.05 95.997 43.1901 95.5323 42.4192C95.0676 41.6384 94.415 41.0257 93.5746 40.571C92.744 40.1164 91.7949 39.8891 90.727 39.8891H85.0417V50.0491H90.7072C91.7652 50.0491 92.7144 49.8218 93.5548 49.3672Z" fill="white"/>
<path d="M110.917 39.4443V39.8891H100.377V46.0464H110.136V46.4912H100.377V54.1705H111.283V54.6152H99.9026V39.4542H110.907L110.917 39.4443Z" fill="white"/>
<path d="M116.138 54.1211C115.159 53.6368 114.338 52.9845 113.705 52.1543L114.081 51.8776C114.674 52.6583 115.426 53.2711 116.345 53.7159C117.265 54.1606 118.273 54.378 119.401 54.378C120.31 54.378 121.161 54.2496 121.961 53.9926C122.762 53.7356 123.425 53.3304 123.939 52.7671C124.453 52.2037 124.71 51.502 124.71 50.6619C124.71 49.9404 124.473 49.3672 123.998 48.9224C123.524 48.4777 122.95 48.1318 122.278 47.8847C121.606 47.6376 120.666 47.351 119.47 47.015C118.412 46.7382 117.522 46.4417 116.82 46.1354C116.118 45.829 115.545 45.4336 115.09 44.9296C114.635 44.4354 114.407 43.8029 114.407 43.032C114.407 42.2216 114.645 41.5297 115.109 40.9565C115.574 40.3833 116.197 39.9583 116.958 39.6618C117.72 39.3653 118.531 39.217 119.391 39.217C120.251 39.217 121.052 39.3455 121.853 39.5926C122.654 39.8397 123.385 40.3042 124.077 40.9763L123.751 41.3321C122.673 40.2449 121.22 39.6914 119.401 39.6914C118.62 39.6914 117.888 39.8199 117.196 40.0769C116.513 40.3338 115.96 40.7193 115.535 41.2233C115.109 41.7274 114.902 42.3303 114.902 43.0419C114.902 43.7535 115.109 44.2674 115.535 44.7122C115.96 45.1569 116.484 45.5028 117.117 45.7499C117.749 45.997 118.58 46.2638 119.608 46.5406C120.854 46.8865 121.843 47.1929 122.574 47.4795C123.296 47.7562 123.919 48.1614 124.433 48.6754C124.947 49.1893 125.205 49.8515 125.205 50.6619C125.205 51.6107 124.928 52.4014 124.364 53.0339C123.801 53.6664 123.079 54.131 122.199 54.4176C121.319 54.7042 120.379 54.8524 119.401 54.8524C118.214 54.8524 117.126 54.6152 116.148 54.131L116.138 54.1211Z" fill="white"/>
<path d="M134.568 39.306L142.181 54.6152H141.687L139.957 51.1264H129.021L127.291 54.6152H126.777L134.39 39.306H134.578H134.568ZM135.151 41.4803L134.469 40.0769L133.787 41.4803L129.219 50.6817H139.709L135.141 41.4803H135.151Z" fill="white"/>
<path d="M150.507 39.4443C151.802 39.4443 152.919 39.6914 153.858 40.1856C154.798 40.6798 155.51 41.3419 156.004 42.182C156.498 43.0221 156.746 43.961 156.746 44.9889C156.746 46.2243 156.38 47.3115 155.658 48.2504C154.936 49.1992 153.928 49.8515 152.652 50.227L156.676 54.6054H156.044L152.178 50.3456C151.673 50.4346 151.12 50.484 150.516 50.484H145.059V54.6054H144.594V39.4443H150.516H150.507ZM153.562 49.3672C154.392 48.9126 155.055 48.3097 155.529 47.5388C156.004 46.7778 156.241 45.9278 156.241 44.9889C156.241 44.05 156.004 43.1901 155.539 42.4192C155.075 41.6384 154.422 41.0257 153.582 40.571C152.751 40.1164 151.802 39.8891 150.734 39.8891H145.049V50.0491H150.714C151.772 50.0491 152.721 49.8218 153.562 49.3672Z" fill="white"/>
<path d="M160.384 39.4443V54.6054H159.919V39.4443H160.384Z" fill="white"/>
<path d="M170.598 39.306L178.211 54.6152H177.717L175.986 51.1264H165.051L163.321 54.6152H162.807L170.42 39.306H170.608H170.598ZM171.181 41.4803L170.499 40.0769L169.817 41.4803L165.249 50.6817H175.739L171.171 41.4803H171.181Z" fill="white"/>
<path d="M181.078 39.4443V54.1606H191.47V54.6054H180.604V39.4443H181.069H181.078Z" fill="white"/>
<path d="M37.9875 10.9705V31.1028H52.2452V33.544H35.2091V10.9705H37.9974H37.9875Z" fill="white"/>
<path d="M60.4319 7.25436L58.6917 9.98216H56.2495L57.8711 7.25436H60.4319ZM59.0378 10.9705V33.544H56.2495V10.9705H59.0378Z" fill="white"/>
<path d="M72.9099 10.9705C75.2533 10.9705 77.3197 11.4745 79.1094 12.4826C80.899 13.4907 82.2832 14.8546 83.2522 16.5743C84.231 18.294 84.7155 20.1817 84.7155 22.2572C84.7155 24.3327 84.231 26.2205 83.2522 27.9402C82.2733 29.6599 80.899 31.0238 79.1094 32.0318C77.3197 33.0399 75.2533 33.544 72.9099 33.544H64.3375V10.9705H72.9099ZM77.4779 29.9465C78.8523 29.1756 79.9201 28.1279 80.6815 26.7937C81.4527 25.4594 81.8284 23.9473 81.8284 22.2474C81.8284 20.5474 81.4428 19.0353 80.6815 17.701C79.9102 16.3668 78.8424 15.3192 77.4779 14.5483C76.1036 13.7774 74.5315 13.4018 72.7418 13.4018H67.1357V31.0929H72.7418C74.5315 31.0929 76.1135 30.7075 77.4779 29.9465Z" fill="white"/>
<path d="M106.151 10.9705V13.4117H91.8641V20.2707H105.242V22.6723H91.8641V31.1028H106.675V33.544H89.0758V10.9705H106.151Z" fill="white"/>
<path d="M119.747 10.9705C121.764 10.9705 123.514 11.3461 124.977 12.1071C126.44 12.8582 127.548 13.8762 128.309 15.1511C129.061 16.4261 129.446 17.869 129.446 19.4701C129.446 21.0712 128.991 22.613 128.072 23.9671C127.152 25.3112 125.887 26.3094 124.255 26.9617L129.624 33.544H126.312L121.714 27.7227C121.062 27.8413 120.33 27.9006 119.519 27.9006H113.28V33.544H110.492V10.9705H119.766H119.747ZM123.336 24.6885C124.334 24.1548 125.116 23.4235 125.669 22.4944C126.223 21.5654 126.51 20.5573 126.51 19.4603C126.51 18.3632 126.233 17.3255 125.669 16.3964C125.116 15.4674 124.334 14.7262 123.356 14.1826C122.367 13.639 121.25 13.3623 119.994 13.3623H113.27V25.4891H119.964C121.22 25.4891 122.347 25.2222 123.346 24.6885H123.336Z" fill="white"/>
<path d="M39.8463 60.822V61.4743H36.0397V63.3027H39.609V63.9451H36.0397V66.1886H39.9847V66.8409H35.2981V60.8318H39.8463V60.822Z" fill="white"/>
<path d="M40.7362 65.9909L41.0526 65.4375C41.6063 65.9811 42.2885 66.2578 43.0993 66.2578C43.5245 66.2578 43.9002 66.159 44.2166 65.9712C44.533 65.7834 44.6912 65.5165 44.6912 65.1706C44.6912 64.9532 44.622 64.7753 44.4737 64.6369C44.3352 64.4986 44.1573 64.3997 43.9496 64.3207C43.742 64.2416 43.475 64.1625 43.129 64.0835C42.684 63.9747 42.3083 63.8561 42.0117 63.7277C41.7151 63.5992 41.4679 63.4312 41.2701 63.2038C41.0724 62.9765 40.9735 62.6998 40.9735 62.3539C40.9735 62.008 41.0724 61.7115 41.2701 61.4644C41.4679 61.2173 41.725 61.0394 42.0413 60.9109C42.3676 60.7824 42.7137 60.7231 43.0795 60.7231C43.8705 60.7231 44.5429 60.9504 45.1065 61.3952L44.7999 61.9585C44.3253 61.583 43.7519 61.4051 43.0795 61.4051C42.7335 61.4051 42.4171 61.4841 42.1402 61.6423C41.8634 61.8004 41.725 62.0376 41.725 62.344C41.725 62.5417 41.7942 62.6998 41.9227 62.8283C42.0512 62.9568 42.2193 63.0556 42.4171 63.1347C42.6148 63.2137 42.8818 63.2928 43.218 63.3719C43.6728 63.4806 44.0584 63.6091 44.3649 63.7375C44.6813 63.866 44.9384 64.0538 45.146 64.2811C45.3536 64.5084 45.4525 64.8049 45.4525 65.1509C45.4525 65.5363 45.3339 65.8723 45.1065 66.1392C44.879 66.406 44.5824 66.6037 44.2166 66.7322C43.8508 66.8607 43.4651 66.92 43.0598 66.92C42.0809 66.92 41.2998 66.6037 40.7065 65.9811L40.7362 65.9909Z" fill="white"/>
<path d="M49.0911 60.822C49.625 60.822 50.0898 60.9208 50.4754 61.1185C50.861 61.3161 51.1576 61.583 51.3553 61.9289C51.5531 62.2748 51.6619 62.6504 51.6619 63.0754C51.6619 63.5003 51.563 63.8759 51.3553 64.2218C51.1576 64.5677 50.861 64.8346 50.4655 65.0323C50.0799 65.2299 49.6152 65.3288 49.0713 65.3288H47.3509V66.831H46.6094V60.822H49.0812H49.0911ZM50.07 64.4689C50.3369 64.3305 50.5347 64.1329 50.683 63.8858C50.8214 63.6387 50.9005 63.3719 50.9005 63.0754C50.9005 62.7789 50.8313 62.512 50.683 62.2649C50.5446 62.0178 50.3369 61.8301 50.07 61.6818C49.803 61.5434 49.5064 61.4644 49.1702 61.4644H47.3707V64.6765H49.1603C49.5064 64.6765 49.8129 64.6073 50.07 64.459V64.4689Z" fill="white"/>
<path d="M54.2028 59.122L53.3327 60.3574H52.6802L53.4316 59.122H54.2028ZM53.5008 60.822V66.831H52.7593V60.822H53.5008Z" fill="white"/>
<path d="M57.3768 60.822C57.9107 60.822 58.3754 60.9208 58.7709 61.1283C59.1565 61.326 59.4531 61.6027 59.6608 61.9388C59.8684 62.2748 59.9673 62.6603 59.9673 63.0852C59.9673 63.5102 59.8486 63.9253 59.6014 64.2811C59.3543 64.6369 59.0181 64.9038 58.583 65.0817L60.0167 66.831H59.1367L57.9107 65.2793C57.7327 65.309 57.5449 65.3288 57.3273 65.3288H55.6662V66.831H54.9247V60.822H57.3965H57.3768ZM58.3358 64.4788C58.6028 64.3404 58.8104 64.1428 58.9588 63.8957C59.1071 63.6486 59.1862 63.3817 59.1862 63.0852C59.1862 62.7887 59.1071 62.512 58.9588 62.2649C58.8104 62.0178 58.6028 61.8202 58.3457 61.6719C58.0788 61.5237 57.7822 61.4545 57.446 61.4545H55.6564V64.6863H57.4361C57.7723 64.6863 58.0689 64.6172 58.3358 64.4689V64.4788Z" fill="white"/>
<path d="M61.8063 60.822V66.831H61.0647V60.822H61.8063Z" fill="white"/>
<path d="M62.7258 61.4743V60.822H67.9365V61.4743H65.7118V66.8409H64.9703V61.4743H62.7357H62.7258Z" fill="white"/>
<path d="M69.9536 66.5148C69.479 66.238 69.1033 65.8625 68.8264 65.3881C68.5496 64.9137 68.4111 64.3898 68.4111 63.8265C68.4111 63.2631 68.5496 62.7393 68.8264 62.2649C69.1033 61.7905 69.479 61.415 69.9536 61.1382C70.4282 60.8615 70.9621 60.7231 71.5454 60.7231C72.1288 60.7231 72.6627 60.8615 73.1373 61.1382C73.6119 61.415 73.9975 61.7905 74.2645 62.2649C74.5413 62.7393 74.6699 63.2631 74.6699 63.8265C74.6699 64.3898 74.5315 64.9137 74.2645 65.3881C73.9975 65.8625 73.6119 66.238 73.1373 66.5148C72.6528 66.7915 72.1288 66.9299 71.5454 66.9299C70.9621 66.9299 70.4282 66.7915 69.9536 66.5148ZM72.7418 65.9316C73.0978 65.7142 73.3845 65.4177 73.5921 65.052C73.7998 64.6863 73.8987 64.2712 73.8987 63.8364C73.8987 63.4015 73.7998 62.9963 73.5921 62.6207C73.3845 62.2452 73.0978 61.9585 72.7418 61.7411C72.3859 61.5237 71.9805 61.415 71.5454 61.415C71.1104 61.415 70.705 61.5237 70.3392 61.7411C69.9733 61.9585 69.6965 62.255 69.4889 62.6207C69.2812 62.9963 69.1824 63.4015 69.1824 63.8364C69.1824 64.2712 69.2812 64.6765 69.4889 65.052C69.6965 65.4276 69.9832 65.7142 70.3392 65.9316C70.705 66.1491 71.1005 66.2578 71.5454 66.2578C71.9904 66.2578 72.3859 66.1491 72.7418 65.9316Z" fill="white"/>
<path d="M77.5966 65.9909L77.913 65.4375C78.4667 65.9811 79.1489 66.2578 79.9597 66.2578C80.3848 66.2578 80.7605 66.159 81.0769 65.9712C81.3933 65.7834 81.5515 65.5165 81.5515 65.1706C81.5515 64.9532 81.4823 64.7753 81.334 64.6369C81.1956 64.4986 81.0176 64.3997 80.81 64.3207C80.6023 64.2416 80.3354 64.1625 79.9893 64.0835C79.5444 63.9747 79.1687 63.8561 78.872 63.7277C78.5754 63.5992 78.3282 63.4312 78.1305 63.2038C77.9327 62.9765 77.8339 62.6998 77.8339 62.3539C77.8339 62.008 77.9327 61.7115 78.1305 61.4644C78.3282 61.2173 78.5853 61.0394 78.9017 60.9109C79.228 60.7824 79.574 60.7231 79.9399 60.7231C80.7309 60.7231 81.4032 60.9504 81.9668 61.3952L81.6603 61.9585C81.1857 61.583 80.6122 61.4051 79.9399 61.4051C79.5938 61.4051 79.2774 61.4841 79.0006 61.6423C78.7237 61.8004 78.5853 62.0376 78.5853 62.344C78.5853 62.5417 78.6545 62.6998 78.7831 62.8283C78.9116 62.9568 79.0797 63.0556 79.2774 63.1347C79.4752 63.2137 79.7421 63.2928 80.0783 63.3719C80.5331 63.4806 80.9187 63.6091 81.2253 63.7375C81.5416 63.866 81.7987 64.0538 82.0064 64.2811C82.214 64.5084 82.3129 64.8049 82.3129 65.1509C82.3129 65.5363 82.1942 65.8723 81.9668 66.1392C81.7394 66.406 81.4428 66.6037 81.0769 66.7322C80.7111 66.8607 80.3255 66.92 79.9201 66.92C78.9413 66.92 78.1601 66.6037 77.5669 65.9811L77.5966 65.9909Z" fill="white"/>
<path d="M86.3865 60.8022L89.2044 66.831H88.453L87.8993 65.6648H84.2113L83.6576 66.831H82.8962L85.7142 60.8022H86.3865ZM86.5249 62.7294L86.1492 61.8795L86.0503 61.6522L85.9712 61.8597C85.813 62.2353 85.6845 62.5219 85.5856 62.7393L84.4782 65.0817H87.6323L86.5249 62.7393V62.7294Z" fill="white"/>
<path d="M90.7765 60.822L93.7724 64.7259C93.9009 64.9038 94.0294 65.0916 94.158 65.2991C94.2865 65.5067 94.3755 65.645 94.4052 65.7043V60.822H95.1467V66.831H94.3854L91.4389 63.0161C91.2906 62.8184 91.1522 62.6108 91.0138 62.3934C90.8753 62.176 90.7962 62.0376 90.7567 61.9783V66.831H90.0151V60.822H90.7567H90.7765Z" fill="white"/>
<path d="M96.0762 61.4743V60.822H101.287V61.4743H99.0622V66.8409H98.3206V61.4743H96.0861H96.0762Z" fill="white"/>
<path d="M103.304 66.5148C102.829 66.238 102.454 65.8625 102.177 65.3881C101.9 64.9137 101.761 64.3898 101.761 63.8265C101.761 63.2631 101.9 62.7393 102.177 62.2649C102.454 61.7905 102.829 61.415 103.304 61.1382C103.779 60.8615 104.312 60.7231 104.896 60.7231C105.479 60.7231 106.013 60.8615 106.488 61.1382C106.962 61.415 107.348 61.7905 107.615 62.2649C107.892 62.7393 108.02 63.2631 108.02 63.8265C108.02 64.3898 107.882 64.9137 107.615 65.3881C107.348 65.8625 106.962 66.238 106.488 66.5148C106.003 66.7915 105.479 66.9299 104.896 66.9299C104.312 66.9299 103.779 66.7915 103.304 66.5148ZM106.092 65.9316C106.448 65.7142 106.735 65.4177 106.942 65.052C107.15 64.6863 107.249 64.2712 107.249 63.8364C107.249 63.4015 107.15 62.9963 106.942 62.6207C106.735 62.2452 106.448 61.9585 106.092 61.7411C105.736 61.5237 105.331 61.415 104.896 61.415C104.461 61.415 104.055 61.5237 103.69 61.7411C103.324 61.9585 103.047 62.255 102.839 62.6207C102.632 62.9963 102.533 63.4015 102.533 63.8364C102.533 64.2712 102.632 64.6765 102.839 65.052C103.047 65.4276 103.334 65.7142 103.69 65.9316C104.055 66.1491 104.451 66.2578 104.896 66.2578C105.341 66.2578 105.736 66.1491 106.092 65.9316Z" fill="white"/>
<path d="M112.905 64.7555C113.369 64.3207 113.715 63.9154 113.953 63.5596C114.19 63.2038 114.309 62.8579 114.309 62.5318C114.309 62.1957 114.19 61.919 113.953 61.7016C113.715 61.4841 113.419 61.3853 113.043 61.3853C112.519 61.3853 112.015 61.6423 111.51 62.1661L111.115 61.6917C111.412 61.3557 111.738 61.1086 112.084 60.9603C112.43 60.8121 112.776 60.733 113.102 60.733C113.488 60.733 113.834 60.8121 114.131 60.9603C114.427 61.1086 114.655 61.3161 114.813 61.5731C114.981 61.8399 115.06 62.1364 115.06 62.4824C115.06 63.0951 114.773 63.7277 114.2 64.38C113.626 65.0323 112.944 65.6351 112.163 66.1886H115.248V66.8409H111.066V66.327C111.837 65.7142 112.45 65.1904 112.914 64.7555H112.905Z" fill="white"/>
<path d="M117.285 66.5345C116.939 66.2677 116.672 65.902 116.484 65.4276C116.296 64.9532 116.197 64.4294 116.197 63.8364C116.197 63.2434 116.296 62.7097 116.484 62.2353C116.672 61.7609 116.939 61.3952 117.285 61.1283C117.631 60.8615 118.016 60.733 118.461 60.733C118.906 60.733 119.282 60.8615 119.628 61.1283C119.974 61.3952 120.241 61.7609 120.429 62.2353C120.617 62.7097 120.716 63.2335 120.716 63.8364C120.716 64.4393 120.617 64.9631 120.429 65.4276C120.241 65.902 119.974 66.2677 119.628 66.5345C119.282 66.8014 118.896 66.9299 118.461 66.9299C118.026 66.9299 117.631 66.8014 117.285 66.5345ZM119.242 65.9613C119.47 65.7537 119.648 65.4572 119.767 65.0916C119.885 64.7259 119.954 64.3009 119.954 63.8265C119.954 63.3521 119.895 62.9271 119.767 62.5515C119.638 62.176 119.47 61.8894 119.242 61.6818C119.015 61.4743 118.758 61.3754 118.461 61.3754C118.165 61.3754 117.888 61.4743 117.66 61.6818C117.433 61.8894 117.255 62.176 117.127 62.5515C116.998 62.9271 116.939 63.3422 116.939 63.8265C116.939 64.3108 116.998 64.716 117.127 65.0916C117.255 65.4671 117.423 65.7537 117.66 65.9613C117.888 66.1688 118.155 66.2776 118.461 66.2776C118.768 66.2776 119.015 66.1688 119.242 65.9613Z" fill="white"/>
<path d="M123.534 64.7555C123.998 64.3207 124.344 63.9154 124.582 63.5596C124.819 63.2038 124.938 62.8579 124.938 62.5318C124.938 62.1957 124.819 61.919 124.582 61.7016C124.344 61.4841 124.048 61.3853 123.672 61.3853C123.148 61.3853 122.644 61.6423 122.139 62.1661L121.744 61.6917C122.041 61.3557 122.367 61.1086 122.713 60.9603C123.059 60.8121 123.405 60.733 123.731 60.733C124.117 60.733 124.463 60.8121 124.76 60.9603C125.056 61.1086 125.284 61.3161 125.442 61.5731C125.61 61.8399 125.689 62.1364 125.689 62.4824C125.689 63.0951 125.402 63.7277 124.829 64.38C124.255 65.0323 123.573 65.6351 122.792 66.1886H125.877V66.8409H121.694V66.327C122.466 65.7142 123.079 65.1904 123.543 64.7555H123.534Z" fill="white"/>
<path d="M127.785 66.752C127.479 66.6334 127.222 66.4851 127.024 66.3171L127.33 65.7636C127.479 65.8921 127.686 66.0107 127.963 66.1194C128.24 66.238 128.537 66.2874 128.873 66.2874C129.179 66.2874 129.436 66.2281 129.664 66.1095C129.891 65.9909 130.069 65.8229 130.188 65.6154C130.316 65.4078 130.376 65.1805 130.376 64.9433C130.376 64.548 130.227 64.2317 129.931 63.9945C129.634 63.7573 129.258 63.6387 128.804 63.6387C128.349 63.6387 127.924 63.7771 127.518 64.0538L127.182 63.787V60.822H130.781V61.4644H127.894V63.2928C128.22 63.1149 128.586 63.0259 128.982 63.0259C129.377 63.0259 129.743 63.105 130.069 63.2533C130.395 63.4114 130.652 63.6288 130.83 63.9154C131.008 64.2021 131.107 64.5381 131.107 64.9235C131.107 65.309 131.008 65.6549 130.821 65.9514C130.633 66.2578 130.366 66.495 130.03 66.663C129.693 66.831 129.298 66.92 128.863 66.92C128.428 66.92 128.082 66.8607 127.765 66.7421L127.785 66.752Z" fill="white"/>
<path d="M22.1676 3.93356C22.1676 3.93356 22.2962 4.07193 22.3456 4.0917C22.484 4.14111 22.5137 4.08181 22.5236 4.07193C22.6225 4.00275 22.7115 4.151 22.8301 4.17076C22.84 4.17076 22.8795 4.2103 22.8894 4.13123C22.8894 4.07193 22.8894 4.10158 22.8301 4.04228C22.8301 4.04228 22.8103 4.0324 22.8103 4.02251L22.5236 3.76555C22.5236 3.76555 22.5137 3.75566 22.4939 3.7359C22.3753 3.6173 22.2369 3.66671 22.0589 3.50858C22.0292 3.48882 21.96 3.41963 21.9501 3.41963C21.8809 3.46905 21.9501 3.58765 21.9897 3.62718C22.1182 3.82485 22.0193 3.7359 22.1676 3.92368V3.93356Z" fill="white"/>
<path d="M19.3002 1.69005C19.3398 1.76912 19.231 1.70982 19.4485 1.86795C19.4782 1.88772 19.5079 1.92725 19.5573 1.9569C19.498 2.14468 19.4683 2.09527 19.4189 2.12492C19.6166 2.17433 19.6463 2.2534 19.7353 2.27317C19.8243 2.11503 19.8341 2.21387 19.9627 2.14468C19.933 2.06562 19.8144 2.02608 19.7946 1.9569C19.7649 1.86795 19.8243 1.88772 19.6858 1.79877L19.5375 1.69005C19.5375 1.69005 19.5177 1.67028 19.4881 1.65052L19.3694 1.61098C19.2112 1.55168 19.231 1.61098 19.231 1.61098C19.231 1.61098 19.2903 1.6604 19.3101 1.68017L19.3002 1.69005Z" fill="white"/>
<path d="M24.6593 7.45203C24.6593 7.45203 24.6593 7.59011 24.6987 7.63942C24.7578 7.59011 24.7381 7.48162 24.6593 7.45203Z" fill="white"/>
<path d="M3.20348 14.2616C3.45067 15.2599 3.90549 16.3371 4.42952 17.197C4.72615 17.6813 5.01288 18.1062 5.35894 18.5411L5.58635 18.8178C5.87309 19.1242 6.46634 19.7765 6.80251 20.0335L7.08924 20.2707C7.31665 20.4585 7.54407 20.6166 7.78136 20.7846C8.92831 21.5852 10.2038 22.1584 11.6177 22.5043C12.6756 22.7613 13.4172 22.8206 14.5147 22.8206C16.7097 22.8206 19.0432 22.0102 20.813 20.7945L21.604 20.1916C21.8215 19.994 22.128 19.737 22.3357 19.5294C22.4543 19.4108 22.573 19.2922 22.6817 19.1736L23.6111 18.0371C23.71 17.8987 23.7891 17.7702 23.8979 17.622L24.2934 16.9697C24.768 16.1296 25.1437 15.2203 25.381 14.2616C25.7765 12.7001 25.8358 11.2966 25.6183 9.71531C25.4502 8.48977 25.1338 7.65957 24.6592 6.56253L24.1846 5.65326C23.9078 5.19863 23.6705 4.84283 23.3541 4.42773C23.2058 4.23006 22.8894 3.8545 22.7213 3.69636L22.3851 3.34056C22.0094 2.965 21.9797 2.97488 21.6633 2.67838L20.4768 1.80865C20.3384 1.70982 20.2099 1.64063 20.0517 1.55168C17.8665 0.26685 15.0981 -0.266849 12.5867 0.128484C12.1912 0.187784 11.8352 0.26685 11.4496 0.3558C10.5004 0.583116 9.33369 1.05752 8.51303 1.56157C8.43393 1.61098 8.37461 1.64063 8.29551 1.69005C8.2263 1.73947 8.16697 1.76912 8.08787 1.81853C7.82091 1.98655 7.10902 2.51036 6.90138 2.68826L6.01151 3.51846C5.9423 3.58765 5.92253 3.63706 5.85331 3.69636L5.36883 4.23995L4.64705 5.22828C4.00436 6.21661 3.48033 7.43226 3.18371 8.57872C3.08483 8.95429 3.00573 9.31997 2.9563 9.71531C2.81787 10.6839 2.83765 10.8815 2.83765 11.8007C2.83765 12.5222 3.01562 13.5402 3.19359 14.2419L3.20348 14.2616ZM11.0146 20.7945C10.9256 20.6759 11.2716 20.755 11.3112 20.7747C11.2519 20.8538 11.064 20.8637 11.0146 20.7945ZM17.6688 2.02608C17.6688 2.02608 17.649 2.00631 17.6391 1.97666C17.5502 1.97666 17.5304 1.97666 17.4809 1.92725C17.392 1.84818 17.3722 1.85807 17.4216 1.75923L17.4513 1.67028C17.5106 1.6604 17.5403 1.63075 17.5897 1.65052L17.6985 1.7197C17.827 1.779 17.7874 1.81853 17.8567 1.90748C17.9259 1.94701 17.9753 1.90748 18.0445 1.9569C18.2126 2.0755 18.1335 2.09526 18.4697 2.29293C18.5686 2.35223 18.6872 2.45106 18.8454 2.41153C18.9641 2.38188 19.0135 2.20398 18.9937 2.05573C18.9641 2.02608 18.8948 2.00631 18.9146 1.93713C18.9443 1.84818 18.9542 1.92725 19.0234 1.8383L19.0036 1.81853C19.0036 1.81853 19.0036 1.81853 19.0036 1.80865L18.9542 1.76912C18.9047 1.72958 18.9443 1.74935 18.8751 1.72958C18.796 1.69993 18.7564 1.68017 18.6773 1.67028L18.6477 1.75923C18.5389 1.75923 18.4697 1.70982 18.3708 1.67028C18.2225 1.59122 18.0742 1.52203 17.9852 1.37378C17.9061 1.2453 18.005 1.2453 18.0544 1.16623C18.0149 1.0674 17.9753 1.02787 17.9061 0.968566C17.8171 0.879616 17.7281 0.849966 17.7083 0.810433C17.7281 0.761016 17.738 0.74125 17.7874 0.731366C17.8369 0.7116 18.0445 0.7709 18.1038 0.790666C18.2423 0.8302 18.3906 0.899383 18.529 0.948799C19.7847 1.4232 21.0997 2.27316 22.0786 3.22196C22.5829 3.70625 22.7707 3.95333 23.1959 4.42773C23.2552 4.49691 23.275 4.53644 23.3244 4.60563C23.5419 4.88236 23.7298 5.15909 23.9275 5.46548C24.6988 6.67124 25.3217 8.26246 25.4996 9.71531C25.5095 9.82402 25.4799 9.83391 25.4898 9.94262C25.4898 10.1403 25.559 10.1403 25.5787 10.3577C25.6084 10.6345 25.6776 11.7809 25.6084 11.9885C25.5985 12.028 25.5787 12.028 25.5689 12.1071L25.4304 12.7594C25.3909 12.9274 25.3612 12.9076 25.3513 13.0262C25.3316 13.1547 25.2525 13.3227 25.2623 13.5995C25.2623 13.7279 25.2327 13.7378 25.2228 13.8367C25.2129 13.9058 25.2129 14.0244 25.1931 14.1233L25.0844 14.5285C25.0547 14.6076 25.0646 14.5779 25.0547 14.657C25.0448 14.7262 25.0349 14.7262 25.0152 14.7756C24.9954 14.825 24.9954 14.8448 24.9756 14.9041C24.946 14.993 24.946 14.9535 24.9163 15.0227C24.8965 15.0622 24.9064 15.0918 24.8767 15.1511C24.8471 15.2203 24.8174 15.2994 24.7779 15.3785C24.7087 15.5366 24.59 15.6058 24.4911 15.754C24.2439 16.1098 24.3033 16.0307 24.1648 16.436C24.1253 16.5348 24.0462 16.6929 23.977 16.7522C23.7496 16.9894 23.9572 16.8016 23.71 16.9697C23.621 17.029 23.6309 17.0981 23.5914 17.197C23.5518 17.2958 23.4529 17.4342 23.3738 17.4836C23.3046 17.533 23.2849 17.6022 23.2156 17.6516C23.1662 17.6911 23.1662 17.6714 23.1267 17.7307C22.9685 17.958 23.0377 17.8987 22.83 18.1062C22.7905 18.1458 22.7806 18.1655 22.7312 18.1952L22.6422 18.2446C22.6422 18.2446 22.6026 18.2347 22.5136 18.2644C22.4543 18.2841 22.4642 18.294 22.395 18.3138C22.2763 18.3434 22.1874 18.3138 22.0984 18.3632C22.0094 18.4126 22.0094 18.462 21.871 18.462C21.782 18.3336 21.8907 18.2446 21.9698 18.1359C21.9698 18.1359 21.9698 18.1359 21.9698 18.126L22.039 17.9778C22.0687 17.8987 22.0687 17.8789 22.128 17.8394C22.1083 17.7406 22.0984 17.7208 22.0984 17.6022C22.0984 17.533 22.1577 17.4539 22.1478 17.3749C22.0786 17.0092 22.039 17.2069 22.2665 16.7127C22.3752 16.4755 22.2368 16.5546 22.3357 16.2581C22.3554 16.1889 22.3653 16.0999 22.4049 16.0505C22.2763 15.9616 22.4049 15.9912 22.306 15.7935C22.2665 15.7244 22.306 15.7046 22.2763 15.6354C22.2368 15.5366 22.1379 15.5563 22.306 15.4476C22.395 15.3883 22.4247 15.25 22.4444 15.1412C22.5136 14.7558 22.4444 14.7756 22.662 14.736C22.7312 14.5384 22.7806 14.6471 22.83 14.5384C22.9289 14.2913 22.8103 14.2814 22.7806 14.2616C22.7806 14.0047 22.8498 14.1233 22.9289 14.0047C22.8894 13.9651 22.9091 13.975 22.8399 13.9454C22.8399 13.896 22.8399 13.896 22.8399 13.8663C22.8399 13.8268 22.83 13.8465 22.8202 13.807C22.8103 13.6983 22.8993 13.6785 22.8202 13.5006L22.7114 13.2338C22.6916 13.1646 22.6817 13.1844 22.6718 13.0954C22.6718 13.0163 22.6916 13.046 22.6916 12.9867C22.6916 12.9076 22.662 12.9472 22.6916 12.8384C22.6026 12.8187 22.5334 12.7989 22.484 12.7396C22.4148 12.6605 22.4148 12.4135 22.4247 12.4036C22.4444 12.364 22.4543 12.3937 22.4741 12.3146C22.484 12.2652 22.4741 12.0972 22.4741 12.028C22.5235 11.9391 22.5334 12.028 22.5532 11.8798C22.5631 11.8007 22.5334 11.7809 22.5334 11.7216C22.5334 11.6327 22.5631 11.6722 22.5038 11.5536C22.4148 11.3856 22.3258 11.4844 22.2071 11.4449C22.1379 11.4251 22.1379 11.3757 22.0885 11.3362C21.9995 11.2571 21.9995 11.3362 21.9501 11.2472C21.9105 11.178 21.9402 11.1385 21.9006 11.0792C21.8215 11.0199 21.7226 11.0397 21.6139 11.01C21.5051 10.9705 21.5546 10.9903 21.4755 10.9408C21.426 10.9112 21.3766 10.9013 21.337 10.9211C21.2481 10.9507 21.2876 11.0298 21.169 11.0594C20.9415 11.1286 21.0206 11.2275 20.9317 11.2868C20.9119 11.2966 20.6449 11.3559 20.546 11.267C20.5065 11.2275 20.4373 11.2077 20.378 11.1879C20.289 11.1484 20.2791 11.1583 20.1901 11.1879C19.7946 11.3362 20.111 11.3164 19.8341 11.3164H19.5573C19.5573 11.3164 19.5079 11.3164 19.4485 11.3263C19.3694 11.2966 19.409 11.2769 19.3497 11.2472C19.3101 11.2176 19.2607 11.2275 19.2112 11.2077C19.1519 11.01 19.2112 11.1385 19.0926 11.0594C18.9937 10.9804 19.1321 10.9507 18.9245 10.9211C18.5784 10.8815 18.7268 11.0001 18.5883 10.8025L18.5686 10.7827C18.3807 10.5653 18.4598 10.3973 18.4301 10.338L18.2719 10.1897C18.2225 10.1601 18.1038 10.1403 18.0544 10.1106C18.0544 10.0118 18.0841 10.0019 18.0544 9.95251C18.005 9.88332 17.9852 9.95251 17.916 9.91297C17.8567 9.89321 17.8764 9.70542 17.8369 9.61647C17.7182 9.58682 17.6787 9.65601 17.6194 9.51764C17.6194 9.50776 17.5699 9.38916 17.5699 9.37927C17.56 9.31009 17.5897 9.31997 17.6095 9.27056C17.6292 9.23102 17.5897 9.07289 17.5798 8.99382C17.5798 8.85546 17.6292 8.88511 17.5996 8.71709C17.649 8.68744 17.6886 8.66767 17.7776 8.66767C17.7776 8.51942 17.7776 8.43047 17.7578 8.31187C17.7281 8.20316 17.7875 8.08456 17.6688 8.03514C17.6095 8.01538 17.5798 8.02526 17.5502 7.97584C17.4612 7.85724 17.7084 7.82759 17.3425 7.70899V7.60028L17.4809 7.55086C17.5106 7.39273 17.4612 7.35319 17.6391 7.33343L17.6095 7.08634L17.7776 7.04681C17.7281 6.93809 17.7182 6.78984 17.827 6.73054C17.916 6.68113 17.8764 6.70089 17.916 6.61194C17.9654 6.48346 17.9555 6.59218 18.0149 6.51311C18.0544 6.44393 18.0149 6.35498 18.1038 6.33521C18.1038 6.33521 18.1137 6.33521 18.1236 6.33521C18.1434 6.33521 18.1632 6.33521 18.1731 6.33521C18.2324 6.33521 18.2818 6.33521 18.3115 6.29568C18.5389 5.96953 18.4202 6.13754 18.5784 6.02883C18.5784 5.92011 18.5092 5.67303 18.4796 5.59396C18.5092 5.56431 18.4796 5.59396 18.5191 5.57419C18.6081 5.53466 18.5389 5.59396 18.6477 5.49513C18.8059 5.35676 18.6971 5.41606 18.8256 5.31723C18.8256 5.22828 18.796 5.24804 18.8355 5.19863C18.8652 5.15909 18.9047 5.15909 18.9344 5.13933C18.9047 5.09979 18.885 5.04049 18.9047 5.00096C18.9937 4.89224 19.3991 5.11956 19.5276 5.18874C19.6364 5.13933 19.6265 5.09979 19.6265 5.00096C19.6265 4.87248 19.755 4.93178 19.8243 4.91201C19.9132 4.89224 19.8935 4.81318 20.3087 4.82306C20.4175 4.82306 20.3483 4.88236 20.4472 4.85271C20.5757 4.81318 20.7932 4.79341 20.9218 4.80329C20.8921 4.74399 20.8921 4.79341 20.902 4.70446L21.0701 4.81318C21.0701 4.81318 21.1294 4.85271 21.1492 4.87248C21.1788 4.91201 21.1492 4.92189 21.1986 4.97131C21.2481 5.02073 21.3173 5.02073 21.3469 5.10968C21.3865 5.20851 21.3469 5.27769 21.3469 5.36664C21.3766 5.41606 21.4557 5.48524 21.4952 5.52478C21.5842 5.52478 21.5743 5.49513 21.6633 5.53466C21.871 5.64338 21.9006 5.51489 22.1083 5.74221C22.1775 5.82128 22.1972 5.78174 22.217 5.80151L22.3357 5.88058C22.4049 5.91023 22.5532 6.05848 22.6224 5.96953C22.7114 5.76198 22.4345 5.74221 22.6718 5.60384C22.7411 5.58408 23.0673 5.77186 23.0772 5.78174C23.1168 5.83116 23.0772 5.84104 23.1563 5.87069C23.2552 5.91023 23.186 5.87069 23.2453 5.87069C23.3046 5.87069 23.3837 5.93988 23.4134 5.99918C23.5222 5.92999 23.5123 5.95964 23.6408 6.08813C23.7298 6.00906 23.7397 5.91023 23.6902 5.82128C23.621 5.69279 23.6013 5.73233 23.5617 5.57419C23.5419 5.51489 23.4727 5.36664 23.4332 5.30734C23.3837 5.23816 23.3244 5.16898 23.2849 5.08003C23.1069 5.09979 23.2354 5.09979 23.0772 5.05038C22.9586 5.01084 22.9586 5.05038 22.8795 5.07014L22.7015 4.94166C22.5829 4.86259 22.6817 4.86259 22.573 4.78353L22.2961 4.48703C22.2961 4.48703 22.2763 4.40796 22.2368 4.37831C22.1577 4.31901 22.0885 4.39808 22.1379 4.47715C22.1972 4.57598 22.306 4.5068 22.3159 4.72423C22.3159 4.82306 22.3653 4.84283 22.395 4.91201C22.2566 5.03061 22.0984 4.75388 22.0588 4.70446C21.9896 4.61551 22.0193 4.67481 21.9303 4.63528C21.8314 4.58586 21.8314 4.5068 21.7226 4.4475C21.6238 4.39808 21.6831 4.41785 21.6435 4.3289C21.5743 4.16088 21.4952 4.151 21.3469 4.01263C21.1788 3.8545 21.0503 3.86438 20.9811 3.80508L20.9119 3.74578C20.8328 3.68648 20.6944 3.57776 20.5955 3.58765C20.5362 3.70625 20.6647 3.7359 20.7537 3.7952C20.813 3.84461 20.7932 3.84461 20.8822 3.88415C20.991 3.93356 20.9613 3.99286 21.1393 4.06205C21.2085 4.0917 21.1986 4.10158 21.2678 4.151C21.3667 4.22018 21.5447 4.23995 21.5546 4.3289V4.4475C21.5743 4.5068 21.5842 4.51668 21.5842 4.59575C21.5348 4.5661 21.5842 4.59574 21.5546 4.56609L21.4656 4.5068C21.3469 4.46726 21.4161 4.50679 21.3568 4.41785C21.2184 4.23995 20.9811 4.25971 20.9712 4.24983C20.9218 4.23995 20.8921 4.18065 20.8526 4.17076C20.8229 4.151 20.635 4.10158 20.6153 4.0324C20.6153 4.0324 20.6153 4.0324 20.6054 4.0324L20.5559 4.14111C20.4867 4.12135 20.4175 4.0917 20.3681 4.06205C20.4175 3.88415 20.4966 4.04228 20.5856 3.99286C20.5856 3.87426 20.4076 3.9138 20.2593 3.76555C20.1604 3.66671 20.1802 3.72601 20.1604 3.7359C20.1011 3.7952 20.1604 3.8545 20.1901 3.9138C20.1604 3.92368 20.0121 3.9731 19.9726 3.96321C19.9132 3.96321 19.8737 3.92368 19.8144 3.93356C19.7155 3.94345 19.8045 4.0324 19.8243 4.13123C19.7748 4.18065 19.7847 4.17076 19.7452 4.23995C19.6957 4.3289 19.7155 4.28936 19.6364 4.3289C19.6364 4.42773 19.6562 4.47715 19.6562 4.57598C19.6562 4.66493 19.6759 4.70446 19.6858 4.79341C19.6166 4.83294 19.6166 4.79341 19.5672 4.83294C19.5276 4.86259 19.5375 4.88236 19.4881 4.93178C19.409 4.95154 18.9245 4.93178 18.8751 4.91201C18.7564 4.86259 18.8751 4.81318 18.6674 4.81318C18.5784 4.81318 18.5092 4.80329 18.3906 4.79341C18.3609 4.74399 18.3313 4.69458 18.3115 4.62539C18.2818 4.52656 18.2917 4.53645 18.2126 4.49691C18.2126 4.37831 18.2324 4.35855 18.2027 4.2696C18.1632 4.151 18.1731 4.17076 18.2719 4.11146C18.2126 4.08181 18.1632 3.90391 18.1533 3.82485C18.2423 3.78531 18.44 3.76555 18.5389 3.74578C18.5784 3.74578 18.6674 3.74578 18.707 3.78531C18.7465 3.81496 18.7465 3.86438 18.796 3.90391C18.8652 3.83473 18.8553 3.7952 18.9542 3.74578C19.0728 3.69636 19.0827 3.69636 18.9838 3.62718C19.0333 3.35045 18.8652 3.44928 18.7169 3.3208C18.6477 3.2615 18.44 3.18243 18.351 3.10336C18.3115 3.07371 18.3313 3.10336 18.3214 3.05395C18.3609 3.0243 18.4499 3.04406 18.4796 3.03418C18.529 3.0243 18.5191 2.98476 18.5587 2.94523C18.7268 2.92546 18.7366 2.98476 18.7169 2.7871C18.6081 2.82663 18.5488 2.82663 18.4104 2.81675C18.3016 2.81675 18.2423 2.8464 18.1236 2.8464C18.0742 2.76733 18.0742 2.67838 18.0247 2.58943C17.9951 2.53013 18.0247 2.54001 17.916 2.35223C17.8764 2.28305 17.8567 2.30281 17.8369 2.22375H17.6886L17.738 2.44118C17.7182 2.46095 17.6886 2.47083 17.6886 2.50048C17.6688 2.54001 17.6886 2.50048 17.6886 2.5499V2.55978V2.58943C17.5699 2.64873 17.56 2.6092 17.4809 2.58943C17.4216 2.56966 17.3821 2.58943 17.2931 2.55978C17.2733 2.48071 17.2239 2.32258 17.2239 2.26328C17.2931 2.23363 17.303 2.26328 17.3722 2.21386C17.4117 2.18421 17.4216 2.16445 17.4809 2.14468C17.5897 2.20398 17.4513 2.17433 17.6985 2.22375C17.6589 2.16445 17.6886 2.22375 17.6391 2.17433L17.6688 2.02608ZM19.9034 4.17076C19.9528 4.19053 19.9923 4.23995 20.0022 4.25971C19.933 4.28936 19.9034 4.23995 19.9034 4.17076ZM20.5757 4.08181L20.635 4.05216C20.635 4.05216 20.6746 4.06205 20.724 4.11146C20.7735 4.16088 20.8427 4.29925 20.8229 4.37831C20.7636 4.39808 20.7339 4.39808 20.6845 4.37831C20.6251 4.33878 20.635 4.30913 20.5955 4.23995L20.5658 4.20041C20.546 4.16088 20.5658 4.151 20.5658 4.0917L20.5757 4.08181ZM21.337 4.56609C21.4062 4.56609 21.4952 4.56609 21.5447 4.54633C21.6238 4.49691 21.5546 4.46726 21.7029 4.46726C21.6831 4.58586 21.6732 4.52656 21.6534 4.61551C21.6435 4.66493 21.6534 4.71435 21.6435 4.76376C21.6139 4.76376 21.4458 4.71435 21.4161 4.70446L21.3667 4.67481C21.3667 4.67481 21.3272 4.67481 21.3469 4.57598L21.337 4.56609ZM22.6125 5.04049C22.7213 4.97131 22.8795 5.07014 22.8696 5.15909C22.7905 5.21839 22.6422 5.11956 22.6125 5.04049ZM23.2947 5.15909C23.2947 5.15909 23.3541 5.17886 23.4035 5.19863V5.31723L23.3244 5.25793C23.2849 5.19863 23.2947 5.25793 23.3046 5.16898L23.2947 5.15909ZM16.423 8.98394C16.423 8.98394 16.4428 9.03336 16.4428 9.07289C16.3834 9.07289 16.3834 9.07289 16.3538 9.04324C16.3637 8.99382 16.3735 8.98394 16.4329 8.97406L16.423 8.98394ZM15.3255 0.978449C15.543 0.929033 15.5628 0.889499 15.8297 0.929033C15.8891 0.929033 15.9484 0.968566 15.9385 1.03775C15.9286 1.11682 15.8594 1.08717 15.7704 1.10693C15.7506 1.10693 15.632 1.19588 15.3749 1.11682C15.3156 1.09705 15.2859 1.05752 15.2662 1.0081L15.3255 0.988333V0.978449ZM15.3156 22.3956C15.3848 22.3758 15.2859 22.3857 15.3848 22.3758C15.4244 22.3758 15.4441 22.3758 15.4936 22.3758C15.5628 22.3758 15.5727 22.3462 15.6617 22.3462C15.721 22.3462 15.7803 22.3462 15.8198 22.3462C15.9187 22.3462 15.8594 22.3067 15.9879 22.3363C16.1066 22.3561 16.2648 22.3462 16.3834 22.3264C16.5416 22.2869 16.6998 22.2869 16.8778 22.2869C16.9767 22.2869 16.9371 22.277 17.0261 22.2474C17.1052 22.2276 17.0953 22.2671 17.1942 22.2474C17.2931 22.2474 17.2535 22.1979 17.3524 22.2671C17.1843 22.3363 16.8976 22.3857 16.7196 22.4253C15.2167 22.7514 13.4469 22.7811 11.9341 22.4351C11.8253 22.4055 11.6968 22.3758 11.588 22.366C11.6671 22.3165 11.6276 22.366 11.8945 22.3561L11.8748 22.2177C11.8748 22.2177 11.9143 22.1881 11.9341 22.1584C11.7265 22.1584 11.8056 22.0793 11.855 21.9607C11.8847 21.8916 11.855 21.9113 11.9242 21.8817C12.0824 21.8026 12.1219 21.7334 12.29 21.8421C12.2703 21.9904 12.2505 21.8619 12.2208 22.0102C12.3197 22.1288 12.3988 22.1386 12.4482 22.1782C12.5372 22.2474 12.4977 22.2968 12.6954 22.3462C12.9822 22.4154 12.7745 22.534 13.2986 22.5636C13.4172 22.5636 13.526 22.5834 13.6446 22.5933C14.2873 22.6822 14.1291 22.5933 14.5345 22.5636C14.5938 22.5636 14.6432 22.5636 14.7026 22.534C14.7718 22.5142 14.7619 22.4944 14.8311 22.4944C14.93 22.4944 14.93 22.5142 14.9992 22.4648C15.0882 22.4055 15.019 22.4253 15.1475 22.4154C15.2068 22.4154 15.2859 22.4154 15.3354 22.3857L15.3156 22.3956ZM3.78684 8.01537L3.91538 7.53109C3.91538 7.46191 3.91538 7.42237 3.94504 7.36308C4.01425 7.19506 3.98459 7.26424 4.01425 7.11599C4.0538 6.94798 4.14279 6.74043 4.14279 6.58229C4.14279 6.47358 4.14279 6.53288 4.20211 6.48346L4.18234 6.37474C4.1329 6.45381 4.11313 6.53288 4.04391 6.59218C4.16256 6.25614 4.69648 5.36664 4.88435 5.09979C5.16119 4.70446 5.44793 4.29925 5.7841 3.94345C5.83354 3.88415 5.85331 3.8545 5.90275 3.80508C6.15982 3.52835 6.52566 3.15278 6.8124 2.91558C6.86183 2.87605 6.8915 2.83651 6.95082 2.79698C7.04969 2.7278 7.12879 2.64873 7.22767 2.56966C7.5935 2.28305 8.02855 1.9569 8.44382 1.72958C9.58088 1.09705 10.0752 0.879616 11.331 0.513933L12.1615 0.32615C12.7251 0.227317 14.2477 0.0197671 14.8904 0.168017V0.306383C14.8904 0.306383 14.9399 0.336033 14.9893 0.3558C14.9893 0.464517 14.9596 0.454633 14.9596 0.50405C14.9596 0.602883 14.9893 0.543583 15.019 0.612766C14.9003 0.602883 14.9201 0.5337 14.7916 0.593C14.8707 0.632533 14.8608 0.583116 14.9003 0.662183C14.8608 0.691833 14.5147 0.751133 14.3367 0.869733C14.2576 0.919149 14.2873 0.919149 14.1785 0.929033C14.0599 0.929033 13.961 0.938916 13.8523 0.988333C13.7435 1.03775 13.8325 1.03775 13.7633 1.09705L13.6545 1.13658C13.5556 1.16623 13.5952 1.22553 13.5556 1.3046C13.4469 1.4825 13.3381 1.52203 13.1799 1.3639C13.0118 1.40343 13.081 1.45285 12.9129 1.35402C12.8338 1.3046 12.7646 1.25518 12.7646 1.1267C12.7646 0.8302 12.7646 0.820316 12.9822 0.74125C12.9624 0.701716 12.9426 0.691833 12.9228 0.662183C12.9723 0.612766 12.9624 0.583116 12.9822 0.513933C13.0316 0.464517 13.0711 0.454633 13.1107 0.375567C13.0118 0.2965 12.824 0.306383 12.6855 0.306383C12.5867 0.306383 12.5965 0.306383 12.5273 0.32615C12.4186 0.3558 12.3296 0.32615 12.2109 0.375567C12.1714 0.395333 12.1318 0.4151 12.0824 0.424983C11.8352 0.484283 12.0033 0.573233 12.0132 0.6523C12.0132 0.691833 11.9835 0.701716 11.9736 0.74125C11.9539 0.80055 11.9736 0.751133 11.9736 0.810433C11.9835 0.859849 12.0033 0.929033 12.0231 0.978449C11.7067 1.11682 11.9143 0.938916 11.6572 0.978449C11.5979 1.07728 11.6375 1.186 11.5287 1.22553C11.4694 1.25518 11.4298 1.22553 11.3705 1.2453C11.2321 1.28483 11.3507 1.3639 11.0838 1.27495C10.9256 1.22553 11.0739 1.15635 10.8366 1.14647L10.7278 1.1267C10.7773 1.07728 10.7773 1.1267 10.8662 1.01798C10.9552 1.01798 10.9355 1.03775 10.975 1.03775C11.1134 1.02787 11.0937 0.919149 11.2617 0.899383C11.242 0.85985 11.242 0.849966 11.2123 0.80055C11.0442 0.80055 10.9355 0.909266 10.8564 0.938916C10.7377 0.988333 10.5993 0.988333 10.5301 1.09705C10.4114 1.27495 10.4707 1.16623 10.3818 1.26507C10.4806 1.31448 10.5202 1.19588 10.6289 1.17612C10.6092 1.26507 10.5597 1.26507 10.6586 1.28483C10.9157 1.34413 10.7871 1.50227 10.7674 1.59122C10.6883 1.86795 11.2519 1.3639 11.2716 1.57145C11.2716 1.6011 11.2716 1.59122 11.2716 1.61098C11.2123 2.00631 11.2716 1.8383 11.3507 2.0162C11.4298 2.20398 11.6276 2.20398 11.499 2.41153C11.3211 2.69815 11.3903 2.75745 11.6276 2.81675C11.6276 2.88593 11.6078 2.92546 11.5979 2.98476C11.5089 3.28126 11.331 3.01441 11.1728 3.0243C11.0047 3.04406 10.975 3.09348 10.797 3.03418C10.797 2.86616 10.8662 2.86616 10.9651 2.76733C11.0146 2.71791 11.0146 2.70803 11.0937 2.67838C11.2123 2.63885 11.1332 2.67838 11.2024 2.57955C11.0937 2.5499 11.0244 2.64873 10.8366 2.65861C10.6586 2.65861 10.6191 2.65861 10.5301 2.80686C10.3125 2.82663 10.3719 2.70803 10.2532 2.68826C10.2236 2.68826 10.1939 2.68826 10.1741 2.69815C10.095 2.74756 10.1543 2.74756 10.0258 2.79698C10.1939 2.82663 10.1148 2.77721 10.2334 2.86616C10.1642 3.09348 10.0159 3.15278 10.3125 3.21208C10.362 3.22196 10.5597 3.15278 10.5202 3.25161C10.5202 3.25161 10.5103 3.27138 10.5004 3.28126L10.2137 3.45916C10.1543 3.47893 10.1346 3.48881 10.095 3.4987L9.86761 3.59753C9.77863 3.64695 9.81818 3.69636 9.70941 3.70625C9.6402 3.70625 9.63031 3.6766 9.61054 3.63706L9.59076 3.59753C9.59076 3.59753 9.5611 3.558 9.54133 3.50858C9.21504 3.50858 9.28425 3.53823 9.08651 3.6766C9.00741 3.72601 9.03707 3.70625 8.98763 3.7952C8.91842 3.92368 8.91842 3.98298 8.77011 4.01263C8.65146 4.0324 8.6218 4.12135 8.57236 4.23006C8.49326 4.23006 8.42405 4.19053 8.35484 4.23995C8.3054 4.2696 8.33506 4.2696 8.27574 4.30913C7.89013 4.5068 7.9099 4.73411 7.87035 4.80329L7.63305 5.10968C7.54407 5.19863 7.3562 5.24804 7.28699 5.30734C7.23756 5.35676 7.21778 5.40618 7.14857 5.44571C7.02003 5.52478 7.03981 5.46548 6.91127 5.61373C6.82228 5.72244 6.78273 5.63349 6.72341 5.82128L6.56521 6.20673C6.53555 6.29568 6.56521 6.33521 6.62453 6.38463C6.60476 6.46369 6.59487 6.42416 6.5751 6.50323C6.53555 6.61194 6.52566 6.74043 6.44656 6.83926C6.36746 6.83926 6.39712 6.84914 6.34769 6.79973C6.3378 6.78984 6.29825 6.74043 6.29825 6.73054C6.27847 6.67124 6.29825 6.71078 6.29825 6.63171C6.29825 6.49334 6.24881 6.63171 6.29825 6.35498L6.27847 6.33521C6.27847 6.33521 6.27847 6.33521 6.26859 6.33521C6.19937 6.25614 6.30814 6.17708 6.29825 6.05848C6.14005 5.93988 5.97196 5.95964 5.7841 5.97941C5.73466 6.10789 5.71489 6.10789 5.64568 6.19684C5.59624 6.25614 5.63579 6.29568 5.57647 6.30556C5.49737 6.32533 5.53692 6.24626 5.53692 6.20673C5.53692 6.09801 5.3886 6.11778 5.30951 6.11778C5.17108 6.11778 4.87446 6.56253 4.82502 6.66136L4.6866 6.89856C4.62727 6.96774 4.59761 7.08634 4.54817 7.17529C4.51851 7.23459 4.50862 7.22471 4.48885 7.31366C4.46907 7.39273 4.45919 7.57063 4.4493 7.68923L4.3702 8.15374C4.3702 8.22292 4.36031 8.25257 4.38009 8.30199C4.42952 8.35141 4.56795 8.38106 4.65693 8.32176C4.73603 8.27234 4.77558 8.18339 4.8448 8.12409C4.95356 8.03514 4.9239 7.98572 4.98322 7.89677C5.01288 7.84736 5.03266 7.81771 5.06232 7.77817C5.09198 7.72876 5.09198 7.68923 5.15131 7.68923C5.20074 7.68923 5.27984 7.73864 5.29962 7.78806C5.29962 7.92642 5.23041 7.91654 5.17108 7.98572C5.12164 8.05491 5.11176 8.13397 5.09198 8.22292C5.05243 8.37117 5.01288 8.34152 4.98322 8.43047C4.86457 8.75662 4.88435 8.60837 4.99311 8.74674C5.02277 8.78627 5.01288 8.78627 5.04254 8.83569C5.19086 8.86534 5.23041 8.74674 5.32928 8.78627C5.39849 8.82581 5.35894 8.80604 5.3886 8.88511C5.39849 8.92464 5.40838 8.92464 5.42815 8.97406C5.4677 9.12231 5.39849 9.45834 5.34905 9.59671C5.30951 9.69554 5.27984 9.69554 5.30951 9.78449C5.33917 9.88332 5.31939 9.88332 5.33917 9.97227C5.34906 10.0217 5.3886 10.0909 5.41827 10.1403C5.4677 10.2194 5.47759 10.2391 5.57647 10.2391C5.61602 10.1798 5.61602 10.1008 5.69512 10.0909L5.90275 10.0711C5.97196 10.2095 6.0214 10.2095 6.1796 10.1699C6.4169 10.1008 6.32791 10.0019 6.43667 9.89321C6.45645 9.87344 6.43667 9.89321 6.46634 9.86356L6.52566 9.81414C6.60476 9.76472 6.72341 9.75484 6.78273 9.69554L6.84206 9.64612C6.84206 9.64612 6.82228 9.64612 6.89149 9.59671C6.96071 9.57694 7.01014 9.59671 7.03981 9.66589C7.07936 9.75484 7.03981 9.73507 7.13868 9.80426C7.31665 9.71531 7.23756 9.66589 7.3562 9.59671C7.45508 9.65601 7.38587 9.67577 7.5144 9.62636C7.56384 9.70542 7.5144 9.72519 7.56384 9.77461C7.60339 9.82402 7.56384 9.78449 7.62317 9.79437C7.68249 9.79437 7.80114 9.85367 7.8308 9.93274C7.87035 10.0415 7.88024 10.0909 8.01866 9.95251L8.0681 9.90309C8.0681 9.90309 8.1472 9.89321 8.20652 9.88332C8.3054 9.87344 8.24607 9.88332 8.31529 9.83391C8.39439 9.87344 8.31529 9.87344 8.41416 9.87344H8.6218C8.75033 9.87344 8.73056 9.82402 8.76022 9.82402C8.86898 9.82402 8.88876 10.0217 8.88876 10.1008L9.01729 10.1304C9.04696 10.2391 9.03707 10.3775 9.06673 10.4071C9.09639 10.4368 9.11617 10.4566 9.15572 10.4763C9.15572 10.4763 9.18538 10.4763 9.20516 10.4862C9.30403 10.5159 9.38313 10.674 9.42268 10.7728C9.46223 10.8815 9.482 10.931 9.59076 10.9507C9.6402 10.9507 9.63031 10.9507 9.67975 10.9507C9.74896 10.9507 9.76874 10.9507 9.82806 10.9507C10.0555 10.9112 10.1247 10.9804 10.2334 11.0199C10.2532 11.0199 10.273 11.0199 10.3027 11.0397L10.7278 11.2077C10.7278 11.2769 10.7278 11.3559 10.7674 11.4054C10.797 11.4548 10.8564 11.4647 10.8267 11.5536C10.7575 11.7216 10.7476 11.4943 10.7476 11.9489C10.7773 11.9489 10.8267 11.9489 10.8366 11.9489C10.9355 11.9885 10.9651 11.9687 11.0739 11.9885C11.1332 12.285 11.2617 11.9489 11.331 12.3838C11.4694 12.4629 11.4892 12.3838 11.6276 12.4629C11.9143 12.6309 11.8945 12.5617 12.0428 12.5815C12.1516 12.6012 12.0824 12.6012 12.1615 12.6507C12.2801 12.7297 12.2604 12.6605 12.3494 12.8286L12.4581 12.7989L12.5669 12.8879C12.6163 12.9274 12.6064 12.9373 12.6756 12.9669C12.7547 12.9274 12.7646 12.8483 12.8536 12.8879C12.8635 12.9175 12.8338 12.9472 12.8042 12.957C12.8734 12.9966 12.8536 12.957 12.8833 13.0361C12.9624 13.0262 13.0019 13.0361 13.081 13.0262C13.1799 13.0262 13.437 13.0855 13.4765 13.1942C13.5952 13.1942 13.7336 13.2239 13.7633 13.3425C13.961 13.3425 13.8819 13.3623 13.9907 13.4018C14.0698 13.4314 14.1192 13.4216 14.1884 13.471C14.2576 13.5204 14.4653 13.6686 14.4554 13.7675C14.4059 13.8861 14.2873 13.9948 14.1686 14.0244C13.9017 14.1134 14.0401 14.143 13.8325 14.232C13.6743 14.3012 13.7732 14.2814 13.6941 14.3605C13.6248 14.4297 13.5853 14.3704 13.5655 14.4988C13.5556 14.5779 13.5754 14.5483 13.5359 14.6174C13.526 14.6372 13.526 14.6372 13.5062 14.657C13.3974 14.8546 13.3579 14.7064 13.3084 14.8151C13.2195 15.0029 13.2689 14.9634 13.0909 15.1412C13.1206 15.2697 13.1107 15.418 13.1601 15.5168C13.1799 15.5563 13.2195 15.6156 13.1997 15.6749C13.1799 15.7244 13.1799 15.6749 13.1601 15.7441C13.1502 15.7935 13.1601 15.8034 13.1601 15.843C13.1502 15.9418 13.1107 15.9023 13.081 15.9714C13.0514 16.0703 13.1107 16.0604 13.0415 16.1493C13.0019 16.1988 12.992 16.2284 12.9525 16.2778C12.9129 16.3371 12.9129 16.3865 12.8734 16.4261C12.7547 16.5051 12.4977 16.6139 12.3395 16.6139C12.3395 16.7028 12.3395 16.6929 12.2999 16.7522C12.201 16.7522 12.0923 16.7325 12.0132 16.772C11.9143 16.8313 11.7166 16.8708 11.6177 16.9202C11.499 16.9795 11.5287 17.0586 11.5386 17.1673C11.5683 17.4144 11.6474 17.5034 11.4298 17.6022C11.3013 17.6516 11.3507 17.622 11.3112 17.7109C11.2815 17.7702 11.2222 17.7999 11.2123 17.8592C11.2024 17.9185 11.242 17.9876 11.2123 18.0272C11.1728 18.0865 11.1629 18.0667 11.0838 18.0964C11.0244 18.126 11.0244 18.1359 10.9651 18.1557C10.975 18.215 11.0343 18.3138 10.9948 18.383C10.9552 18.4522 10.9552 18.3929 10.9058 18.4917C10.8761 18.551 10.8959 18.5905 10.8168 18.5905C10.6685 18.5905 10.5004 18.4027 10.4312 18.5016C10.4114 18.5806 10.5103 18.6696 10.5597 18.7289C10.6092 18.7783 10.6388 18.8969 10.6388 18.9859C10.4015 19.0748 10.5993 19.055 10.4015 19.1143C10.4015 19.1143 10.4015 19.1143 10.3916 19.1143H10.1346C10.0159 19.0946 10.0456 19.1341 10.0555 19.2626C10.0555 19.5789 10.1148 19.4701 9.85773 19.4701C9.92694 19.5393 9.99615 19.6085 9.99615 19.7172C9.94671 19.737 9.92694 19.7469 9.85773 19.7568C9.88739 19.8259 9.90716 19.8161 9.91705 19.8754C9.92694 19.9445 9.83795 20.1126 10.0159 20.1719C10.1049 20.2015 10.1741 20.2015 10.1939 20.3201C10.2137 20.3893 10.1741 20.4881 10.1642 20.5672C10.1543 20.6561 10.2137 20.7253 10.2829 20.755C10.3521 20.7945 10.4213 20.8439 10.4609 20.8736C10.5696 20.9625 10.5795 20.8933 10.6784 20.9724C10.7278 21.0119 10.8366 21.0614 10.8564 21.1207C10.797 21.1404 10.6685 21.1404 10.5894 21.1404C10.4609 21.1404 10.3323 21.0712 10.1939 21.0218C10.0654 20.9724 9.97637 20.9625 9.8775 20.8637C9.83795 20.8242 9.7984 20.7945 9.73908 20.7649C9.53144 20.6463 9.482 20.5079 9.37324 20.4486C9.21504 20.3596 9.26448 20.3102 9.16561 20.1916C9.12606 20.1323 9.08651 20.1126 9.05684 20.0631C8.96786 19.8754 9.05684 19.8754 8.87887 19.7963C8.76022 19.737 8.73056 19.6382 8.66135 19.5393C8.61191 19.48 8.6218 19.5393 8.63168 19.4701C8.63168 19.3911 8.63168 19.4701 8.66135 19.401C8.53281 19.3219 8.55258 19.1638 8.51303 19.0946C8.44382 18.9562 8.37461 18.976 8.29551 18.8376C8.23619 18.7289 8.3054 18.5905 8.3054 18.4719C8.3054 18.3731 8.29551 18.4719 8.26585 18.3731C8.23619 18.2644 8.29551 18.2545 8.20652 18.1458C8.13731 18.0469 8.12742 18.1161 8.07799 17.9876C7.99889 17.7702 7.90001 17.5824 7.88024 17.3353C7.87035 17.2069 7.85058 17.197 7.8308 17.0981C7.81103 16.9993 7.86046 16.9697 7.9099 16.9301L7.79125 16.6139C7.7517 16.4557 7.70226 16.4458 7.72204 16.3075C7.73193 16.1889 7.71215 16.2284 7.70226 16.1395C7.68249 15.9813 7.66272 15.8528 7.56384 15.7441C7.46497 15.6354 7.45508 15.5069 7.28699 15.4773C6.96071 15.418 7.13868 15.3488 6.96071 15.2598C6.90138 15.2302 6.94093 15.25 6.89149 15.2203C6.77285 15.1314 6.74318 15.1709 6.63442 15.0523L6.46634 14.8546C6.38724 14.7657 6.34769 14.5977 6.2587 14.4988C6.12027 14.3506 6.20926 14.3506 6.14005 14.2221C6.12028 14.1727 6.1005 14.1628 6.07084 14.1134C5.90275 13.8169 6.01151 14.0047 5.9423 13.807C5.90275 13.6884 5.82365 13.7378 5.79399 13.5303C5.77421 13.4216 5.77421 13.4611 5.705 13.4117C5.64568 13.3721 5.60613 13.1646 5.60613 13.0855C5.58635 12.8483 5.79399 13.0855 5.75444 12.8187C5.64568 12.7396 5.61602 12.789 5.58635 12.6111C5.57647 12.5617 5.55669 12.5024 5.55669 12.453C5.55669 12.3542 5.57647 12.4135 5.55669 12.3047C5.66545 12.2059 5.66545 12.1268 5.71489 12.0082C5.74455 11.9391 5.75444 11.9687 5.81376 11.8205C5.83354 11.7513 5.83354 11.7908 5.87309 11.7414C5.92253 11.6821 5.91264 11.6228 5.97196 11.5536C6.04118 11.4745 6.00163 11.5734 6.03129 11.4449C6.06095 11.2769 6.03129 11.0594 6.05106 10.8618C6.06095 10.7135 6.05106 10.7333 6.0214 10.6147C5.97196 10.6147 5.9423 10.6048 5.90275 10.6048C5.79399 10.6048 5.8632 10.6542 5.76433 10.6345C5.67534 10.6246 5.63579 10.585 5.59624 10.7234C5.48748 10.7036 5.41827 10.6246 5.36883 10.5455L5.22052 10.3182C5.14142 10.2095 5.11176 10.2688 5.06232 10.081C5.03266 9.95251 5.06232 9.83391 4.97333 9.72519C4.81513 9.53741 4.81513 9.39904 4.73603 9.29032C4.66682 9.20137 4.56795 9.17172 4.5284 9.11242C4.45919 9.01359 4.46907 8.91476 4.42952 8.84557C4.32076 8.86534 4.34054 9.00371 4.11313 8.97406C3.99448 8.85546 4.06369 8.80604 3.98459 8.68744C3.92526 8.58861 3.87583 8.53919 3.86594 8.39094C3.86594 8.29211 3.84617 8.13397 3.86594 8.07467L3.78684 8.01537ZM8.87887 9.55717L8.75033 9.68566L8.71078 9.58682C8.78988 9.61647 8.77999 9.45834 8.87887 9.55717ZM7.85058 8.13397C7.989 8.13397 8.01866 8.08456 8.13731 8.14386C8.08787 8.43047 7.95934 8.37117 7.85058 8.31187C7.85058 8.19327 7.86046 8.24269 7.85058 8.12409V8.13397ZM7.5935 8.09444C7.64294 8.16362 7.63305 8.10432 7.63305 8.22292C7.58362 8.25257 7.60339 8.24269 7.57373 8.26246L7.5144 8.29211C7.5144 8.29211 7.5144 8.29211 7.48474 8.31187L7.4353 8.41071C7.2771 8.41071 7.33643 8.36129 7.18812 8.36129C7.08924 8.36129 7.00026 8.36129 6.91127 8.35141C6.83217 8.11421 6.84206 8.26246 6.79262 8.14386C6.93104 8.10432 6.90138 8.07468 7.03981 8.04503C7.16834 8.02526 7.16834 7.94619 7.26722 7.93631C7.29688 7.93631 7.52429 7.97584 7.54407 7.99561C7.58362 8.02526 7.56384 8.04502 7.60339 8.09444H7.5935ZM6.1796 7.76829L6.12028 7.67934C6.12028 7.67934 6.00163 7.47179 5.97196 7.45203C5.91264 7.42238 5.82365 7.47179 5.7841 7.49156C5.61602 7.58051 5.67534 7.36308 5.76433 7.31366C5.85331 7.26424 6.04118 7.26424 6.04118 7.26424C6.09061 7.24448 6.06095 7.20494 6.2587 7.15553C6.29825 7.23459 6.27847 7.25436 6.2587 7.34331C6.30814 7.40261 6.36746 7.46191 6.42679 7.52121C6.496 7.58051 6.45645 7.56074 6.53555 7.59039L6.64431 7.65957C6.64431 7.65957 6.69375 8.03514 6.42679 8.00549C6.38724 7.86713 6.36746 7.92642 6.40701 7.78806H6.1796V7.76829ZM6.20926 8.61826C6.20926 8.61826 6.20926 8.56884 6.22904 8.55896C6.26859 8.52931 6.23892 8.53919 6.28836 8.55896C6.30814 8.62814 6.2587 8.67756 6.20926 8.62814V8.61826Z" fill="white"/>
<path d="M25.2229 9.06301L25.2624 9.18161C25.2624 9.18161 25.2624 9.18161 25.2921 9.22114C25.3217 9.06301 25.2822 9.07289 25.2426 8.96418C25.2229 8.90488 25.2426 8.85546 25.2328 8.81593C25.213 8.71709 25.213 8.77639 25.1438 8.73686C25.1932 8.59849 25.1438 8.50954 25.1042 8.43048L24.8966 8.01538C24.8471 8.18339 25.1339 8.60838 25.1734 8.91476C25.1734 8.97406 25.2031 9.01359 25.2229 9.05313V9.06301Z" fill="white"/>
<path d="M19.1421 1.52203C19.1421 1.52203 19.1124 1.52203 19.0828 1.49238C19.0135 1.43308 19.1124 1.47261 18.9641 1.4232C18.8652 1.39355 18.8751 1.27495 18.7762 1.28483C18.7762 1.33425 18.7861 1.3639 18.8257 1.38366C18.9048 1.44296 18.8059 1.34413 18.9246 1.46273C18.974 1.51215 19.0926 1.55168 19.1915 1.55168C19.1619 1.51215 19.1915 1.53191 19.152 1.51215L19.1421 1.52203Z" fill="white"/>
<path d="M14.3269 70.2605C6.43672 70.2605 0.00988744 68.9263 0 67.592V68.1653C0 69.8949 6.40706 71.9901 14.3071 71.9901C22.2072 71.9901 28.6142 69.964 28.6142 68.1653V67.592C28.6044 68.9263 22.227 70.2605 14.3368 70.2605H14.3269Z" fill="white"/>
<path d="M19.5178 62.0771C22.1676 62.6603 26.0435 65.3782 26.0633 66.238C26.0633 67.3252 21.4458 67.8885 14.3269 67.8885C7.20794 67.8885 2.51141 67.3153 2.54107 66.238C2.54107 66.2281 2.54107 66.2183 2.54107 66.2084C2.58062 65.4474 5.93246 62.68 8.8097 62.0771C5.68528 62.4329 0.0395497 65.7142 0 66.5741C0 66.5839 0 66.5938 0 66.6037C0 67.938 6.42683 69.2722 14.3269 69.2722C22.227 69.2722 28.6044 67.938 28.6044 66.6037C28.5747 65.6253 22.2368 62.3736 19.5178 62.0771Z" fill="white"/>
<path d="M24.0166 27.1989C19.3596 23.1863 12.211 23.9572 12.211 23.9572V27.0408C18.796 26.3193 29.0295 33.5737 24.8274 45.3941C24.6 46.0266 24.0759 47.351 23.3542 48.4975C26.4588 41.5989 24.9559 33.7219 19.4091 30.1046C17.2338 28.6913 14.7323 28.0884 12.1912 28.2169V30.8557C14.0501 31.0238 15.8298 31.429 17.4415 32.4865C28.0309 39.4048 21.7227 50.227 19.8046 53.3304C19.8342 53.2909 26.9037 40.5216 17.4019 33.8603C15.642 32.6249 13.4272 31.933 11.3706 31.9726V34.6114C12.9427 34.7794 14.4555 35.323 15.8002 36.2619C21.1987 40.0373 21.5942 48.5074 17.6689 55.7518C17.5403 55.9791 16.7493 57.2343 16.5417 57.5308C16.2846 57.8965 15.9682 58.3314 15.6123 58.8157C19.3695 52.8165 20.734 45.5028 18.6181 40.9565C17.6194 38.8217 15.9979 36.9834 14.0501 36.6671V39.4443C15.1674 39.9484 16.0869 40.8675 16.7296 42.2413C19.0037 47.1138 17.2833 55.6629 12.824 62.1859C12.4088 62.6306 11.9836 63.0754 11.5387 63.5004C11.1432 63.8463 10.7674 64.1724 10.3917 64.4788V65.7043C16.0572 61.4051 40.4891 41.3914 24.0463 27.2088L24.0166 27.1989Z" fill="white"/>
<path d="M207.854 23.7793H211.571C213.035 16.5644 217.276 14.4692 221.419 14.6668C225.394 14.8546 229.299 17.7307 229.517 22.3264C229.517 30.1244 221.014 30.6581 211.354 42.1524C207.32 46.9655 204.749 51.4723 203.256 54.3978H233.887C232.849 53.9333 230.862 52.8857 229.151 50.7509C227.54 48.7544 226.926 46.7382 226.669 45.6511H222.517C222.517 45.6511 222.695 47.2917 223.318 48.6754C223.94 50.059 224.85 51.2648 224.85 51.2648H209.317C211.077 48.7544 213.104 46.1255 215.447 43.4668C220.865 37.2898 226.897 34.4236 231.346 29.1756C237.694 24.6589 249.114 25.7164 253.662 33.0399C258.072 40.1263 256.796 49.4463 247.898 54.3978H254.463C260.801 48.0428 261.819 38.0607 256.945 30.6284C253.296 24.649 242.114 20.0533 233.68 23.631L235.064 14.6668H256.648V10.6542H231.415L230.832 15.5366C227.52 11.6327 222.329 9.92286 217.553 11.1583C212.026 12.6012 207.992 17.7504 207.854 23.7694V23.7793Z" fill="white"/>
<path d="M223.515 40.2548L223.179 40.4228L222.823 40.5908C222.606 40.6995 222.378 40.8082 222.141 40.917C221.676 41.1245 221.212 41.3222 220.737 41.5297C220.262 41.7175 219.798 41.9152 219.313 42.0733C218.839 42.2512 218.344 42.3995 217.86 42.5378C217.81 42.5477 217.741 42.5774 217.682 42.5971C217.613 42.607 217.563 42.6367 217.494 42.6465L217.306 42.7058C217.257 42.7157 217.187 42.7355 217.128 42.7454C216.871 42.8146 216.624 42.864 216.357 42.8936C216.1 42.9332 215.843 42.9529 215.566 42.9332C215.427 42.9233 215.289 42.9035 215.16 42.8739C215.012 42.8343 214.874 42.7948 214.735 42.7058C214.597 42.6367 214.478 42.5279 214.379 42.3896C214.281 42.271 214.211 42.103 214.192 41.9547C214.162 41.8065 214.162 41.6384 214.182 41.4902C214.192 41.3518 214.241 41.2036 214.281 41.0652C214.379 40.8082 214.508 40.5612 214.676 40.3338C214.755 40.2152 214.844 40.1164 214.953 40.0077C215.052 39.9089 215.17 39.8199 215.289 39.7211C215.319 39.7112 215.348 39.7112 215.388 39.7211C215.398 39.7211 215.418 39.7211 215.427 39.731C215.437 39.731 215.457 39.7408 215.467 39.7408C215.536 39.7804 215.576 39.8496 215.586 39.9089C215.615 39.9484 215.625 40.0275 215.625 40.0868V40.1263C215.625 40.1263 215.625 40.1559 215.615 40.1658C215.615 40.1955 215.605 40.2054 215.586 40.2152C215.507 40.2548 215.418 40.324 215.338 40.403C215.259 40.4722 215.17 40.5513 215.111 40.6501C214.963 40.828 214.854 41.0356 214.775 41.2332C214.696 41.4309 214.656 41.6582 214.676 41.8559C214.686 41.9547 214.716 42.0338 214.775 42.1128C214.814 42.182 214.884 42.2512 214.983 42.3006C215.062 42.3599 215.16 42.3995 215.269 42.4192C215.299 42.4291 215.329 42.4291 215.348 42.4489H215.427C215.427 42.4489 215.477 42.4785 215.507 42.4785H215.605C215.833 42.5082 216.08 42.5082 216.327 42.4785C216.555 42.4686 216.802 42.4192 217.049 42.3698C217.296 42.3303 217.543 42.271 217.781 42.2018C218.255 42.0535 218.72 41.8756 219.195 41.6879C219.659 41.5001 220.124 41.2925 220.569 41.0751C221.014 40.8577 221.479 40.6402 221.933 40.4129C222.151 40.2943 222.368 40.1856 222.596 40.0571L222.922 39.8792L223.258 39.7013C223.337 39.6618 223.486 39.8001 223.545 39.8891C223.585 39.9879 223.614 40.1856 223.535 40.2251L223.515 40.2548ZM217.009 38.2583C217.009 38.2583 217.019 38.2583 217.019 38.2485H217.009V38.2583Z" fill="white"/>
<path d="M232.948 40.2054C232.345 40.8082 231.682 41.3518 230.961 41.7669C230.773 41.8756 230.595 41.9745 230.407 42.0634C230.219 42.1623 230.011 42.2413 229.824 42.3204C229.428 42.4686 229.023 42.5971 228.617 42.6762C228.192 42.7849 227.777 42.8442 227.352 42.8541C226.917 42.8541 226.482 42.8146 226.056 42.6861C225.839 42.6268 225.631 42.5477 225.443 42.439C225.236 42.3402 225.048 42.2117 224.87 42.0535C224.791 41.9844 224.702 41.9053 224.623 41.8065C224.583 41.7669 224.554 41.7274 224.514 41.6681L224.455 41.5989V41.5594L224.415 41.5297C224.356 41.4507 224.316 41.3815 224.296 41.3024C224.188 41.421 224.069 41.5495 223.96 41.6582C223.822 41.7966 223.683 41.9349 223.535 42.0535C223.397 42.1919 223.248 42.3105 223.09 42.4192L223.031 42.4588L222.981 42.4983C222.981 42.4983 222.902 42.5576 222.843 42.5774C222.803 42.607 222.764 42.6268 222.724 42.6564C222.685 42.6663 222.645 42.696 222.586 42.7256C222.487 42.7651 222.398 42.8047 222.299 42.8343C222.19 42.864 222.082 42.8936 221.963 42.8739C221.914 42.8739 221.844 42.864 221.775 42.8442C221.765 42.8343 221.746 42.8343 221.746 42.8343C221.736 42.8244 221.716 42.8244 221.716 42.8244H221.686V42.7948H221.657L221.627 42.7553C221.617 42.7553 221.597 42.7454 221.587 42.7256C221.577 42.7157 221.558 42.696 221.558 42.6861L221.518 42.6564C221.518 42.6564 221.488 42.607 221.469 42.5774C221.469 42.5675 221.459 42.5477 221.459 42.5378C221.449 42.5279 221.449 42.5082 221.429 42.4785V42.439C221.429 42.439 221.419 42.4093 221.399 42.3995C221.37 42.2809 221.39 42.1524 221.399 42.0634C221.429 41.9547 221.459 41.846 221.498 41.7669C221.577 41.5791 221.676 41.4012 221.775 41.2332C221.884 41.0652 222.003 40.917 222.131 40.7687C222.26 40.6205 222.388 40.4821 222.527 40.3437C222.675 40.2054 222.813 40.0868 222.972 39.9583C223.12 39.8496 223.288 39.7408 223.446 39.6321C223.525 39.5728 223.624 39.5333 223.703 39.4938C223.763 39.4641 223.802 39.4345 223.842 39.4246C223.891 39.3949 223.941 39.385 223.99 39.3653C224.089 39.3257 224.178 39.2961 224.287 39.2664C224.395 39.2368 224.504 39.2269 224.623 39.2269C224.732 39.2269 224.87 39.2566 224.989 39.2961C225.107 39.3356 225.236 39.4147 225.325 39.5036C225.335 39.5333 225.335 39.5531 225.335 39.5827C225.335 39.6124 225.325 39.642 225.305 39.6618C225.275 39.731 225.226 39.7804 225.186 39.81C225.147 39.8397 225.078 39.8693 225.008 39.8891C224.979 39.899 224.949 39.9187 224.939 39.9187C224.909 39.9286 224.9 39.9286 224.9 39.9187C224.86 39.8891 224.821 39.8496 224.761 39.8397C224.722 39.81 224.652 39.8001 224.593 39.8001C224.455 39.7903 224.296 39.81 224.128 39.8594C224.099 39.8693 224.059 39.8891 224.02 39.899C223.98 39.9089 223.941 39.9286 223.901 39.9583C223.822 39.9879 223.753 40.0275 223.674 40.067C223.525 40.1362 223.357 40.235 223.229 40.324C223.08 40.4327 222.932 40.5414 222.794 40.6501C222.655 40.7588 222.537 40.8774 222.398 41.0158C222.279 41.1344 222.171 41.2728 222.062 41.4111C221.953 41.5594 221.854 41.6977 221.785 41.8559C221.755 41.9349 221.726 42.0041 221.726 42.0832C221.716 42.1623 221.716 42.2314 221.726 42.2907C221.726 42.3006 221.736 42.3204 221.736 42.3303C221.736 42.3303 221.739 42.3402 221.746 42.3599H221.755C221.755 42.3599 221.785 42.4291 221.805 42.439H221.815L221.844 42.4686H221.854C221.854 42.4686 221.854 42.4686 221.854 42.4785H221.923C221.993 42.4785 222.062 42.4686 222.141 42.439C222.21 42.4093 222.289 42.3797 222.359 42.3402C222.507 42.2611 222.645 42.1524 222.784 42.0437C222.922 41.9349 223.061 41.8163 223.179 41.6879C223.298 41.5495 223.426 41.4309 223.545 41.2925C223.772 41.0158 224.01 40.7391 224.227 40.4327C224.267 40.3833 224.445 40.4623 224.544 40.5117C224.603 40.5513 224.652 40.6303 224.682 40.6896C224.682 40.6995 224.692 40.6995 224.692 40.7193C224.761 41.0553 224.939 41.3815 225.196 41.6483C225.453 41.9152 225.799 42.0931 226.165 42.2216C226.531 42.3402 226.917 42.4093 227.312 42.4291C227.708 42.439 228.113 42.4192 228.509 42.3303C229.28 42.1425 230.031 41.7966 230.704 41.3518C231.04 41.1344 231.356 40.8873 231.653 40.6205C231.949 40.3635 232.236 40.0769 232.513 39.7804C232.562 39.731 232.74 39.81 232.829 39.8891C232.908 39.9583 232.997 40.1164 232.938 40.1757L232.948 40.2054ZM221.874 42.5477C221.874 42.5477 221.844 42.5576 221.864 42.5576C221.864 42.5576 221.864 42.5477 221.874 42.5477Z" fill="white"/>
<path d="M243.379 40.3042C242.796 40.7391 242.183 41.164 241.54 41.5297C241.224 41.7076 240.897 41.8855 240.571 42.0437C240.235 42.1919 239.889 42.3402 239.553 42.4686C239.454 42.4983 239.375 42.5279 239.276 42.5477C239.236 42.5576 239.197 42.5773 239.157 42.5872L239.019 42.6268C239.019 42.6268 238.92 42.6564 238.88 42.6663C238.841 42.6762 238.782 42.6762 238.742 42.696C238.643 42.7256 238.564 42.7355 238.465 42.7552C238.366 42.7849 238.277 42.7948 238.178 42.8145C238.099 42.8244 238 42.8244 237.902 42.8442C237.714 42.8541 237.516 42.8541 237.328 42.8442C237.14 42.8343 236.933 42.7849 236.755 42.7256L236.676 42.696C236.676 42.696 236.636 42.6861 236.606 42.6663L236.537 42.6366L236.478 42.607C236.478 42.607 236.428 42.5773 236.409 42.5675L236.339 42.5378C236.339 42.5378 236.26 42.4785 236.221 42.4587C236.053 42.35 235.904 42.2117 235.786 42.0634C235.667 41.9152 235.558 41.7669 235.459 41.5989C235.36 41.4309 235.281 41.2728 235.202 41.1047C235.163 41.0257 235.123 40.9367 235.084 40.8577C235.044 40.7885 235.005 40.7094 234.945 40.6402C234.906 40.571 234.846 40.5216 234.807 40.4722C234.777 40.4426 234.747 40.4327 234.728 40.4228H234.678C234.678 40.4228 234.569 40.4327 234.49 40.4623C234.421 40.492 234.352 40.5315 234.273 40.571C234.134 40.6699 233.986 40.7588 233.848 40.8675C233.709 40.9762 233.571 41.0948 233.442 41.2036C233.185 41.4506 232.928 41.6977 232.671 41.9349C232.414 42.1919 232.157 42.4489 231.9 42.696L231.801 42.8047L231.752 42.8442L231.722 42.8739C231.722 42.8739 231.692 42.9035 231.682 42.9035C231.672 42.9134 231.653 42.9331 231.623 42.943C231.613 42.9529 231.593 42.9529 231.593 42.9529C231.583 42.9628 231.564 42.9628 231.564 42.9628C231.564 42.9628 231.554 42.9661 231.534 42.9727H231.435C231.435 42.9727 231.376 42.9727 231.356 42.9628C231.317 42.9529 231.287 42.9233 231.257 42.9035C231.218 42.8442 231.208 42.8047 231.188 42.7849V42.7552L231.178 42.7157V42.607C231.178 42.607 231.188 42.5675 231.188 42.5477C231.188 42.518 231.198 42.4884 231.198 42.4686C231.228 42.3698 231.267 42.2809 231.297 42.182C231.336 42.103 231.366 42.0041 231.406 41.925C231.544 41.589 231.692 41.2629 231.85 40.917C232.019 40.5908 232.177 40.2647 232.365 39.9484C232.434 39.8298 232.651 39.8298 232.75 39.8891C232.829 39.9484 232.938 40.1362 232.889 40.2449C232.701 40.5414 232.523 40.8577 232.355 41.1739C232.216 41.421 232.098 41.678 231.969 41.9349C232.088 41.8163 232.197 41.7076 232.325 41.5989C232.602 41.3518 232.869 41.1047 233.156 40.8774C233.294 40.7687 233.442 40.6501 233.591 40.5414C233.739 40.4327 233.887 40.324 234.055 40.2251C234.134 40.1856 234.233 40.1461 234.332 40.1065C234.362 40.0966 234.382 40.0966 234.401 40.0769C234.431 40.067 234.461 40.067 234.481 40.0472C234.53 40.0373 234.589 40.0176 234.658 40.0176C234.728 40.0176 234.797 40.0275 234.876 40.0571H234.886L234.916 40.0868L234.955 40.1164C234.955 40.1164 234.995 40.1559 235.024 40.1757C235.103 40.2548 235.173 40.3437 235.232 40.4228C235.281 40.5019 235.331 40.5908 235.37 40.6798C235.42 40.7588 235.449 40.8478 235.489 40.9268C235.568 41.0949 235.637 41.2431 235.736 41.4012C235.815 41.5396 235.914 41.6878 236.033 41.8064C236.142 41.925 236.26 42.0338 236.399 42.1326C236.468 42.1721 236.547 42.2117 236.616 42.2512C236.656 42.2611 236.695 42.2809 236.735 42.2907L236.784 42.3204C236.784 42.3204 236.824 42.3303 236.844 42.3303C236.992 42.3797 237.16 42.4093 237.338 42.4291C237.506 42.4291 237.674 42.4291 237.842 42.4192C237.882 42.4093 237.941 42.4093 237.981 42.4093L238.099 42.3797C238.178 42.3698 238.277 42.35 238.356 42.3401C238.693 42.2611 239.039 42.1524 239.365 42.0239C239.691 41.9053 240.017 41.7472 240.334 41.589C240.65 41.4309 240.957 41.253 241.263 41.0553C241.866 40.6896 242.45 40.2647 243.003 39.8298C243.102 39.7507 243.3 39.8298 243.369 39.9089C243.439 39.9879 243.468 40.1955 243.359 40.2745L243.379 40.3042Z" fill="white"/>
<path d="M250.815 40.0966C250.815 40.0966 250.805 40.1757 250.785 40.2054C250.775 40.235 250.745 40.2548 250.716 40.2745C250.399 40.4524 250.063 40.5908 249.737 40.6995C249.411 40.8082 249.074 40.9071 248.728 40.9861C248.066 41.1542 247.364 41.2629 246.692 41.3123C246.336 41.3419 245.999 41.3518 245.643 41.3518C245.287 41.3518 244.951 41.3419 244.605 41.2826C244.427 41.2728 244.249 41.2233 244.071 41.1838C243.963 41.1542 243.854 41.1245 243.745 41.085C243.715 41.2036 243.676 41.3321 243.636 41.4507C243.567 41.6286 243.488 41.7867 243.389 41.9448C243.29 42.0931 243.181 42.2413 243.053 42.3896C242.934 42.5279 242.776 42.6465 242.608 42.7553C242.529 42.8146 242.43 42.8541 242.311 42.8739C242.252 42.8837 242.203 42.8837 242.133 42.9035C242.084 42.9035 242.015 42.8936 241.946 42.8739C241.876 42.864 241.827 42.8343 241.768 42.7948C241.758 42.7948 241.738 42.7849 241.728 42.7651L241.688 42.7355C241.688 42.7355 241.659 42.7256 241.649 42.7058C241.639 42.6861 241.639 42.6762 241.619 42.6762C241.54 42.5774 241.471 42.4686 241.431 42.3599C241.402 42.3006 241.392 42.2512 241.392 42.1919C241.382 42.1227 241.382 42.0733 241.382 42.014C241.382 41.9053 241.392 41.7966 241.412 41.6977C241.471 41.51 241.55 41.3123 241.639 41.1542C241.728 40.996 241.847 40.8379 241.975 40.6896C242.094 40.5513 242.252 40.4327 242.42 40.324C242.499 40.2647 242.588 40.2251 242.677 40.1856C242.717 40.1559 242.756 40.1461 242.796 40.1263C242.766 40.0472 242.756 39.9484 242.746 39.8496C242.746 39.7507 242.756 39.642 242.786 39.5531C242.816 39.5036 242.826 39.4443 242.855 39.385C242.895 39.3455 242.924 39.2862 242.994 39.2467C243.023 39.217 243.053 39.2071 243.092 39.1874C243.132 39.1775 243.172 39.1577 243.231 39.1775C243.31 39.1775 243.379 39.217 243.439 39.2467C243.498 39.2862 243.537 39.3455 243.557 39.385C243.597 39.4246 243.626 39.4641 243.656 39.5234C243.696 39.6025 243.725 39.6914 243.765 39.7804C243.814 39.9583 243.844 40.1461 243.864 40.3338C243.864 40.4524 243.854 40.5612 243.834 40.6896C243.943 40.7292 244.052 40.7588 244.17 40.7885C244.319 40.8181 244.487 40.8478 244.645 40.8577C244.971 40.8972 245.307 40.8972 245.634 40.8972C245.97 40.8873 246.296 40.8577 246.642 40.8181C247.305 40.7489 247.957 40.6106 248.62 40.4524C248.936 40.3536 249.262 40.2647 249.559 40.1362C249.875 40.0275 250.172 39.8891 250.439 39.731C250.469 39.7211 250.498 39.7211 250.518 39.7211C250.557 39.7211 250.587 39.731 250.627 39.7507C250.686 39.7903 250.745 39.8298 250.775 39.8891C250.805 39.9286 250.815 39.9978 250.815 40.067V40.0966ZM243.241 41.3024C243.3 41.164 243.34 41.0454 243.379 40.9071C243.35 40.8972 243.34 40.8774 243.32 40.8675C243.241 40.828 243.152 40.7588 243.102 40.6896C243.092 40.6896 243.092 40.6995 243.073 40.6995C243.013 40.6995 242.954 40.7292 242.895 40.7391C242.826 40.7687 242.776 40.8082 242.707 40.8379C242.588 40.9071 242.46 41.0059 242.371 41.1146C242.262 41.2233 242.163 41.3321 242.084 41.4704C242.005 41.589 241.946 41.7274 241.906 41.8559C241.866 41.9942 241.866 42.1128 241.896 42.2117C241.906 42.271 241.936 42.3105 241.965 42.35C241.975 42.3599 241.995 42.3599 241.995 42.3797C242.005 42.3797 242.005 42.3896 242.025 42.3896C242.035 42.3995 242.054 42.4192 242.064 42.4192C242.104 42.4291 242.143 42.4291 242.203 42.4192C242.252 42.4192 242.321 42.3896 242.381 42.3698C242.499 42.3006 242.628 42.2018 242.717 42.0931C242.826 41.9844 242.934 41.8658 243.013 41.7274C243.092 41.6088 243.181 41.4507 243.241 41.3222V41.3024ZM243.073 39.8792C243.073 39.9484 243.083 40.0176 243.102 40.0868C243.112 40.1164 243.112 40.1263 243.132 40.1559C243.162 40.1658 243.172 40.1856 243.201 40.2152C243.241 40.2647 243.27 40.3338 243.27 40.3931C243.28 40.403 243.31 40.4327 243.34 40.4623C243.35 40.492 243.399 40.5019 243.419 40.5315L243.458 40.5612V40.4129C243.458 40.2647 243.448 40.1164 243.409 39.9682C243.399 39.899 243.369 39.8199 243.33 39.7507L243.29 39.6717C243.29 39.6717 243.251 39.6124 243.231 39.6025C243.221 39.5926 243.201 39.5926 243.201 39.5926C243.191 39.5926 243.172 39.6025 243.162 39.6321C243.152 39.642 243.132 39.6717 243.122 39.7013C243.092 39.7705 243.083 39.8397 243.083 39.9089L243.073 39.8792Z" fill="white"/>
<path d="M259.001 40.3635C258.863 40.4426 258.715 40.5315 258.566 40.6106C258.497 40.6501 258.418 40.6896 258.349 40.7292L258.24 40.7984L258.131 40.8577C257.835 41.0059 257.518 41.1443 257.222 41.2629C256.599 41.5198 255.946 41.7076 255.294 41.8163C254.957 41.8756 254.631 41.9152 254.285 41.9251C253.959 41.9547 253.623 41.9547 253.296 41.9547C252.97 41.9547 252.644 41.9448 252.317 41.9448C252.149 41.9349 251.991 41.9349 251.823 41.9448H251.536C251.546 42.0634 251.546 42.1919 251.536 42.3105C251.507 42.4983 251.457 42.696 251.358 42.8541C251.259 43.032 251.151 43.1802 251.022 43.2988C250.884 43.4372 250.726 43.5262 250.548 43.6151C250.468 43.6546 250.37 43.6843 250.271 43.7139C250.172 43.7238 250.063 43.7436 249.954 43.7238C249.885 43.7139 249.836 43.6942 249.776 43.6744C249.717 43.6447 249.668 43.6151 249.628 43.5756C249.579 43.536 249.529 43.4767 249.509 43.4372L249.48 43.3977C249.48 43.3977 249.47 43.368 249.47 43.3581C249.46 43.3285 249.44 43.2988 249.43 43.2791C249.401 43.1704 249.401 43.0616 249.42 42.9529C249.44 42.8442 249.46 42.7454 249.499 42.6663C249.539 42.5675 249.598 42.4884 249.648 42.4192C249.717 42.3402 249.786 42.271 249.855 42.2117C249.994 42.0931 250.142 41.9942 250.3 41.9152C250.508 41.8163 250.735 41.7472 250.953 41.6977C250.953 41.6977 250.943 41.6879 250.943 41.6681C250.913 41.6088 250.874 41.5495 250.844 41.4902C250.805 41.421 250.765 41.3716 250.706 41.3123C250.696 41.2826 250.666 41.253 250.637 41.2332L250.597 41.1937L250.557 41.1344L250.518 41.085C250.518 41.085 250.478 41.0553 250.459 41.0257V40.996C250.459 40.996 250.419 40.9664 250.419 40.9565C250.409 40.9466 250.389 40.917 250.379 40.8972C250.33 40.7984 250.281 40.6896 250.261 40.5809C250.231 40.4722 250.231 40.3536 250.251 40.2251C250.261 40.1164 250.31 40.0077 250.35 39.9089C250.449 39.7211 250.577 39.5728 250.706 39.4443C250.745 39.4048 250.824 39.385 250.884 39.4147C250.953 39.4246 251.022 39.474 251.062 39.4938C251.091 39.5036 251.121 39.5234 251.131 39.5629C251.141 39.5728 251.141 39.5926 251.161 39.6222C251.161 39.6321 251.161 39.6618 251.17 39.6815C251.17 39.7606 251.17 39.8298 251.131 39.8693C251.081 39.9286 251.022 39.9682 250.983 40.0176C250.943 40.0769 250.904 40.1263 250.874 40.1658C250.844 40.2152 250.834 40.2745 250.815 40.3141V40.4623C250.815 40.4623 250.844 40.5612 250.874 40.6007C250.884 40.6106 250.884 40.6303 250.904 40.6402V40.6699L250.933 40.6798C250.933 40.6896 250.943 40.7094 250.963 40.7193L250.993 40.7588H251.002L251.032 40.7984L251.072 40.8577C251.072 40.8577 251.131 40.9268 251.151 40.9664C251.18 40.996 251.21 41.0356 251.23 41.0751C251.259 41.1146 251.289 41.1443 251.299 41.1838C251.378 41.3222 251.447 41.4605 251.487 41.6088C251.774 41.5791 252.041 41.5693 252.317 41.5693C252.644 41.5693 252.97 41.5693 253.296 41.5594C253.623 41.5495 253.949 41.5297 254.265 41.51C254.592 41.4803 254.908 41.4309 255.214 41.3716C255.531 41.3024 255.837 41.2233 256.144 41.1245C256.44 41.0257 256.747 40.9071 257.044 40.7885C257.33 40.6501 257.617 40.5117 257.904 40.3536L258.013 40.2943L258.111 40.235C258.181 40.1955 258.25 40.1559 258.319 40.1164C258.458 40.0176 258.606 39.9385 258.724 39.8594C258.833 39.7903 259.011 39.899 259.08 39.9978C259.14 40.0966 259.15 40.2844 259.041 40.3536L259.001 40.3635ZM251.042 42.0239C250.834 42.0634 250.637 42.1326 250.459 42.2314C250.32 42.3006 250.202 42.3797 250.093 42.4785C250.053 42.5378 249.994 42.5872 249.954 42.6465C249.915 42.7058 249.875 42.7553 249.846 42.8244C249.836 42.8739 249.806 42.9331 249.806 43.0023C249.796 43.0616 249.806 43.1111 249.816 43.1704C249.816 43.1704 249.816 43.1802 249.826 43.2C249.826 43.2099 249.826 43.2297 249.836 43.2297C249.846 43.2593 249.865 43.2692 249.875 43.289C249.885 43.289 249.905 43.2988 249.915 43.3186C249.944 43.3186 249.954 43.3285 249.984 43.3285H250.063C250.063 43.3285 250.113 43.3285 250.162 43.3186C250.221 43.3087 250.281 43.2791 250.34 43.2494C250.459 43.1901 250.587 43.111 250.676 43.0023C250.884 42.8145 251.002 42.5576 251.032 42.2907C251.042 42.2117 251.042 42.1227 251.032 42.0437L251.042 42.0239Z" fill="white"/>
</g>
<defs>
<clipPath id="clip0_2004_2">
<rect width="260" height="72" fill="white"/>
</clipPath>
</defs>
</svg>
