<svg width="160" height="22" viewBox="0 0 160 22" fill="none" xmlns="http://www.w3.org/2000/svg">
<g clip-path="url(#clip0_1_174)">
<path fill-rule="evenodd" clip-rule="evenodd" d="M34.52 9.02C35.8 9.02 36.97 9.57 37.81 10.45C38.65 11.33 39.17 12.55 39.17 13.89C39.17 15.23 38.65 16.45 37.81 17.33C36.97 18.22 35.81 18.76 34.52 18.76C33.23 18.76 32.07 18.21 31.23 17.33C30.39 16.45 29.87 15.23 29.87 13.89C29.87 12.55 30.39 11.33 31.23 10.45C32.07 9.57 33.23 9.02 34.52 9.02ZM36.48 6.43C35.58 6.01 34.59 5.78 33.55 5.78C31.5 5.78 29.64 6.68 28.3 8.14C26.95 9.61 26.11 11.64 26.11 13.89C26.11 16.14 26.95 18.17 28.3 19.64C29.64 21.1 31.5 22 33.55 22C34.7 22 35.79 21.72 36.76 21.21C37.77 20.68 38.66 19.91 39.36 18.96L39.63 18.59L43.13 21.85L45.44 19.69L42.96 17.38V0.550003H39.65V9.12L38.93 8.3C38.24 7.51 37.4 6.86 36.46 6.43H36.48ZM3.09 5.77H0V22H4.01V14.51C4.01 14.08 4.04 13.67 4.11 13.29C4.18 12.91 4.29 12.56 4.43 12.25C4.57 11.94 4.73 11.66 4.92 11.4C5.11 11.14 5.32 10.92 5.56 10.71C5.79 10.51 6.04 10.34 6.31 10.2C6.58 10.06 6.86 9.94 7.16 9.85C7.45 9.76 7.75 9.7 8.05 9.65C8.35 9.61 8.66 9.58 8.96 9.58H9.15V5.77H8.99C8.49 5.77 8.02 5.84 7.58 5.95C7.14 6.06 6.73 6.22 6.35 6.42C5.97 6.63 5.62 6.86 5.31 7.13C5.01 7.39 4.74 7.68 4.52 7.99L4.4 8.16H3.6L3.1 5.77H3.09ZM54.66 18.6C55.43 18.42 56.17 18.09 56.8 17.62L57 17.47L59.01 19.26L58.78 19.49C57.07 21.2 54.99 21.99 52.98 21.99C51.95 21.99 50.94 21.79 50.01 21.4C49.08 21.01 48.22 20.43 47.5 19.69C46.14 18.3 45.27 16.32 45.26 13.9V13.83C45.26 12.74 45.46 11.66 45.85 10.65C46.23 9.67 46.79 8.77 47.52 8.02C48.2 7.32 49.02 6.75 50 6.35C50.9 5.99 51.92 5.78 53.07 5.77H53.27C54.33 5.78 55.32 5.98 56.2 6.32C57.1 6.67 57.9 7.19 58.55 7.85C59.21 8.51 59.73 9.31 60.08 10.24C60.42 11.13 60.61 12.13 60.62 13.22V13.42C60.62 13.57 60.61 13.74 60.59 13.95C60.57 14.12 60.55 14.3 60.51 14.49C60.49 14.59 60.47 14.69 60.44 14.79C60.42 14.88 60.39 14.97 60.35 15.08L60.28 15.29H48.92L49 15.64C49.13 16.21 49.35 16.69 49.65 17.09C50.19 17.83 50.97 18.31 51.85 18.55C52.74 18.8 53.74 18.8 54.68 18.58L54.66 18.6ZM49.38 10.84C49.16 11.23 49 11.68 48.91 12.2L48.85 12.61H57.12L57.06 12.2C56.98 11.66 56.82 11.2 56.61 10.81C56.39 10.39 56.1 10.05 55.77 9.77C55.41 9.47 55 9.26 54.57 9.11C54.09 8.95 53.59 8.88 53.08 8.88C52.57 8.88 52.05 8.96 51.55 9.12C51.09 9.27 50.66 9.49 50.28 9.79C49.93 10.07 49.62 10.42 49.38 10.83V10.84ZM18.71 18.6C19.49 18.42 20.22 18.09 20.85 17.62L21.05 17.47L23.06 19.26L22.83 19.49C21.12 21.2 19.04 21.99 17.03 21.99C16 21.99 14.99 21.79 14.06 21.4C13.13 21.01 12.27 20.43 11.55 19.69C10.19 18.3 9.32 16.32 9.31 13.9V13.83C9.31 12.74 9.51 11.66 9.9 10.65C10.28 9.67 10.84 8.77 11.57 8.02C12.25 7.32 13.07 6.75 14.05 6.35C14.95 5.99 15.97 5.78 17.11 5.77H17.31C18.37 5.78 19.36 5.98 20.24 6.32C21.14 6.67 21.94 7.19 22.59 7.85C23.25 8.51 23.77 9.31 24.12 10.24C24.46 11.13 24.65 12.13 24.66 13.22V13.42C24.66 13.57 24.65 13.74 24.63 13.95C24.61 14.12 24.59 14.3 24.55 14.49C24.53 14.59 24.51 14.69 24.48 14.79C24.46 14.88 24.43 14.97 24.39 15.08L24.32 15.29H12.96L13.04 15.64C13.17 16.21 13.39 16.69 13.69 17.09C14.23 17.83 15.01 18.31 15.89 18.55C16.78 18.8 17.78 18.8 18.72 18.58L18.71 18.6ZM13.42 10.84C13.2 11.23 13.04 11.68 12.95 12.2L12.89 12.61H21.16L21.1 12.2C21.02 11.66 20.86 11.2 20.65 10.81C20.43 10.39 20.14 10.05 19.81 9.77C19.45 9.47 19.04 9.26 18.61 9.11C18.13 8.95 17.63 8.88 17.12 8.88C16.61 8.88 16.09 8.96 15.59 9.12C15.13 9.27 14.7 9.49 14.32 9.79C13.97 10.07 13.66 10.42 13.42 10.83V10.84Z" fill="black"/>
<path fill-rule="evenodd" clip-rule="evenodd" d="M126.85 5.77H123.76V22H127.77V14.51C127.77 14.08 127.8 13.67 127.87 13.29C127.94 12.91 128.05 12.56 128.19 12.25C128.33 11.94 128.49 11.66 128.68 11.4C128.87 11.14 129.08 10.92 129.32 10.71C129.55 10.51 129.8 10.34 130.07 10.2C130.34 10.06 130.62 9.94 130.92 9.85C131.21 9.76 131.51 9.7 131.81 9.65C132.11 9.61 132.42 9.58 132.72 9.58H132.91V5.77H132.75C132.25 5.77 131.78 5.84 131.34 5.95C130.9 6.06 130.49 6.22 130.11 6.42C129.73 6.63 129.38 6.86 129.07 7.13C128.77 7.39 128.5 7.68 128.28 7.99L128.16 8.16H127.36L126.86 5.77H126.85ZM139 5.77H134.86V22H139V5.77ZM151.03 6.43C150.13 6.01 149.14 5.78 148.1 5.78C146.05 5.78 144.19 6.68 142.85 8.14C141.5 9.61 140.66 11.64 140.66 13.89C140.66 16.14 141.5 18.17 142.85 19.64C144.19 21.1 146.05 22.01 148.1 22.01C149.25 22.01 150.34 21.73 151.31 21.22C152.32 20.69 153.21 19.92 153.91 18.97L154.18 18.6L157.68 21.86L159.99 19.7L157.51 17.39V5.77H154.2V9.12L153.48 8.3C152.79 7.51 151.95 6.86 151.01 6.43H151.03ZM149.07 9.02C150.35 9.02 151.52 9.57 152.36 10.45C153.2 11.33 153.72 12.55 153.72 13.89C153.72 15.23 153.2 16.45 152.36 17.33C151.52 18.22 150.36 18.76 149.07 18.76C147.78 18.76 146.62 18.21 145.78 17.33C144.94 16.45 144.42 15.23 144.42 13.89C144.42 12.55 144.94 11.33 145.78 10.45C146.62 9.57 147.78 9.02 149.07 9.02ZM90.15 5.77H86.01V22H90.15V5.77ZM114.2 18.3C113.89 18.36 113.57 18.39 113.24 18.39C112.91 18.39 112.6 18.36 112.29 18.3C111.98 18.24 111.68 18.15 111.4 18.03C110.83 17.79 110.33 17.45 109.9 17.02C109.69 16.8 109.5 16.57 109.33 16.31C109.16 16.05 109.01 15.78 108.89 15.49C108.64 14.9 108.52 14.26 108.52 13.57C108.52 13.23 108.55 12.9 108.61 12.58C108.67 12.26 108.77 11.96 108.89 11.66C109.01 11.38 109.16 11.11 109.33 10.85C109.5 10.59 109.69 10.36 109.9 10.15C110.11 9.94 110.35 9.74 110.6 9.57C110.86 9.4 111.13 9.25 111.41 9.14C111.99 8.9 112.61 8.78 113.27 8.78C113.93 8.78 114.55 8.9 115.13 9.14C115.42 9.26 115.69 9.4 115.94 9.57C116.19 9.74 116.43 9.93 116.64 10.15C116.86 10.37 117.05 10.6 117.21 10.85C117.38 11.1 117.52 11.37 117.64 11.66C117.76 11.95 117.85 12.25 117.91 12.57C117.97 12.89 118 13.22 118 13.56C118 13.9 117.97 14.23 117.91 14.56C117.85 14.88 117.75 15.19 117.63 15.49C117.51 15.78 117.36 16.05 117.19 16.31C117.02 16.57 116.83 16.81 116.62 17.02C116.41 17.23 116.17 17.43 115.92 17.6C115.67 17.77 115.4 17.91 115.11 18.03C114.82 18.15 114.52 18.24 114.21 18.3H114.2ZM111.48 21.84C112.04 21.95 112.63 22 113.25 22C113.87 22 114.46 21.95 115.02 21.84C115.58 21.73 116.13 21.57 116.66 21.36C117.18 21.15 117.68 20.89 118.14 20.6C118.6 20.3 119.02 19.97 119.41 19.6C119.8 19.23 120.15 18.82 120.46 18.37C120.77 17.92 121.04 17.44 121.26 16.93C121.48 16.42 121.65 15.88 121.77 15.32C121.88 14.77 121.94 14.18 121.94 13.57C121.94 12.96 121.88 12.4 121.77 11.85C121.66 11.3 121.49 10.77 121.26 10.26C121.03 9.75 120.77 9.28 120.46 8.83C120.15 8.39 119.8 7.98 119.41 7.61C119.02 7.24 118.6 6.9 118.14 6.61C117.68 6.31 117.19 6.06 116.66 5.85C116.13 5.64 115.59 5.48 115.03 5.37C114.47 5.26 113.89 5.21 113.29 5.21C112.69 5.21 112.1 5.26 111.55 5.37C110.99 5.48 110.45 5.64 109.92 5.85C109.4 6.06 108.9 6.32 108.44 6.61C107.98 6.91 107.56 7.24 107.17 7.61C106.78 7.99 106.43 8.39 106.12 8.84C105.81 9.28 105.54 9.76 105.31 10.27C105.08 10.78 104.91 11.3 104.79 11.86C104.68 12.41 104.62 12.98 104.62 13.58C104.62 14.18 104.68 14.77 104.79 15.33C104.9 15.89 105.07 16.43 105.28 16.94C105.5 17.45 105.76 17.93 106.07 18.38C106.38 18.82 106.72 19.23 107.11 19.61C107.5 19.98 107.92 20.32 108.38 20.61C108.84 20.91 109.33 21.16 109.86 21.37C110.39 21.58 110.93 21.74 111.5 21.85L111.48 21.84ZM103.15 21.64C103.31 21.59 103.46 21.54 103.61 21.48L103.58 17.98L103.4 18.05C103.24 18.11 103.07 18.17 102.88 18.23C102.47 18.36 102 18.43 101.46 18.43C100.95 18.43 100.5 18.36 100.1 18.22C99.68 18.07 99.33 17.85 99.04 17.56C98.74 17.26 98.52 16.87 98.38 16.39C98.24 15.94 98.18 15.4 98.18 14.78V8.89H103.03V5.69H98.14V2.02H95.29L94.55 5.69H91.84V8.89H94.23V14.71C94.23 15.38 94.27 16 94.35 16.57C94.43 17.13 94.54 17.64 94.7 18.1C94.85 18.56 95.04 18.97 95.25 19.35C95.46 19.72 95.7 20.04 95.97 20.32C96.24 20.6 96.53 20.84 96.86 21.05C97.19 21.26 97.54 21.43 97.93 21.56C98.32 21.69 98.73 21.79 99.17 21.86C99.61 21.93 100.07 21.96 100.56 21.96C100.81 21.96 101.08 21.95 101.36 21.92C101.65 21.9 101.96 21.86 102.28 21.81C102.6 21.76 102.89 21.7 103.15 21.63V21.64ZM71.11 5.7H66.96L74.8 22H76.79L84.6 5.7H80.48L76.18 15.43H75.39L71.12 5.7H71.11Z" fill="black"/>
<path fill-rule="evenodd" clip-rule="evenodd" d="M118.01 3.71V0L108.52 1.04V3.71H118.01Z" fill="black"/>
</g>
<defs>
<clipPath id="clip0_1_174">
<rect width="160" height="22" fill="white"/>
</clipPath>
</defs>
</svg>
